<svg id="Слой_1" data-name="Слой 1" xmlns="http://www.w3.org/2000/svg" width="113.83" height="86.45" viewBox="0 0 113.83 86.45"><title>actor</title><rect x="373.52" y="56.82" width="13.7" height="1.83" rx="0.8" ry="0.8" transform="translate(415.3 72.9) rotate(-180)" style="fill:#f1f2f2"/><rect x="381.31" y="58.58" width="4.82" height="1.83" rx="0.8" ry="0.8" transform="translate(421.99 76.41) rotate(180)" style="fill:#f1f2f2"/><rect x="373.08" y="61.01" width="4.82" height="1.83" rx="0.8" ry="0.8" transform="translate(405.53 81.28) rotate(180)" style="fill:#f1f2f2"/><rect x="370" y="59.76" width="19.23" height="1.83" rx="0.8" ry="0.8" transform="translate(413.78 78.79) rotate(-180)" style="fill:#f1f2f2"/><rect x="371.11" y="62.71" width="13.7" height="1.83" rx="0.8" ry="0.8" transform="translate(410.48 84.67) rotate(-180)" style="fill:#f1f2f2"/><path d="M424.07,117.54c-14.66,0-26.51-10-27-22.67-0.37-9.72-3-39.14-3-39.44a3.5,3.5,0,0,1,3.49-3.81h53.08a3.5,3.5,0,0,1,3.49,3.81c0,0.3-2.67,29.71-3,39.44h0C450.57,107.59,438.71,117.54,424.07,117.54Zm-22.7-58.92c0.73,8.37,2.4,28.11,2.7,36,0.34,8.93,9.13,15.93,20,15.93s19.66-7,20-15.93c0.3-7.87,2-27.61,2.73-36H401.36Zm46.2,36.12h0Z" transform="translate(-345.44 -42.57)" style="fill:#3e357f"/><path d="M414.74,99.29S412.42,87.71,424,87.71s9.45,11.59,9.45,11.59H414.74Z" transform="translate(-345.44 -42.57)" style="fill:#ee3961"/><path d="M431.42,97.15c0-1.89-3.29-3.13-7.34-3.13s-7.34,1.24-7.34,3.13,3.29,3.43,7.34,3.43S431.42,99,431.42,97.15Z" transform="translate(-345.44 -42.57)" style="fill:#ce345c"/><path d="M433.1,89.37c3.42,4.11,2.37,10,2.33,10.28a2,2,0,0,1-2,1.64H414.74a2,2,0,0,1-2-1.61c-0.05-.25-1.19-6.19,2.19-10.31,2-2.43,5-3.67,9-3.67S431.08,86.94,433.1,89.37Zm-1.49,7.92A8.43,8.43,0,0,0,430,91.93c-1.23-1.48-3.25-2.23-6-2.23s-4.74.74-5.94,2.19a8.29,8.29,0,0,0-1.51,5.4h15.05Z" transform="translate(-345.44 -42.57)" style="fill:#3e357f"/><path d="M409.1,75.05A2.5,2.5,0,0,1,407,71.2a8.59,8.59,0,0,1,9.93-3.5,2.5,2.5,0,0,1-1.58,4.74,3.59,3.59,0,0,0-4.14,1.46A2.5,2.5,0,0,1,409.1,75.05Z" transform="translate(-345.44 -42.57)" style="fill:#3e357f"/><path d="M439.62,75.11a2.5,2.5,0,0,1-2.14-1.21,3.59,3.59,0,0,0-4.1-1.58,2.5,2.5,0,0,1-1.44-4.79,8.59,8.59,0,0,1,9.82,3.79A2.5,2.5,0,0,1,439.62,75.11Z" transform="translate(-345.44 -42.57)" style="fill:#3e357f"/><path d="M372.09,66.1s-3.61,1.58-3.38,5-5.61,55.13,24.39,53.29,26-33,26-33l0.18-25.33H372.09Z" transform="translate(-345.44 -42.57)" style="fill:#fff"/><polygon points="56.33 20.44 49.2 20.44 49.07 18.15 56.1 18.11 56.33 20.44" style="fill:#272359"/><path d="M394.79,125.52c-13,0-23.58-8.69-24-19.78-0.37-9.8-3-39.3-3-39.59l0-.54H421.9l0,0.54c0,0.3-2.68,29.79-3.06,39.59h0C418.37,116.83,407.82,125.52,394.79,125.52Zm-26-58.92c0.36,4.09,2.63,30,3,39.1,0.4,10.55,10.5,18.82,23,18.82s22.59-8.27,23-18.82c0.35-9.08,2.65-35,3-39.1h-52Z" transform="translate(-345.44 -42.57)" style="fill:#fff"/><path d="M394.79,128.52c-14.65,0-26.51-10-27-22.67-0.37-9.72-3-39.14-3-39.44a3.5,3.5,0,0,1,3.49-3.81h53.08a3.5,3.5,0,0,1,3.49,3.81c0,0.3-2.67,29.71-3,39.44h0C421.3,118.56,409.44,128.52,394.79,128.52ZM372.09,69.6c0.73,8.37,2.4,28.11,2.7,36,0.34,8.93,9.13,15.93,20,15.93s19.66-7,20-15.94c0.3-7.87,2-27.61,2.73-36H372.09Zm46.2,36.12h0Z" transform="translate(-345.44 -42.57)" style="fill:#3e357f"/><path d="M394.79,129c-14.92,0-27-10.17-27.5-23.15-0.37-9.74-3-39.12-3-39.42a4,4,0,0,1,4-4.35h53.08a4,4,0,0,1,4,4.36c0,0.28-2.67,29.73-3,39.41C421.79,118.85,409.71,129,394.79,129ZM368.27,63.1a3,3,0,0,0-3,3.27c0,0.3,2.64,29.7,3,39.47,0.47,12.44,12.11,22.19,26.5,22.19s26-9.74,26.5-22.18c0.38-9.71,3-39.18,3.05-39.46a3,3,0,0,0-3-3.27H368.27ZM394.79,122c-11.15,0-20.15-7.21-20.5-16.41-0.3-7.9-2-27.78-2.7-36l0-.54h46.53l0,0.54c-0.72,8.19-2.43,28.08-2.73,36C414.94,114.81,405.94,122,394.79,122ZM372.64,70.1c0.74,8.49,2.36,27.72,2.65,35.47,0.33,8.67,8.9,15.45,19.5,15.45s19.17-6.79,19.5-15.45c0.3-7.73,1.94-27,2.69-35.46H372.64Zm45.67,36.12v-1h0v1Z" transform="translate(-345.44 -42.57)" style="fill:#fff"/><path d="M385.47,101.93s-2.32,11.59,9.27,11.59,9.45-11.59,9.45-11.59H385.47Z" transform="translate(-345.44 -42.57)" style="fill:#ee3961"/><path d="M400.36,112.19c0,2.68-2.25,2.78-5,2.78s-5-.11-5-2.78A5,5,0,0,1,400.36,112.19Z" transform="translate(-345.44 -42.57)" style="fill:#ce345c"/><path d="M394.74,115.52c-4,0-7-1.23-9-3.67-3.38-4.12-2.24-10.06-2.19-10.31a2,2,0,0,1,2-1.61h18.72a2,2,0,0,1,2,1.64c0,0.25,1.09,6.18-2.33,10.28C401.81,114.29,398.75,115.52,394.74,115.52Zm-7.45-11.59a8.29,8.29,0,0,0,1.51,5.4c1.2,1.45,3.2,2.19,5.94,2.19s4.79-.75,6-2.23a8.43,8.43,0,0,0,1.59-5.36H387.29Z" transform="translate(-345.44 -42.57)" style="fill:#3e357f"/><path d="M379.61,85.43a2.5,2.5,0,0,1-1.85-4.18,8.59,8.59,0,0,1,10.37-1.8,2.5,2.5,0,0,1-2.35,4.42,3.63,3.63,0,0,0-4.33.76A2.49,2.49,0,0,1,379.61,85.43Z" transform="translate(-345.44 -42.57)" style="fill:#3e357f"/><path d="M410.66,85.2a2.49,2.49,0,0,1-1.75-.71,3.59,3.59,0,0,0-4.37-.49,2.5,2.5,0,0,1-2.6-4.27,8.59,8.59,0,0,1,10.46,1.18A2.5,2.5,0,0,1,410.66,85.2Z" transform="translate(-345.44 -42.57)" style="fill:#3e357f"/><rect x="415.27" y="115.52" width="13.7" height="1.83" rx="0.8" ry="0.8" transform="translate(498.79 190.3) rotate(-180)" style="fill:#f1f2f2"/><rect x="423.05" y="117.28" width="4.82" height="1.83" rx="0.8" ry="0.8" transform="translate(505.48 193.81) rotate(180)" style="fill:#f1f2f2"/><rect x="414.82" y="119.71" width="4.82" height="1.83" rx="0.8" ry="0.8" transform="translate(489.02 198.68) rotate(180)" style="fill:#f1f2f2"/><rect x="411.74" y="118.46" width="19.23" height="1.83" rx="0.8" ry="0.8" transform="translate(497.27 196.19) rotate(-180)" style="fill:#f1f2f2"/><rect x="412.86" y="121.41" width="13.7" height="1.83" rx="0.8" ry="0.8" transform="translate(493.97 202.07) rotate(-180)" style="fill:#f1f2f2"/><path d="M454.77,72.43a0.5,0.5,0,0,1-.35-0.85l4-4a0.5,0.5,0,0,1,.71.71l-4,4A0.5,0.5,0,0,1,454.77,72.43Z" transform="translate(-345.44 -42.57)" style="fill:#c49a6c"/><path d="M458.77,72.43a0.5,0.5,0,0,1-.35-0.15l-4-4a0.5,0.5,0,1,1,.71-0.71l4,4A0.5,0.5,0,0,1,458.77,72.43Z" transform="translate(-345.44 -42.57)" style="fill:#c49a6c"/><path d="M359.77,95.43a0.5,0.5,0,0,1-.35-0.85L361,93a0.5,0.5,0,0,1,.71.71l-1.53,1.53A0.5,0.5,0,0,1,359.77,95.43Z" transform="translate(-345.44 -42.57)" style="fill:#ec008c"/><path d="M361.3,95.43a0.5,0.5,0,0,1-.35-0.15l-1.53-1.53a0.5,0.5,0,1,1,.71-0.71l1.53,1.53A0.5,0.5,0,0,1,361.3,95.43Z" transform="translate(-345.44 -42.57)" style="fill:#ec008c"/><path d="M349.67,76.53a0.5,0.5,0,0,1-.35-0.85l1.53-1.53a0.5,0.5,0,0,1,.71.71L350,76.38A0.5,0.5,0,0,1,349.67,76.53Z" transform="translate(-345.44 -42.57)" style="fill:#d7df23"/><path d="M351.21,76.53a0.5,0.5,0,0,1-.35-0.15l-1.53-1.53a0.5,0.5,0,1,1,.71-0.71l1.53,1.53A0.5,0.5,0,0,1,351.21,76.53Z" transform="translate(-345.44 -42.57)" style="fill:#d7df23"/><path d="M373.34,52.86A0.5,0.5,0,0,1,373,52l1.53-1.53a0.5,0.5,0,0,1,.71.71l-1.53,1.53A0.5,0.5,0,0,1,373.34,52.86Z" transform="translate(-345.44 -42.57)" style="fill:#00a651"/><path d="M374.87,52.86a0.5,0.5,0,0,1-.35-0.15L373,51.18a0.5,0.5,0,0,1,.71-0.71L375.22,52A0.5,0.5,0,0,1,374.87,52.86Z" transform="translate(-345.44 -42.57)" style="fill:#00a651"/><circle cx="3.4" cy="68.59" r="3.4" style="fill:#f9ed32"/><circle cx="448.12" cy="44.27" r="1.7" transform="matrix(1, -0.08, 0.08, 1, -347.56, -6.13)" style="fill:#27aae1"/><path d="M450.63,106.92a2,2,0,0,1-1.73-1l-1.2-2.07a2,2,0,0,1,1.73-3h2.39a2,2,0,0,1,1.73,3l-1.2,2.07A2,2,0,0,1,450.63,106.92Z" transform="translate(-345.44 -42.57)" style="fill:#d7df23"/></svg>