<svg id="Слой_1" data-name="Слой 1" xmlns="http://www.w3.org/2000/svg" width="156.25" height="137.48" viewBox="0 0 156.25 137.48"><title>players icon</title><path d="M552.77,861.59H447.09c0-19.73,5.92-32.44,13.37-41.79,6-7.58,13.06-12.94,18.77-18A44.19,44.19,0,0,0,498.6,807q0.63,0,1.26,0c0.47,0,.93,0,1.4,0a44.19,44.19,0,0,0,19.37-5.22c2.44,2.18,5.12,4.41,7.86,6.85a89.54,89.54,0,0,1,10.91,11.2c6.52,8.18,11.87,18.94,13.1,34.73Q552.77,857.91,552.77,861.59Z" transform="translate(-447.09 -724.11)" style="fill:#222"/><path d="M588.53,763.71a32.54,32.54,0,0,1-54.44,24.06,43.67,43.67,0,0,0,3-50.57A32.55,32.55,0,0,1,588.53,763.71Z" transform="translate(-447.09 -724.11)" style="fill:#222"/><path d="M603.34,854.53H560c-1.11-15.43-6-28.37-14.75-39.4a94.29,94.29,0,0,0-11.09-11.52c1.1-.94,2.16-1.86,3.18-2.77a39.54,39.54,0,0,0,17.38,4.68c0.37,0,.75,0,1.13,0s0.83,0,1.25,0a39.54,39.54,0,0,0,17.38-4.68c5.13,4.58,11.43,9.39,16.85,16.19C598,825.42,603.34,836.83,603.34,854.53Z" transform="translate(-447.09 -724.11)" style="fill:#222"/><path d="M536.26,760.37a36.23,36.23,0,1,1-4.8-18A36.13,36.13,0,0,1,536.26,760.37Z" transform="translate(-447.09 -724.11)" style="fill:#222"/></svg>