<svg id="Слой_1" data-name="Слой 1" xmlns="http://www.w3.org/2000/svg" width="313.91" height="86.67" viewBox="0 0 313.91 86.67"><title>superhero banner</title><path d="M701.49,770v68.06c0,5.14-3.08,9.3-6.89,9.3H394.48c-3.81,0-6.9-4.16-6.9-9.3V770c0-5.15,3.09-9.31,6.9-9.31H694.6C698.41,760.7,701.49,764.86,701.49,770Z" transform="translate(-387.58 -760.7)" style="fill:#27aae1"/><g style="opacity:0.4"><rect x="276.16" y="9.67" width="19.03" height="2.54" rx="0.8" ry="0.8" style="fill:#f1f2f2"/><rect x="277.68" y="11.59" width="6.7" height="2.54" rx="0.8" ry="0.8" style="fill:#f1f2f2"/><rect x="289.06" y="15.75" width="6.7" height="2.54" rx="0.8" ry="0.8" style="fill:#f1f2f2"/><rect x="273.37" y="13.76" width="26.72" height="2.54" rx="0.8" ry="0.8" style="fill:#f1f2f2"/><rect x="279.51" y="17.85" width="19.03" height="2.54" rx="0.8" ry="0.8" style="fill:#f1f2f2"/></g><g style="opacity:0.4"><rect x="56.79" y="72.58" width="11.11" height="1.48" rx="0.74" ry="0.74" style="fill:#f1f2f2"/><rect x="57.67" y="73.7" width="3.91" height="1.48" rx="0.74" ry="0.74" style="fill:#f1f2f2"/><rect x="64.32" y="76.13" width="3.91" height="1.48" rx="0.74" ry="0.74" style="fill:#f1f2f2"/><rect x="55.16" y="74.97" width="15.6" height="1.48" rx="0.74" ry="0.74" style="fill:#f1f2f2"/><rect x="58.74" y="77.36" width="11.11" height="1.48" rx="0.74" ry="0.74" style="fill:#f1f2f2"/></g><g style="opacity:0.25"><path d="M421.23,779.88a1,1,0,0,1-.26,0L415,778.25a1,1,0,0,1-.45-1.67l4.35-4.35a1,1,0,0,1,1-.26,1,1,0,0,1,.71.71l1.59,5.94A1,1,0,0,1,421.23,779.88Zm-4-3.11,2.59,0.69-0.7-2.59Z" transform="translate(-387.58 -760.7)" style="fill:#fff"/></g><path d="M401.56,798.19a9.34,9.34,0,1,1,9.34-9.34A9.35,9.35,0,0,1,401.56,798.19Zm0-15.69a6.34,6.34,0,1,0,6.34,6.34A6.35,6.35,0,0,0,401.56,782.5Z" transform="translate(-387.58 -760.7)" style="fill:#1c75bc"/><path d="M691.24,826.53l-0.21,0a1,1,0,0,1-.77-1.19l1.51-7a1,1,0,1,1,2,.42l-1.51,7A1,1,0,0,1,691.24,826.53Z" transform="translate(-387.58 -760.7)" style="fill:#f9ed32"/><path d="M695.51,823.76l-0.21,0-7-1.51a1,1,0,1,1,.42-2l7,1.51A1,1,0,0,1,695.51,823.76Z" transform="translate(-387.58 -760.7)" style="fill:#f9ed32"/><path d="M687.06,841.7l-0.13-.1a0.78,0.78,0,0,1,0-1.1l3.77-4.13a0.78,0.78,0,0,1,1.15,1L688,841.55A0.78,0.78,0,0,1,687.06,841.7Z" transform="translate(-387.58 -760.7)" style="fill:#f9ed32"/><path d="M691,841.52l-0.13-.1-4.13-3.77a0.78,0.78,0,0,1,1-1.15l4.13,3.77A0.78,0.78,0,0,1,691,841.52Z" transform="translate(-387.58 -760.7)" style="fill:#f9ed32"/><path d="M665.27,833.13l-0.09-.06a0.51,0.51,0,0,1,0-.72l2.46-2.69a0.51,0.51,0,1,1,.75.68L665.9,833A0.51,0.51,0,0,1,665.27,833.13Z" transform="translate(-387.58 -760.7)" style="fill:#f9ed32"/><path d="M667.85,833l-0.09-.06-2.69-2.46a0.51,0.51,0,1,1,.68-0.75l2.69,2.46A0.51,0.51,0,0,1,667.85,833Z" transform="translate(-387.58 -760.7)" style="fill:#f9ed32"/><path d="M405.51,823.83l-0.12-.09a0.71,0.71,0,0,1,0-1l3.45-3.78a0.71,0.71,0,0,1,1.05,1l-3.45,3.78A0.71,0.71,0,0,1,405.51,823.83Z" transform="translate(-387.58 -760.7)" style="fill:#f9ed32"/><path d="M409.13,823.66l-0.12-.09-3.78-3.45a0.71,0.71,0,0,1,1-1.05l3.78,3.45A0.71,0.71,0,0,1,409.13,823.66Z" transform="translate(-387.58 -760.7)" style="fill:#f9ed32"/><g style="opacity:0.35000000000000003"><path d="M616.34,760.7l-25.57,25.58a2.5,2.5,0,1,1-3.54-3.54l22-22h7.07Z" transform="translate(-387.58 -760.7)" style="fill:#fff"/></g><g style="opacity:0.35000000000000003"><path d="M490.71,841.88l-14.48,5.49H462.11l26.83-10.17A2.5,2.5,0,0,1,490.71,841.88Z" transform="translate(-387.58 -760.7)" style="fill:#fff"/></g></svg>