<svg id="Слой_1" data-name="Слой 1" xmlns="http://www.w3.org/2000/svg" width="117.97" height="86.55" viewBox="0 0 117.97 86.55"><title>timetable</title><rect x="97.23" y="49.95" width="15.76" height="2.1" rx="0.85" ry="0.85" transform="translate(182.06 56.08) rotate(180)" style="fill:#f1f2f2"/><rect x="121.33" y="72.2" width="15.76" height="2.1" rx="0.85" ry="0.85" transform="translate(230.27 100.58) rotate(180)" style="fill:#f1f2f2"/><rect x="130.29" y="74.22" width="5.54" height="2.1" rx="0.85" ry="0.85" transform="translate(237.97 104.63) rotate(180)" style="fill:#f1f2f2"/><rect x="120.81" y="77.03" width="5.54" height="2.1" rx="0.85" ry="0.85" transform="translate(219.03 110.23) rotate(180)" style="fill:#f1f2f2"/><rect x="117.27" y="75.59" width="22.13" height="2.1" rx="0.85" ry="0.85" transform="translate(228.52 107.36) rotate(-180)" style="fill:#f1f2f2"/><rect x="118.56" y="78.98" width="15.76" height="2.1" rx="0.85" ry="0.85" transform="translate(224.72 114.14) rotate(-180)" style="fill:#f1f2f2"/><path d="M61.11,75.59c0.17-1-1.23-20.17,21.47-19s39,0.33,40.2,12.17-1.5,6.83-1.5,6.83H61.11Z" transform="translate(-28.15 -45.93)" style="fill:#ee3961"/><path d="M71.4,65c0.14-2.66,2.8-2.62,6.08-2.45s5.93,0.42,5.79,3.08-2.91,4.67-6.19,4.5S71.26,67.63,71.4,65Z" transform="translate(-28.15 -45.93)" style="fill:#ce345c"/><path d="M104.17,65c0.14-2.66,2.8-2.62,6.08-2.45s5.93,0.42,5.79,3.08-2.91,4.67-6.19,4.5S104,67.63,104.17,65Z" transform="translate(-28.15 -45.93)" style="fill:#ce345c"/><path d="M115.35,119.28a334.91,334.91,0,0,1-42.49,0,10.12,10.12,0,0,1-8.77-8.77,334.9,334.9,0,0,1,0-42.49,10.12,10.12,0,0,1,8.77-8.77,334.91,334.91,0,0,1,42.49,0A10.12,10.12,0,0,1,124.12,68,206.53,206.53,0,0,1,125,89.26a206.53,206.53,0,0,1-.91,21.25A10.12,10.12,0,0,1,115.35,119.28Z" transform="translate(-28.15 -45.93)" style="fill:none;stroke:#3e357f;stroke-linecap:round;stroke-linejoin:round;stroke-width:7px"/><path d="M63.14,75.11a347.08,347.08,0,0,0,59.94,0" transform="translate(-28.15 -45.93)" style="fill:none;stroke:#3e357f;stroke-linecap:round;stroke-linejoin:round;stroke-width:7px"/><path d="M84.76,100.14S82.45,111.73,94,111.73s9.45-11.59,9.45-11.59H84.76Z" transform="translate(-28.15 -45.93)" style="fill:#ee3961"/><path d="M99.65,110.4c0,2.68-2.25,2.78-5,2.78s-5-.11-5-2.78A5,5,0,0,1,99.65,110.4Z" transform="translate(-28.15 -45.93)" style="fill:#ce345c"/><path d="M94,113.73c-4,0-7-1.23-9-3.67-3.38-4.12-2.24-10.06-2.19-10.31a2,2,0,0,1,2-1.61h18.72a2,2,0,0,1,2,1.64c0,0.25,1.09,6.18-2.33,10.28C101.1,112.49,98,113.73,94,113.73Zm-7.45-11.59a8.29,8.29,0,0,0,1.51,5.4c1.2,1.45,3.2,2.19,5.94,2.19s4.79-.75,6-2.23a8.43,8.43,0,0,0,1.59-5.36H86.58Z" transform="translate(-28.15 -45.93)" style="fill:#3e357f"/><circle cx="52.94" cy="42.94" r="3.94" style="fill:#3e357f"/><path d="M80.64,89.92a0.5,0.5,0,0,1-.5-0.5V87a0.5,0.5,0,0,1,1,0v2.4A0.5,0.5,0,0,1,80.64,89.92Z" transform="translate(-28.15 -45.93)" style="fill:#fff"/><path d="M81.84,88.72h-2.4a0.5,0.5,0,0,1,0-1h2.4A0.5,0.5,0,0,1,81.84,88.72Z" transform="translate(-28.15 -45.93)" style="fill:#fff"/><circle cx="77.86" cy="43.12" r="3.75" style="fill:#3e357f"/><path d="M105.59,90.08a0.5,0.5,0,0,1-.5-0.5V87.29a0.5,0.5,0,0,1,1,0v2.29A0.5,0.5,0,0,1,105.59,90.08Z" transform="translate(-28.15 -45.93)" style="fill:#fff"/><path d="M106.73,88.94h-2.29a0.5,0.5,0,0,1,0-1h2.29A0.5,0.5,0,1,1,106.73,88.94Z" transform="translate(-28.15 -45.93)" style="fill:#fff"/><path d="M77.36,66.8a5,5,0,0,1-5-5V55.3a5,5,0,0,1,10,0v6.5A5,5,0,0,1,77.36,66.8Z" transform="translate(-28.15 -45.93)" style="fill:#3e357f"/><path d="M77.36,67.3a5.51,5.51,0,0,1-5.5-5.5V55.3a5.5,5.5,0,1,1,11,0v6.5A5.51,5.51,0,0,1,77.36,67.3Zm0-16.5a4.5,4.5,0,0,0-4.5,4.5v6.5a4.5,4.5,0,0,0,9,0V55.3A4.5,4.5,0,0,0,77.36,50.8Z" transform="translate(-28.15 -45.93)" style="fill:#fff"/><path d="M110.11,66.8a5,5,0,0,1-5-5V55.3a5,5,0,0,1,10,0v6.5A5,5,0,0,1,110.11,66.8Z" transform="translate(-28.15 -45.93)" style="fill:#3e357f"/><path d="M110.11,67.3a5.51,5.51,0,0,1-5.5-5.5V55.3a5.5,5.5,0,1,1,11,0v6.5A5.51,5.51,0,0,1,110.11,67.3Zm0-16.5a4.5,4.5,0,0,0-4.5,4.5v6.5a4.5,4.5,0,0,0,9,0V55.3A4.5,4.5,0,0,0,110.11,50.8Z" transform="translate(-28.15 -45.93)" style="fill:#fff"/><circle cx="25.87" cy="3.5" r="3.5" style="fill:#cc3636"/><circle cx="30.25" cy="82.55" r="4" style="fill:#50b3e4"/><path d="M34.85,83a0.5,0.5,0,0,1-.35-0.85L39.67,77a0.5,0.5,0,0,1,.71.71l-5.17,5.17A0.5,0.5,0,0,1,34.85,83Z" transform="translate(-28.15 -45.93)" style="fill:#fbb040"/><path d="M40,83a0.5,0.5,0,0,1-.35-0.15L34.5,77.67A0.5,0.5,0,0,1,35.21,77l5.17,5.17A0.5,0.5,0,0,1,40,83Z" transform="translate(-28.15 -45.93)" style="fill:#fbb040"/><path d="M143.68,77.07a0.5,0.5,0,0,1-.35-0.85l1.94-1.94A0.5,0.5,0,1,1,146,75L144,76.92A0.5,0.5,0,0,1,143.68,77.07Z" transform="translate(-28.15 -45.93)" style="fill:#00a79d"/><path d="M145.62,77.07a0.5,0.5,0,0,1-.35-0.15L143.32,75a0.5,0.5,0,0,1,.71-0.71L146,76.21A0.5,0.5,0,0,1,145.62,77.07Z" transform="translate(-28.15 -45.93)" style="fill:#00a79d"/><path d="M124.93,58a0.5,0.5,0,0,1-.35-0.85l1.94-1.94a0.5,0.5,0,0,1,.71.71l-1.94,1.94A0.5,0.5,0,0,1,124.93,58Z" transform="translate(-28.15 -45.93)" style="fill:#ed1c24"/><path d="M126.87,58a0.5,0.5,0,0,1-.35-0.15l-1.94-1.94a0.5,0.5,0,1,1,.71-0.71l1.94,1.94A0.5,0.5,0,0,1,126.87,58Z" transform="translate(-28.15 -45.93)" style="fill:#ed1c24"/><rect x="2.31" y="68.38" width="15.76" height="2.1" rx="0.85" ry="0.85" style="fill:#f1f2f2"/><rect x="3.57" y="70.4" width="5.54" height="2.1" rx="0.85" ry="0.85" style="fill:#f1f2f2"/><rect x="13.04" y="73.21" width="5.54" height="2.1" rx="0.85" ry="0.85" style="fill:#f1f2f2"/><rect y="71.77" width="22.13" height="2.1" rx="0.85" ry="0.85" style="fill:#f1f2f2"/><rect x="5.08" y="75.16" width="15.76" height="2.1" rx="0.85" ry="0.85" style="fill:#f1f2f2"/><path d="M131.36,124.42a1.49,1.49,0,0,1-.39-0.05l-10.44-2.8a1.5,1.5,0,0,1-.67-2.51l7.65-7.65a1.5,1.5,0,0,1,2.51.67l2.8,10.44A1.5,1.5,0,0,1,131.36,124.42Zm-7.55-5.08,5.43,1.45-1.45-5.43Z" transform="translate(-28.15 -45.93)" style="fill:#56bc77"/></svg>