<svg id="Слой_1" data-name="Слой 1" xmlns="http://www.w3.org/2000/svg" width="148.9" height="187.38" viewBox="0 0 148.9 187.38"><title>way2</title><path d="M-585.36,410.48a1,1,0,0,1-.6-0.2,1,1,0,0,1-.19-1.4,36.34,36.34,0,0,1,6.54-6.51,1,1,0,0,1,1.4.17,1,1,0,0,1-.17,1.4,34.34,34.34,0,0,0-6.18,6.14A1,1,0,0,1-585.36,410.48Zm13.89-11.23a1,1,0,0,1-.88-0.52,1,1,0,0,1,.4-1.36c1.44-.79,3-1.56,4.53-2.28a23.71,23.71,0,0,1,3.92-1.4,1,1,0,0,1,1.22.71,1,1,0,0,1-.71,1.22,21.79,21.79,0,0,0-3.59,1.28c-1.53.71-3,1.46-4.41,2.22A1,1,0,0,1-571.47,399.25Zm54.87-1.34-1.91,0a1,1,0,0,1-1-1,1,1,0,0,1,1-1c3,0.06,6,0,8.89-.26a1,1,0,0,1,1.08.91,1,1,0,0,1-.91,1.08C-511.73,397.81-514.14,397.91-516.6,397.91Zm-10.88-.54h-0.09c-3.11-.29-6.15-0.66-9-1a1,1,0,0,1-.87-1.12,1,1,0,0,1,1.12-.87c2.81,0.36,5.83.73,8.91,1a1,1,0,0,1,.9,1.09A1,1,0,0,1-527.47,397.36Zm26.87-1a1,1,0,0,1-1-.8,1,1,0,0,1,.78-1.18,68.43,68.43,0,0,0,8.54-2.35,1,1,0,0,1,1.27.62,1,1,0,0,1-.62,1.27,70.44,70.44,0,0,1-8.79,2.42Zm-44.75-1.11h-0.11a84.57,84.57,0,0,0-8.87-.58,1,1,0,0,1-1-1,1,1,0,0,1,1-1h0a86.41,86.41,0,0,1,9.08.59,1,1,0,0,1,.89,1.1A1,1,0,0,1-545.35,395.25Zm61.7-4.77a1,1,0,0,1-.9-0.55,1,1,0,0,1,.45-1.34,76.63,76.63,0,0,0,7.7-4.42,1,1,0,0,1,1.38.29,1,1,0,0,1-.29,1.38,78.67,78.67,0,0,1-7.9,4.54A1,1,0,0,1-483.64,390.47Zm15.06-9.78a1,1,0,0,1-.78-0.37,1,1,0,0,1,.15-1.41c2.23-1.8,4.47-3.79,6.67-5.91a1,1,0,0,1,1.41,0,1,1,0,0,1,0,1.41c-2.23,2.16-4.52,4.18-6.8,6A1,1,0,0,1-468.59,380.69Zm13-12.46a1,1,0,0,1-.66-0.25,1,1,0,0,1-.09-1.41,59.41,59.41,0,0,0,5.35-7,1,1,0,0,1,1.38-.3,1,1,0,0,1,.3,1.38,61.45,61.45,0,0,1-5.53,7.28A1,1,0,0,1-455.63,368.23ZM-493,361.05h-0.17a17.7,17.7,0,0,1-8.5-4.07,1,1,0,0,1-.11-1.41,1,1,0,0,1,1.41-.11,15.7,15.7,0,0,0,7.53,3.61,1,1,0,0,1,.81,1.16A1,1,0,0,1-493,361.05Zm8.85-.88a1,1,0,0,1-.94-0.66,1,1,0,0,1,.6-1.28,24,24,0,0,0,6.86-4l0.49-.42a1,1,0,0,1,1.41.1,1,1,0,0,1-.1,1.41l-0.54.46a25.93,25.93,0,0,1-7.45,4.34A1,1,0,0,1-484.15,360.17Zm37.93-7.15a1,1,0,0,1-.32-0.05,1,1,0,0,1-.63-1.27,22.21,22.21,0,0,0,1.23-7c0-.48,0-0.95-0.06-1.41a1,1,0,0,1,.92-1.08,1,1,0,0,1,1.07.92q0.06,0.77.06,1.56a24.18,24.18,0,0,1-1.33,7.68A1,1,0,0,1-446.23,353Zm-60-3.08a1,1,0,0,1-.93-0.63,19,19,0,0,1-1.38-7.08,18,18,0,0,1,.14-2.25,1,1,0,0,1,1.12-.87,1,1,0,0,1,.87,1.12,15.9,15.9,0,0,0-.12,2,17,17,0,0,0,1.24,6.33,1,1,0,0,1-.56,1.3A1,1,0,0,1-506.19,349.94Zm34.63-1.77a1,1,0,0,1-.3,0,1,1,0,0,1-.66-1.25,17,17,0,0,0,.73-5.07,23.16,23.16,0,0,0-.26-3.39,1,1,0,0,1,.84-1.14,1,1,0,0,1,1.14.84,25.22,25.22,0,0,1,.28,3.69,19,19,0,0,1-.82,5.66A1,1,0,0,1-471.56,348.17Zm23.69-12.42a1,1,0,0,1-.84-0.46,22.22,22.22,0,0,0-6-6.07,1,1,0,0,1-.25-1.39,1,1,0,0,1,1.39-.25,24.23,24.23,0,0,1,6.56,6.63,1,1,0,0,1-.3,1.38A1,1,0,0,1-447.87,335.75Zm-56.07-2.84a1,1,0,0,1-.61-0.21,1,1,0,0,1-.18-1.4,23.81,23.81,0,0,1,7.11-6,1,1,0,0,1,1.36.37,1,1,0,0,1-.37,1.36,21.8,21.8,0,0,0-6.52,5.53A1,1,0,0,1-503.94,332.92Zm30.4-2.27a1,1,0,0,1-.93-0.62,66.37,66.37,0,0,0-3.94-7.94,1,1,0,0,1,.37-1.37,1,1,0,0,1,1.37.37,68.33,68.33,0,0,1,4.06,8.18,1,1,0,0,1-.55,1.3A1,1,0,0,1-473.54,330.65Zm11.37-5.32a1,1,0,0,1-.34-0.06,44.22,44.22,0,0,0-8.53-2.13,1,1,0,0,1-.84-1.14,1,1,0,0,1,1.14-.84,46.31,46.31,0,0,1,8.91,2.23,1,1,0,0,1,.6,1.28A1,1,0,0,1-462.17,325.33Zm-26.6-1.46a1,1,0,0,1-1-.76,1,1,0,0,1,.73-1.21,44.63,44.63,0,0,1,9.1-1.25,1,1,0,0,1,1,1,1,1,0,0,1-1,1,42.71,42.71,0,0,0-8.7,1.19Zm6.38-8.87a1,1,0,0,1-.82-0.43c-1.61-2.31-3.41-4.73-5.34-7.19a1,1,0,0,1,.17-1.4,1,1,0,0,1,1.4.17c2,2.49,3.78,4.94,5.41,7.28a1,1,0,0,1-.25,1.39A1,1,0,0,1-482.39,315Zm-11.12-14.19a1,1,0,0,1-.76-0.35c-1.87-2.17-3.88-4.42-6-6.7a1,1,0,0,1,.06-1.41,1,1,0,0,1,1.41.06c2.12,2.29,4.15,4.56,6,6.75a1,1,0,0,1-.1,1.41A1,1,0,0,1-493.51,300.8Zm-12.23-13.26a1,1,0,0,1-.72-0.3c-2-2.08-4.17-4.22-6.37-6.36a1,1,0,0,1,0-1.41,1,1,0,0,1,1.41,0c2.21,2.16,4.37,4.31,6.4,6.4a1,1,0,0,1,0,1.41A1,1,0,0,1-505.73,287.54Zm-12.91-12.61a1,1,0,0,1-.68-0.27c-2.14-2-4.37-4.06-6.62-6.1a1,1,0,0,1-.07-1.41,1,1,0,0,1,1.41-.07c2.26,2,4.5,4.11,6.65,6.12a1,1,0,0,1,0,1.41A1,1,0,0,1-518.64,274.93ZM-532,262.82a1,1,0,0,1-.66-0.25c-2.32-2-4.6-4-6.82-5.89a1,1,0,0,1-.11-1.41,1,1,0,0,1,1.41-.11c2.22,1.89,4.51,3.86,6.84,5.91a1,1,0,0,1,.09,1.41A1,1,0,0,1-532,262.82Zm-13.74-11.7a1,1,0,0,1-.64-0.23c-2.48-2.06-4.82-4-7-5.7a1,1,0,0,1-.15-1.41,1,1,0,0,1,1.41-.15c2.16,1.74,4.51,3.66,7,5.72a1,1,0,0,1,.13,1.41A1,1,0,0,1-545.75,251.11Zm-14.06-11.33a1,1,0,0,1-.62-0.21c-4.43-3.47-7.15-5.49-7.17-5.51a1,1,0,0,1-.21-1.4,1,1,0,0,1,1.4-.21s2.76,2.06,7.21,5.54a1,1,0,0,1,.17,1.4A1,1,0,0,1-559.81,239.78Z" transform="translate(592.84 -232.25)" style="fill:#fff"/><path d="M-589.45,419.63a2.5,2.5,0,0,1-1-.21,2.5,2.5,0,0,1-1.48-2l-0.89-8.12a2.5,2.5,0,0,1,1-2.29,2.51,2.51,0,0,1,2.49-.27l7.47,3.29a2.5,2.5,0,0,1,1.48,2,2.5,2.5,0,0,1-1,2.29l-6.58,4.83A2.5,2.5,0,0,1-589.45,419.63Z" transform="translate(592.84 -232.25)" style="fill:#fff"/></svg>