<svg id="Слой_1" data-name="Слой 1" xmlns="http://www.w3.org/2000/svg" width="121.51" height="98.72" viewBox="0 0 121.51 98.72"><title>celebration</title><rect x="13.03" y="42.27" width="15.76" height="2.1" rx="0.85" ry="0.85" style="fill:#f1f2f2"/><rect x="14.29" y="44.29" width="5.54" height="2.1" rx="0.85" ry="0.85" style="fill:#f1f2f2"/><rect x="23.76" y="47.1" width="5.54" height="2.1" rx="0.85" ry="0.85" style="fill:#f1f2f2"/><rect x="10.72" y="45.66" width="22.13" height="2.1" rx="0.85" ry="0.85" style="fill:#f1f2f2"/><rect x="15.8" y="49.05" width="15.76" height="2.1" rx="0.85" ry="0.85" style="fill:#f1f2f2"/><rect x="26.66" y="5.09" width="15.76" height="2.1" rx="0.85" ry="0.85" style="fill:#f1f2f2"/><rect x="620.25" y="117.47" width="15.76" height="2.1" rx="0.85" ry="0.85" transform="translate(739.46 197.56) rotate(180)" style="fill:#f1f2f2"/><rect x="629.21" y="119.49" width="5.54" height="2.1" rx="0.85" ry="0.85" transform="translate(747.16 201.6) rotate(180)" style="fill:#f1f2f2"/><rect x="619.74" y="122.29" width="5.54" height="2.1" rx="0.85" ry="0.85" transform="translate(728.21 207.21) rotate(180)" style="fill:#f1f2f2"/><rect x="616.2" y="120.86" width="22.13" height="2.1" rx="0.85" ry="0.85" transform="translate(737.71 204.33) rotate(-180)" style="fill:#f1f2f2"/><rect x="617.48" y="124.24" width="15.76" height="2.1" rx="0.85" ry="0.85" transform="translate(733.91 211.11) rotate(-180)" style="fill:#f1f2f2"/><path d="M606.66,71a3.5,3.5,0,0,1-1.75-6.53l6.36-3.67A6.82,6.82,0,0,0,604.44,49L592.3,56a6.82,6.82,0,0,0-2.5,9.32,3.5,3.5,0,1,1-6.06,3.5,13.84,13.84,0,0,1,5.06-18.88l12.14-7a13.82,13.82,0,1,1,13.82,23.94l-6.36,3.67A3.49,3.49,0,0,1,606.66,71Z" transform="translate(-516.81 -39.48)" style="fill:#ee3961"/><path d="M563.22,71a3.49,3.49,0,0,1-1.75-.47l-6.36-3.67a13.82,13.82,0,0,1,13.82-23.94l12.14,7a13.82,13.82,0,0,1,5.06,18.88,3.5,3.5,0,0,1-6.06-3.5,6.83,6.83,0,0,0-2.5-9.32l-12.14-7a6.82,6.82,0,0,0-6.82,11.82L565,64.48A3.5,3.5,0,0,1,563.22,71Z" transform="translate(-516.81 -39.48)" style="fill:#ee3961"/><path d="M618.68,128.52H551.35a3.5,3.5,0,0,1-3.5-3.5V81a3.5,3.5,0,0,1,3.5-3.5h67.33a3.5,3.5,0,0,1,3.5,3.5v44A3.5,3.5,0,0,1,618.68,128.52Zm-63.83-7h60.33v-37H554.85v37Z" transform="translate(-516.81 -39.48)" style="fill:#3e357f"/><path d="M628.68,84.47H541.35a3.5,3.5,0,0,1-3.5-3.5V67.51a3.5,3.5,0,0,1,3.5-3.5h87.33a3.5,3.5,0,0,1,3.5,3.5V81A3.5,3.5,0,0,1,628.68,84.47Zm-83.83-7h80.33V71H544.85v6.46Z" transform="translate(-516.81 -39.48)" style="fill:#3e357f"/><path d="M591.74,128.26H578.28a3.5,3.5,0,0,1-3.5-3.5V67.51a3.5,3.5,0,0,1,3.5-3.5h13.46a3.5,3.5,0,0,1,3.5,3.5v57.25A3.5,3.5,0,0,1,591.74,128.26Zm-10-7h6.46V71h-6.46v50.25Z" transform="translate(-516.81 -39.48)" style="fill:#3e357f"/><circle cx="110.45" cy="3.5" r="3.5" style="fill:#cc3636"/><circle cx="94.05" cy="94.72" r="4" style="fill:#50b3e4"/><path d="M634.12,91.71a0.5,0.5,0,0,1-.35-0.15l-5.17-5.17a0.5,0.5,0,0,1,.71-0.71l5.17,5.17A0.5,0.5,0,0,1,634.12,91.71Z" transform="translate(-516.81 -39.48)" style="fill:#fbb040"/><path d="M628.95,91.71a0.5,0.5,0,0,1-.35-0.85l5.17-5.17a0.5,0.5,0,0,1,.71.71l-5.17,5.17A0.5,0.5,0,0,1,628.95,91.71Z" transform="translate(-516.81 -39.48)" style="fill:#fbb040"/><path d="M519.25,78.79a0.5,0.5,0,0,1-.35-0.15L517,76.7a0.5,0.5,0,0,1,.71-0.71l1.94,1.94A0.5,0.5,0,0,1,519.25,78.79Z" transform="translate(-516.81 -39.48)" style="fill:#00a79d"/><path d="M517.31,78.79a0.5,0.5,0,0,1-.35-0.85L518.9,76a0.5,0.5,0,1,1,.71.71l-1.94,1.94A0.5,0.5,0,0,1,517.31,78.79Z" transform="translate(-516.81 -39.48)" style="fill:#00a79d"/><path d="M534.69,52.18a0.5,0.5,0,0,1-.35-0.15l-1.94-1.94a0.5,0.5,0,0,1,.71-0.71L535,51.33A0.5,0.5,0,0,1,534.69,52.18Z" transform="translate(-516.81 -39.48)" style="fill:#ed1c24"/><path d="M532.75,52.18a0.5,0.5,0,0,1-.35-0.85l1.94-1.94a0.5,0.5,0,0,1,.71.71L533.1,52A0.5,0.5,0,0,1,532.75,52.18Z" transform="translate(-516.81 -39.48)" style="fill:#ed1c24"/><path d="M531.42,125.24a1.5,1.5,0,0,1-1.45-1.89l2.8-10.44a1.5,1.5,0,0,1,2.51-.67l7.65,7.65a1.5,1.5,0,0,1-.67,2.51l-10.44,2.8A1.49,1.49,0,0,1,531.42,125.24Zm3.57-9-1.45,5.43,5.43-1.45Z" transform="translate(-516.81 -39.48)" style="fill:#56bc77"/></svg>