<svg id="Слой_1" data-name="Слой 1" xmlns="http://www.w3.org/2000/svg" width="129.35" height="98.67" viewBox="0 0 129.35 98.67"><title>family</title><path d="M738.34,118.78l-0.72,0c-14.09-.79-30.47-17.34-30.47-37.5,0-20.68,13.76-37.51,30.66-37.51,20,0,31.52,13.67,31.52,37.51,0,10.34-4.84,20.85-13.28,28.83C750.24,115.57,743.69,118.78,738.34,118.78Zm-0.53-68c-13,0-23.66,13.69-23.66,30.51,0,17.54,14.36,30,23.86,30.51,3.46,0.2,8.68-2.46,13.23-6.77,6.95-6.57,11.09-15.44,11.09-23.74C762.33,67.34,758.08,50.75,737.81,50.75Z" transform="translate(-692.02 -41.76)" style="fill:#3e357f"/><path d="M776.66,120.3c-7,0-9.92-2.89-13.63-6.56l-0.51-.51a3.5,3.5,0,1,1,4.91-5l0.52,0.51c3.34,3.3,4.58,4.53,8.7,4.53,7.21,0,16.28-9.79,16.72-21.94,0.26-7.15-1.71-13.44-5.4-17.27-2.82-2.93-6.63-4.41-11.32-4.41a3.5,3.5,0,0,1,0-7A22.09,22.09,0,0,1,793,69.23c5,5.19,7.69,13.35,7.36,22.39C799.77,108,787.36,120.3,776.66,120.3Z" transform="translate(-692.02 -41.76)" style="fill:#ee3961"/><path d="M740,140.43a3.48,3.48,0,0,1-2.1-.7c-0.52-.39-5.07-4-5.07-11.79,0-3.77,1.72-7.56,3.1-10.6a28.14,28.14,0,0,0,1.4-3.4,3.5,3.5,0,1,1,6.75,1.85,31.74,31.74,0,0,1-1.78,4.45c-1.16,2.55-2.47,5.44-2.47,7.7,0,4.29,2.24,6.17,2.27,6.19A3.5,3.5,0,0,1,740,140.43Z" transform="translate(-692.02 -41.76)" style="fill:#3e357f"/><path d="M771.38,138.34a3.5,3.5,0,0,1-2.45-6c6-5.86,4.32-14.76,4.3-14.85a3.5,3.5,0,0,1,6.86-1.4c0.11,0.51,2.5,12.69-6.26,21.26A3.49,3.49,0,0,1,771.38,138.34Z" transform="translate(-692.02 -41.76)" style="fill:#ee3961"/><path d="M729.12,85.19s-2.32,11.59,9.27,11.59,9.45-11.59,9.45-11.59H729.12Z" transform="translate(-692.02 -41.76)" style="fill:#ee3961"/><path d="M744,95.45c0,2.68-2.25,2.78-5,2.78s-5-.11-5-2.78A5,5,0,0,1,744,95.45Z" transform="translate(-692.02 -41.76)" style="fill:#ce345c"/><path d="M738.39,98.78c-4,0-7-1.23-9-3.67C726,91,727.11,85,727.16,84.8a2,2,0,0,1,2-1.61h18.72a2,2,0,0,1,2,1.64c0,0.25,1.09,6.18-2.33,10.28C745.45,97.54,742.4,98.78,738.39,98.78Zm-7.45-11.59a8.29,8.29,0,0,0,1.51,5.4c1.2,1.45,3.2,2.19,5.94,2.19s4.79-.75,6-2.23A8.43,8.43,0,0,0,746,87.19H730.94Z" transform="translate(-692.02 -41.76)" style="fill:#3e357f"/><circle cx="33.43" cy="32.16" r="3.94" style="fill:#3e357f"/><path d="M725,75a0.5,0.5,0,0,1-.5-0.5v-2.4a0.5,0.5,0,1,1,1,0v2.4A0.5,0.5,0,0,1,725,75Z" transform="translate(-692.02 -41.76)" style="fill:#fff"/><path d="M726.2,73.77h-2.4a0.5,0.5,0,0,1,0-1h2.4A0.5,0.5,0,0,1,726.2,73.77Z" transform="translate(-692.02 -41.76)" style="fill:#fff"/><circle cx="58.35" cy="32.35" r="3.75" style="fill:#3e357f"/><path d="M749.94,75.13a0.5,0.5,0,0,1-.5-0.5V72.34a0.5,0.5,0,0,1,1,0v2.29A0.5,0.5,0,0,1,749.94,75.13Z" transform="translate(-692.02 -41.76)" style="fill:#fff"/><path d="M751.09,74H748.8a0.5,0.5,0,0,1,0-1h2.29A0.5,0.5,0,0,1,751.09,74Z" transform="translate(-692.02 -41.76)" style="fill:#fff"/><rect x="803.29" y="90.34" width="15.76" height="2.1" rx="0.85" ry="0.85" transform="translate(930.33 141.02) rotate(180)" style="fill:#f1f2f2"/><rect x="812.25" y="92.36" width="5.54" height="2.1" rx="0.85" ry="0.85" transform="translate(938.03 145.06) rotate(180)" style="fill:#f1f2f2"/><rect x="802.78" y="95.16" width="5.54" height="2.1" rx="0.85" ry="0.85" transform="translate(919.09 150.67) rotate(180)" style="fill:#f1f2f2"/><rect x="799.24" y="93.72" width="22.13" height="2.1" rx="0.85" ry="0.85" transform="translate(928.59 147.8) rotate(-180)" style="fill:#f1f2f2"/><rect x="800.52" y="97.11" width="15.76" height="2.1" rx="0.85" ry="0.85" transform="translate(924.79 154.57) rotate(-180)" style="fill:#f1f2f2"/><rect x="2.31" y="77.98" width="15.76" height="2.1" rx="0.85" ry="0.85" style="fill:#f1f2f2"/><rect x="3.57" y="80.01" width="5.54" height="2.1" rx="0.85" ry="0.85" style="fill:#f1f2f2"/><rect x="13.04" y="82.81" width="5.54" height="2.1" rx="0.85" ry="0.85" style="fill:#f1f2f2"/><rect y="81.37" width="22.13" height="2.1" rx="0.85" ry="0.85" style="fill:#f1f2f2"/><rect x="5.08" y="84.76" width="15.76" height="2.1" rx="0.85" ry="0.85" style="fill:#f1f2f2"/><circle cx="11.06" cy="3.5" r="3.5" style="fill:#cc3636"/><path d="M696.21,94.48a1,1,0,0,1-.71-1.71l5.17-5.17A1,1,0,0,1,702.09,89l-5.17,5.17A1,1,0,0,1,696.21,94.48Z" transform="translate(-692.02 -41.76)" style="fill:#fbb040"/><path d="M701.39,94.48a1,1,0,0,1-.71-0.29L695.51,89a1,1,0,0,1,1.41-1.41l5.17,5.17A1,1,0,0,1,701.39,94.48Z" transform="translate(-692.02 -41.76)" style="fill:#fbb040"/><path d="M811.41,80.73a0.5,0.5,0,0,1-.35-0.85l2.56-2.56a0.5,0.5,0,0,1,.71.71l-2.56,2.56A0.5,0.5,0,0,1,811.41,80.73Z" transform="translate(-692.02 -41.76)" style="fill:#00a79d"/><path d="M814,80.73a0.5,0.5,0,0,1-.35-0.15L811.06,78a0.5,0.5,0,0,1,.71-0.71l2.56,2.56A0.5,0.5,0,0,1,814,80.73Z" transform="translate(-692.02 -41.76)" style="fill:#00a79d"/><path d="M776.18,51.55a1,1,0,0,1-.71-0.29l-1.94-1.94a1,1,0,0,1,1.41-1.41l1.94,1.94A1,1,0,0,1,776.18,51.55Z" transform="translate(-692.02 -41.76)" style="fill:#ed1c24"/><path d="M798.92,127.52a1.48,1.48,0,0,1-.39-0.05l-10.45-2.8a1.5,1.5,0,0,1-.67-2.51l7.65-7.65a1.5,1.5,0,0,1,2.51.67l2.8,10.44A1.5,1.5,0,0,1,798.92,127.52Zm-7.55-5.07,5.43,1.45-1.45-5.43Z" transform="translate(-692.02 -41.76)" style="fill:#56bc77"/></svg>