<svg id="Режим_изоляции" data-name="Режим изоляции" xmlns="http://www.w3.org/2000/svg" width="117.84" height="95" viewBox="0 0 117.84 95"><title>lovely</title><rect x="68.62" y="32.82" width="18.36" height="2.45" rx="0.8" ry="0.8" style="fill:#f1f2f2"/><rect x="94.75" y="34.04" width="18.36" height="2.45" rx="0.8" ry="0.8" style="fill:#f1f2f2"/><rect x="96.22" y="36.4" width="6.46" height="2.45" rx="0.8" ry="0.8" style="fill:#f1f2f2"/><rect x="104.02" y="39.66" width="6.46" height="2.45" rx="0.8" ry="0.8" style="fill:#f1f2f2"/><rect x="92.06" y="37.99" width="25.78" height="2.45" rx="0.8" ry="0.8" style="fill:#f1f2f2"/><rect x="97.98" y="41.94" width="18.36" height="2.45" rx="0.8" ry="0.8" style="fill:#f1f2f2"/><rect x="4.12" y="71.98" width="13.7" height="1.83" rx="0.8" ry="0.8" style="fill:#f1f2f2"/><rect x="5.22" y="73.74" width="4.82" height="1.83" rx="0.8" ry="0.8" style="fill:#f1f2f2"/><rect x="13.45" y="76.17" width="4.82" height="1.83" rx="0.8" ry="0.8" style="fill:#f1f2f2"/><rect x="2.12" y="74.92" width="19.23" height="1.83" rx="0.8" ry="0.8" style="fill:#f1f2f2"/><rect x="6.53" y="77.87" width="13.7" height="1.83" rx="0.8" ry="0.8" style="fill:#f1f2f2"/><circle cx="94.88" cy="71.61" r="4.56" style="fill:#1c75bc"/><circle cx="77.44" cy="11.33" r="2.07" style="fill:#662d91"/><path d="M273.16,375.66a0.5,0.5,0,0,1-.35-0.15l-2.21-2.21a0.5,0.5,0,1,1,.71-0.71l2.21,2.21A0.5,0.5,0,0,1,273.16,375.66Z" transform="translate(-187.75 -352.5)" style="fill:#00a79d"/><path d="M192.25,391a0.5,0.5,0,0,1-.35-0.15l-4-4a0.5,0.5,0,0,1,.71-0.71l4,4A0.5,0.5,0,0,1,192.25,391Z" transform="translate(-187.75 -352.5)" style="fill:#39b54a"/><path d="M188.25,391a0.5,0.5,0,0,1-.35-0.85l4-4a0.5,0.5,0,0,1,.71.71l-4,4A0.5,0.5,0,0,1,188.25,391Z" transform="translate(-187.75 -352.5)" style="fill:#39b54a"/><path d="M241.31,393.66a3.5,3.5,0,0,1-3.5-3.5,16.16,16.16,0,1,0-32.31,0,3.5,3.5,0,1,1-7,0,23.16,23.16,0,1,1,46.31,0A3.5,3.5,0,0,1,241.31,393.66Z" transform="translate(-187.75 -352.5)" style="fill:#ee3961"/><path d="M280.63,393.66a3.5,3.5,0,0,1-3.5-3.5,16.16,16.16,0,1,0-32.31,0,3.5,3.5,0,0,1-7,0,23.16,23.16,0,1,1,46.31,0A3.5,3.5,0,0,1,280.63,393.66Z" transform="translate(-187.75 -352.5)" style="fill:#ee3961"/><path d="M241.31,447.5a3.49,3.49,0,0,1-2.23-.81c-1.64-1.36-40.22-33.64-40.58-56.48a3.5,3.5,0,0,1,3.45-3.55H202a3.5,3.5,0,0,1,3.5,3.45c0.25,16.29,27.55,42.49,38,51.21A3.5,3.5,0,0,1,241.31,447.5Z" transform="translate(-187.75 -352.5)" style="fill:#3e357f"/><path d="M241.32,447.5a3.5,3.5,0,0,1-2.24-6.19c10.5-8.72,37.8-34.91,38-51.21a3.5,3.5,0,0,1,7,.11c-0.35,22.84-38.94,55.12-40.58,56.48A3.49,3.49,0,0,1,241.32,447.5Z" transform="translate(-187.75 -352.5)" style="fill:#3e357f"/><path d="M257.77,440.14a2,2,0,0,1-1.73-1l-3-5.12a2,2,0,0,1,1.73-3h5.91a2,2,0,0,1,1.73,3l-3,5.12A2,2,0,0,1,257.77,440.14Z" transform="translate(-187.75 -352.5)" style="fill:#f7941e"/><circle cx="23.91" cy="3.4" r="3.4" style="fill:#cc3636"/><path d="M230.59,410.24s-3.26,13.84,10.68,14.31S253.1,411,253.1,411Z" transform="translate(-187.75 -352.5)" style="fill:#ee3961"/><path d="M248.07,423.18c-0.11,3.22-2.82,3.25-6.17,3.14s-6-.33-5.94-3.55A6.06,6.06,0,0,1,248.07,423.18Z" transform="translate(-187.75 -352.5)" style="fill:#ce345c"/><path d="M241.18,427c-4.82-.16-8.43-1.77-10.73-4.78-3.89-5.09-2.28-12.19-2.21-12.49a2.41,2.41,0,0,1,2.42-1.85l22.51,0.76a2.41,2.41,0,0,1,2.3,2c0,0.3,1.06,7.47-3.22,12.27C249.73,425.76,246,427.12,241.18,427Zm-8.49-14.24a10,10,0,0,0,1.6,6.55c1.38,1.8,3.76,2.77,7.06,2.88s5.79-.71,7.32-2.43a10.15,10.15,0,0,0,2.13-6.38Z" transform="translate(-187.75 -352.5)" style="fill:#3e357f"/><circle cx="38.61" cy="44.04" r="4.63" style="fill:#3e357f"/><path d="M225.16,397.32a0.5,0.5,0,0,1-.5-0.5v-2.4a0.5,0.5,0,0,1,1,0v2.4A0.5,0.5,0,0,1,225.16,397.32Z" transform="translate(-187.75 -352.5)" style="fill:#fff"/><path d="M226.36,396.12H224a0.5,0.5,0,0,1,0-1h2.4A0.5,0.5,0,0,1,226.36,396.12Z" transform="translate(-187.75 -352.5)" style="fill:#fff"/><circle cx="66.61" cy="44.04" r="4.63" style="fill:#3e357f"/><path d="M253.16,397.32a0.5,0.5,0,0,1-.5-0.5v-2.4a0.5,0.5,0,0,1,1,0v2.4A0.5,0.5,0,0,1,253.16,397.32Z" transform="translate(-187.75 -352.5)" style="fill:#fff"/><path d="M254.36,396.12H252a0.5,0.5,0,0,1,0-1h2.4A0.5,0.5,0,0,1,254.36,396.12Z" transform="translate(-187.75 -352.5)" style="fill:#fff"/></svg>