<svg id="Слой_1" data-name="Слой 1" xmlns="http://www.w3.org/2000/svg" width="92.33" height="85.44" viewBox="0 0 92.33 85.44"><title>surorise_inside</title><path d="M614.26,66l-6.35,3.67a2.6,2.6,0,0,1-1.25.33,2.5,2.5,0,0,1-1.25-4.66l6.35-3.67a7.83,7.83,0,0,0-1.88-14.34,7.76,7.76,0,0,0-5.94.79l-12.14,7a7.82,7.82,0,0,0-2.87,10.68,4.06,4.06,0,1,1-8,0,7.83,7.83,0,0,0-2.87-10.68l-12.14-7a7.82,7.82,0,1,0-7.82,13.55l6.35,3.67A2.5,2.5,0,0,1,563.22,70a2.6,2.6,0,0,1-1.25-.33L555.62,66A12.82,12.82,0,1,1,568.44,43.8l12.14,7A12.53,12.53,0,0,1,584.94,55a12.53,12.53,0,0,1,4.36-4.16l12.14-7A12.82,12.82,0,1,1,614.26,66Z" transform="translate(-538.85 -42.08)" style="fill:#f4f4f4"/><path d="M628.68,65H541.35a2.49,2.49,0,0,0-2.5,2.5V81a2.49,2.49,0,0,0,2.5,2.5h7.5V125a2.49,2.49,0,0,0,2.5,2.5h67.33a2.5,2.5,0,0,0,2.5-2.5V83.47h7.5a2.5,2.5,0,0,0,2.5-2.5V67.51A2.5,2.5,0,0,0,628.68,65Zm-47.9,5h8.46v8.46h-8.46V70Zm0,13.46h8.46v38.79h-8.46V83.47Zm-36.93-5V70h31.93v8.46H543.85Zm10,5h21.93v39H553.85v-39Zm62.33,39H594.24v-39h21.94v39Zm10-44H594.24V70h31.94v8.46Z" transform="translate(-538.85 -42.08)" style="fill:#ee3961"/></svg>