<svg id="основа" xmlns="http://www.w3.org/2000/svg" width="29.39" height="16.23" viewBox="0 0 29.39 16.23"><title>logo_white</title><g id="logo"><path d="M116.36,132.3l-0.88.18a4.87,4.87,0,0,1-.86.1,2.87,2.87,0,0,1-.75-0.09,2.28,2.28,0,0,1-.68-0.33l-1.25-.85-1.27-.9-0.34-.2a3.08,3.08,0,0,1-1.59-2.81,3.18,3.18,0,0,1,1.05-2.5,3.69,3.69,0,0,1,2.54-.89,3.58,3.58,0,0,1,2.5.92,3.11,3.11,0,0,1,1,2.42,3.19,3.19,0,0,1-.83,2.23,3.63,3.63,0,0,1-2.1,1.11l1.08,0.64a6.83,6.83,0,0,0,1.14.5,4,4,0,0,0,1.23.2v0.28Zm-6.13-5.06a4,4,0,0,0,.51,2,1.87,1.87,0,0,0,1.68,1.05,1.65,1.65,0,0,0,1.49-.94,3.71,3.71,0,0,0,.45-1.85,4,4,0,0,0-.49-2,1.85,1.85,0,0,0-1.67-1.05,1.67,1.67,0,0,0-1.51.93A3.61,3.61,0,0,0,110.23,127.24Z" transform="translate(-104.19 -117.18)" style="fill:#fff"/><path d="M119.8,127.8a1.68,1.68,0,0,0-.1-0.77,1.37,1.37,0,0,0-.75-0.27v-0.23l1.93-.42v3.39a1.3,1.3,0,0,0,0,.42,0.32,0.32,0,0,0,.33.2l0.44,0v0.25l-1.92.46,0-.66a6.87,6.87,0,0,1-.75.43,1.93,1.93,0,0,1-.82.22,1.1,1.1,0,0,1-1.15-.95,3.21,3.21,0,0,1,0-.52v-1.78a1,1,0,0,0-.09-0.53,1,1,0,0,0-.62-0.23v-0.23l1.8-.42v2.66a2.17,2.17,0,0,0,.16.94,0.75,0.75,0,0,0,.73.41,1.38,1.38,0,0,0,.39,0,2.63,2.63,0,0,0,.41-0.17V127.8Z" transform="translate(-104.19 -117.18)" style="fill:#fff"/><path d="M122.75,127.92a2.32,2.32,0,0,0,.4,1.4,1.45,1.45,0,0,0,1.25.62,1,1,0,0,0,.54-0.13,1.84,1.84,0,0,0,.46-0.42l0.23,0.17a3.23,3.23,0,0,1-.81.84,1.87,1.87,0,0,1-1.08.36,1.9,1.9,0,0,1-1.45-.63,2.2,2.2,0,0,1-.59-1.56,2.29,2.29,0,0,1,.63-1.59,2,2,0,0,1,1.5-.69,1.49,1.49,0,0,1,1.62,1.62h-2.71Zm1.58-.37a1.63,1.63,0,0,0-.17-0.6,0.56,0.56,0,0,0-.5-0.31,0.69,0.69,0,0,0-.58.31,1.62,1.62,0,0,0-.27.65Z" transform="translate(-104.19 -117.18)" style="fill:#fff"/><path d="M127.71,126.3a2.32,2.32,0,0,1,.62.09,2.88,2.88,0,0,1,.62.25v1l-0.33,0a3.42,3.42,0,0,0-.3-0.66,0.69,0.69,0,0,0-.59-0.36,0.53,0.53,0,0,0-.55.56,1.55,1.55,0,0,0,1,1,1.56,1.56,0,0,1,1,1.26,1.15,1.15,0,0,1-.52,1,1.75,1.75,0,0,1-1.06.34,2.58,2.58,0,0,1-.71-0.1,2.75,2.75,0,0,1-.68-0.3l-0.07-1.21,0.34,0a2.63,2.63,0,0,0,.37.85,0.91,0.91,0,0,0,.76.45,0.54,0.54,0,0,0,.43-0.19,0.68,0.68,0,0,0,.17-0.46,1.46,1.46,0,0,0-1-1,1.48,1.48,0,0,1-1-1.21,1.12,1.12,0,0,1,.48-1A1.72,1.72,0,0,1,127.71,126.3Z" transform="translate(-104.19 -117.18)" style="fill:#fff"/><path d="M132.73,130.41a7.21,7.21,0,0,1-.86.26,3.74,3.74,0,0,1-.85.1,0.76,0.76,0,0,1-.79-0.43,3,3,0,0,1-.11-1V127h-0.71v-0.23l1.61-1.44h0.17v1.15h1.52V127h-1.52v1.66a2.89,2.89,0,0,0,.13,1.14,1.17,1.17,0,0,0,1,.33h0.36v0.26Z" transform="translate(-104.19 -117.18)" style="fill:#fff"/><path d="M112.89,126.91l-0.88.18a4.89,4.89,0,0,1-.86.09,2.87,2.87,0,0,1-.75-0.09,2.28,2.28,0,0,1-.68-0.33l-1.25-.85-1.27-.9-0.34-.2a3.08,3.08,0,0,1-1.59-2.81,3.18,3.18,0,0,1,1.05-2.5,3.69,3.69,0,0,1,2.54-.89,3.58,3.58,0,0,1,2.5.92,3.11,3.11,0,0,1,1,2.42,3.19,3.19,0,0,1-.83,2.23,3.63,3.63,0,0,1-2.1,1.11l1.08,0.64a6.83,6.83,0,0,0,1.14.5,4,4,0,0,0,1.23.2v0.28Zm-6.13-5.06a4,4,0,0,0,.51,2,1.87,1.87,0,0,0,1.68,1.05,1.65,1.65,0,0,0,1.49-.94,3.71,3.71,0,0,0,.45-1.85,4,4,0,0,0-.49-2,1.85,1.85,0,0,0-1.67-1.05,1.67,1.67,0,0,0-1.51.93A3.61,3.61,0,0,0,106.76,121.85Z" transform="translate(-104.19 -117.18)" style="fill:#fff"/><path d="M116.33,122.41a1.68,1.68,0,0,0-.1-0.77,1.37,1.37,0,0,0-.75-0.27v-0.23l1.93-.42v3.39a1.29,1.29,0,0,0,0,.42,0.32,0.32,0,0,0,.33.2l0.44,0v0.25l-1.92.46,0-.66a6.89,6.89,0,0,1-.75.43,1.93,1.93,0,0,1-.82.22,1.1,1.1,0,0,1-1.15-.95,3.21,3.21,0,0,1,0-.52v-1.78a1,1,0,0,0-.09-0.53,1,1,0,0,0-.62-0.23v-0.23l1.8-.42v2.66a2.17,2.17,0,0,0,.16.94,0.75,0.75,0,0,0,.73.41,1.38,1.38,0,0,0,.39,0,2.65,2.65,0,0,0,.41-0.17v-2.11Z" transform="translate(-104.19 -117.18)" style="fill:#fff"/><path d="M119.32,122.53a2.32,2.32,0,0,0,.4,1.4,1.45,1.45,0,0,0,1.25.62,1,1,0,0,0,.54-0.13A1.84,1.84,0,0,0,122,124l0.23,0.17a3.23,3.23,0,0,1-.81.84,1.87,1.87,0,0,1-1.08.36,1.9,1.9,0,0,1-1.45-.63,2.2,2.2,0,0,1-.59-1.56,2.29,2.29,0,0,1,.63-1.59,2,2,0,0,1,1.5-.69,1.49,1.49,0,0,1,1.62,1.62h-2.71Zm1.58-.37a1.63,1.63,0,0,0-.17-0.6,0.56,0.56,0,0,0-.5-0.31,0.69,0.69,0,0,0-.58.31,1.62,1.62,0,0,0-.27.65Z" transform="translate(-104.19 -117.18)" style="fill:#fff"/><path d="M124.24,120.91a2.32,2.32,0,0,1,.62.09,2.88,2.88,0,0,1,.62.25v1l-0.33,0a3.41,3.41,0,0,0-.3-0.66,0.69,0.69,0,0,0-.59-0.36,0.53,0.53,0,0,0-.55.56,1.55,1.55,0,0,0,1,1,1.56,1.56,0,0,1,1,1.26,1.15,1.15,0,0,1-.52,1,1.75,1.75,0,0,1-1.06.34,2.59,2.59,0,0,1-.71-0.1,2.75,2.75,0,0,1-.68-0.3l-0.07-1.21,0.34,0a2.63,2.63,0,0,0,.37.85,0.91,0.91,0,0,0,.76.45,0.54,0.54,0,0,0,.43-0.2,0.68,0.68,0,0,0,.17-0.46,1.46,1.46,0,0,0-1-1,1.48,1.48,0,0,1-1-1.21,1.12,1.12,0,0,1,.48-1A1.72,1.72,0,0,1,124.24,120.91Z" transform="translate(-104.19 -117.18)" style="fill:#fff"/><path d="M129.26,125a7.24,7.24,0,0,1-.86.26,3.74,3.74,0,0,1-.85.1,0.76,0.76,0,0,1-.79-0.43,3,3,0,0,1-.11-1v-2.32H126V121.4l1.61-1.44h0.17v1.15h1.52v0.52h-1.52v1.66a2.89,2.89,0,0,0,.13,1.14,1.17,1.17,0,0,0,1,.33h0.36V125Z" transform="translate(-104.19 -117.18)" style="fill:#fff"/><path d="M107.59,133.41l-0.25-.07v0c0-.13.08-0.29,0.14-0.48l0.25,0.08c-0.06.18-.1,0.34-0.13,0.46v0Zm0.32-1-0.24-.1a5.12,5.12,0,0,1,.24-0.48l0.23,0.13A4.87,4.87,0,0,0,107.91,132.43Zm0.5-.89-0.21-.15a4.66,4.66,0,0,1,.34-0.42l0.19,0.18A4.45,4.45,0,0,0,108.41,131.54Zm0.69-.75-0.17-.2a4.72,4.72,0,0,1,.43-0.33l0.15,0.22A4.63,4.63,0,0,0,109.1,130.79Zm0.84-.58-0.13-.23,0.48-.23,0.1,0.24Zm0.94-.4-0.08-.25,0.51-.15,0.06,0.25Zm1-.24,0-.26,0.39-.06,0.13,0,0,0.26-0.13,0Zm1-.16-0.05-.26,0.5-.12,0.07,0.25Zm1-.28-0.09-.25,0.47-.2,0.11,0.24Zm1-.47-0.14-.22a4.79,4.79,0,0,0,.42-0.29l0.16,0.21A4.89,4.89,0,0,1,114.9,128.66Zm0.85-.65-0.18-.19,0.37-.36,0.18,0.19Zm0.76-.72-0.18-.19a4.2,4.2,0,0,1,.42-0.34L116.9,127A3.85,3.85,0,0,0,116.51,127.29Zm0.83-.56-0.1-.24a2.82,2.82,0,0,1,.52-0.17l0.06,0.26A2.55,2.55,0,0,0,117.33,126.73Z" transform="translate(-104.19 -117.18)" style="fill:#fff"/><path d="M109.1,128.05h-0.19v-0.26h0.51V128H109.1Zm-0.72,0-0.53-.08,0-.26,0.51,0.07Zm1.6,0,0-.26,0.51-.08,0,0.26Zm-2.65-.18-0.51-.16,0.09-.25,0.49,0.15Zm-1-.36-0.48-.24L106,127l0.46,0.23Zm-0.93-.52-0.43-.32,0.16-.2,0.41,0.3Zm-0.83-.67c-0.13-.13-0.26-0.25-0.37-0.38l0.2-.17c0.11,0.12.23,0.25,0.36,0.37Z" transform="translate(-104.19 -117.18)" style="fill:#fff"/><path d="M123.31,132.74v-0.26a3.8,3.8,0,0,0,.5-0.05l0,0.26A4.15,4.15,0,0,1,123.31,132.74Zm-0.54,0-0.53-.05,0-.26,0.51,0.05Zm-1.05-.14-0.52-.1,0.06-.26,0.51,0.1Zm2.66,0-0.09-.25a2.67,2.67,0,0,0,.45-0.21l0.13,0.23A2.93,2.93,0,0,1,124.38,132.55Zm-3.69-.18-0.51-.12,0.06-.25,0.51,0.12Zm-1-.24-0.51-.12,0.06-.26,0.51,0.12Zm5.65-.12-0.17-.2a3.17,3.17,0,0,0,.35-0.36l0.2,0.17A3.44,3.44,0,0,1,125.32,132Zm-6.67-.1-0.51-.09,0-.26,0.52,0.09Zm-1-.17h0l-0.49-.1,0.07-.25,0.46,0.1h0Zm-1-.27a4.6,4.6,0,0,1-.49-0.22l0.12-.23a4.24,4.24,0,0,0,.46.21Zm-1-.5a2.5,2.5,0,0,1-.42-0.36l0.2-.17a2.3,2.3,0,0,0,.37.32Z" transform="translate(-104.19 -117.18)" style="fill:#fff"/><path d="M130.06,124.84l-0.05-.26a3.83,3.83,0,0,0,.49-0.14l0.09,0.25A3.93,3.93,0,0,1,130.06,124.84Zm1-.36-0.11-.24,0.45-.24,0.14,0.22Zm0.92-.55-0.16-.21a4.77,4.77,0,0,0,.39-0.33l0.18,0.19A5,5,0,0,1,132,123.93Zm0.78-.74-0.2-.17a4.23,4.23,0,0,0,.3-0.41l0.22,0.14A4.5,4.5,0,0,1,132.78,123.19Zm0.59-.9-0.23-.12a4.46,4.46,0,0,0,.2-0.47l0.25,0.09A4.6,4.6,0,0,1,133.37,122.29Z" transform="translate(-104.19 -117.18)" style="fill:#fff"/><path d="M118,120.92v-0.26a1.84,1.84,0,0,0,.47-0.1l0.08,0.25A2,2,0,0,1,118,120.92Zm1.05-.29-0.1-.24,0.47-.22,0.12,0.23Zm0.95-.48-0.13-.23,0.29-.17,0.16-.1,0.13,0.23-0.14.09Zm2.42-.33-0.41-.05-0.12,0,0-.26,0.12,0,0.4,0.05Zm0.57,0-0.07-.25a0.45,0.45,0,0,0,.27-0.21l0.05-.07,0.21,0.15,0,0.06A0.71,0.71,0,0,1,123,119.79Zm-2.1-.07,0-.26a2.46,2.46,0,0,1,.55,0v0.26A2.28,2.28,0,0,0,120.91,119.72Zm2.89-.66-0.16-.21a1.12,1.12,0,0,1,.54-0.22l0,0.26A0.87,0.87,0,0,0,123.79,119.06Zm1.43-.08a3.78,3.78,0,0,1-.42-0.06l-0.11,0,0-.26,0.12,0,0.39,0.05Zm0.57-.07-0.09-.25a1.22,1.22,0,0,0,.4-0.24l0.17,0.2A1.48,1.48,0,0,1,125.79,118.91Z" transform="translate(-104.19 -117.18)" style="fill:#fff"/><path d="M110.3,123.19a1.7,1.7,0,0,1-.32-0.05l0.07-.25,0.27,0Zm-0.84-.27a4.39,4.39,0,0,1-.44-0.31l0.16-.21a4.08,4.08,0,0,0,.42.29Zm-0.85-.62a2.21,2.21,0,0,0-.4-0.23h0l0.09-.24h0a2.47,2.47,0,0,1,.46.26Zm-0.91-.39c-0.28-.07-0.5-0.09-0.5-0.09l0-.26a5.29,5.29,0,0,1,.53.1Z" transform="translate(-104.19 -117.18)" style="fill:#fff"/><path d="M114.24,120.26a3.11,3.11,0,0,0-.15-0.48l0.24-.09a3.24,3.24,0,0,1,.16.53Zm-0.36-.94a3.58,3.58,0,0,0-.27-0.43l0.21-.16a3.86,3.86,0,0,1,.29.46Zm-0.61-.8a2.93,2.93,0,0,0-.39-0.32L113,118a3.2,3.2,0,0,1,.42.34Zm-0.82-.56a3,3,0,0,0-.47-0.17l0.07-.25a3.32,3.32,0,0,1,.51.18Zm-1-.26-0.42,0v-0.26l0.45,0Z" transform="translate(-104.19 -117.18)" style="fill:#fff"/><path d="M117.25,119a22.5,22.5,0,0,0-1.95-1.37l0.2-.34a23,23,0,0,1,2,1.4Z" transform="translate(-104.19 -117.18)" style="fill:#fff"/><path d="M115.95,119.16l-0.36-.17a5.58,5.58,0,0,1,1.4-1.82l0.24,0.31A5.25,5.25,0,0,0,115.95,119.16Z" transform="translate(-104.19 -117.18)" style="fill:#fff"/><path d="M128.84,133.08a10.19,10.19,0,0,0-2-1.29l0.16-.36a10.39,10.39,0,0,1,2.1,1.35Z" transform="translate(-104.19 -117.18)" style="fill:#fff"/><path d="M127.49,133.27l-0.36-.15a4.91,4.91,0,0,1,1.41-1.83l0.23,0.32A4.59,4.59,0,0,0,127.49,133.27Z" transform="translate(-104.19 -117.18)" style="fill:#fff"/><path d="M107.73,130.74a10.19,10.19,0,0,0-2-1.29l0.16-.36a10.39,10.39,0,0,1,2.1,1.35Z" transform="translate(-104.19 -117.18)" style="fill:#fff"/><path d="M106.39,130.92l-0.36-.15a4.91,4.91,0,0,1,1.41-1.83l0.23,0.32A4.59,4.59,0,0,0,106.39,130.92Z" transform="translate(-104.19 -117.18)" style="fill:#fff"/><path d="M130.72,121.12l-0.26,0,0-.13s0.27-2.1.31-2.54v-0.16l0.16,0s0.53,0.17.79,0.21a8.47,8.47,0,0,0,1,.11H133l-0.71.77,0.52,0.95h-0.23a8.63,8.63,0,0,1-1-.13c-0.21,0-.53-0.12-0.68-0.16l-0.12.94Zm0.17-1.33c0.14,0,.48.12,0.7,0.16s0.59,0.09.77,0.11l-0.38-.69,0.46-.5c-0.2,0-.48,0-0.74-0.09s-0.48-.12-0.66-0.17C131,118.87,130.94,119.34,130.89,119.79Z" transform="translate(-104.19 -117.18)" style="fill:#fff"/></g></svg>