<svg xmlns="http://www.w3.org/2000/svg" viewBox="0 0 530.91 147.1"><defs><style>.cls-1{fill:#222;}</style></defs><title>Ресурс 2</title><g id="Слой_2" data-name="Слой 2"><g id="Слой_1-2" data-name="Слой 1"><path class="cls-1" d="M518.91,6.67H410.47A12,12,0,0,0,399.73,0h-84.8a12,12,0,0,0-10.74,6.67H181.4a3.84,3.84,0,0,0-3.57,3.83v.25a3.84,3.84,0,0,0,3.65,3.83h99.85a3.5,3.5,0,0,1,0,7H173.58v-.66a12,12,0,0,0-12-12H12a12,12,0,0,0-12,12V124.36a12,12,0,0,0,12,12H242a17.49,17.49,0,0,0,2.72,6.16c2,2.83,4.84,4.58,7.94,4.58h51.19c6.13,0,11.1-6.83,11.22-15.33v-.31H435.67l.54,0h82.7a12,12,0,0,0,12-12V18.67A12,12,0,0,0,518.91,6.67ZM111.82,74.48l-.18-.13h.18Z"/></g></g></svg>