<svg id="Слой_1" data-name="Слой 1" xmlns="http://www.w3.org/2000/svg" xmlns:xlink="http://www.w3.org/1999/xlink" width="614.26" height="164.71" viewBox="0 0 614.26 164.71"><defs><linearGradient id="Безымянный_градиент_35" x1="1234.01" y1="1186.73" x2="1834.18" y2="1186.73" gradientUnits="userSpaceOnUse"><stop offset="0" stop-color="#ff3939"/><stop offset="0.34" stop-color="#20a0e3"/><stop offset="0.65" stop-color="#4fe332"/><stop offset="1" stop-color="#f76811"/></linearGradient><linearGradient id="Безымянный_градиент_35-2" x1="1234.02" y1="1194.55" x2="1832.54" y2="1194.55" xlink:href="#Безымянный_градиент_35"/><linearGradient id="Безымянный_градиент_35-3" x1="1234.08" y1="1212.68" x2="1834.01" y2="1212.68" xlink:href="#Безымянный_градиент_35"/></defs><title>way</title><path d="M1235,1189.79a1,1,0,0,1-.36-0.07,1,1,0,0,1-.57-1.29c0-.06.62-1.61,1.81-4.19a1,1,0,1,1,1.82.84c-1.16,2.51-1.75,4.05-1.76,4.07A1,1,0,0,1,1235,1189.79Z" transform="translate(-1227.16 -1112.2)" style="fill:url(#Безымянный_градиент_35)"/><path d="M1753,1276.9a1,1,0,0,1,0-2c3-.1,6-0.31,8.89-0.63a1,1,0,0,1,.22,2c-2.94.33-6,.54-9,0.64h0Zm-9-.05h0a85.93,85.93,0,0,1-9-.91,1,1,0,0,1,.31-2,83.77,83.77,0,0,0,8.81.89A1,1,0,0,1,1744,1276.85ZM1461,1275.71c-1.93,0-3.9-.05-5.86-0.16a1,1,0,0,1,.11-2c3,0.16,6,.2,8.92.11a1,1,0,0,1,.06,2Q1462.65,1275.71,1461,1275.71Zm12.16-.75a1,1,0,0,1-.13-2,78.42,78.42,0,0,0,8.73-1.61,1,1,0,1,1,.48,1.94,80.35,80.35,0,0,1-9,1.66h-0.13Zm297.61-.06a1,1,0,0,1-.2-2c2.94-.59,5.85-1.32,8.63-2.16a1,1,0,0,1,.58,1.91c-2.84.86-5.81,1.6-8.81,2.21Zm-324.54-.16h-0.13c-3-.38-6-0.88-8.94-1.48a1,1,0,1,1,.39-2c2.94,0.59,5.9,1.08,8.81,1.45A1,1,0,0,1,1446.27,1274.73Zm280-.71a1,1,0,0,1-.28,0,61.39,61.39,0,0,1-8.53-3.17,1,1,0,1,1,.84-1.82,59.4,59.4,0,0,0,8.25,3.07A1,1,0,0,1,1726.3,1274Zm-297.66-2.82a1,1,0,0,1-.26,0c-2.92-.79-5.84-1.69-8.66-2.67a1,1,0,0,1,.65-1.89c2.78,1,5.65,1.85,8.53,2.63A1,1,0,0,1,1428.64,1271.2Zm62-.6a1,1,0,0,1-.37-1.93,56.1,56.1,0,0,0,7.94-3.86,1,1,0,0,1,1,1.72,58.26,58.26,0,0,1-8.22,4A1,1,0,0,1,1490.61,1270.6Zm297.37-.94a1,1,0,0,1-.39-1.92,79.06,79.06,0,0,0,8-3.9,1,1,0,1,1,1,1.74,80.6,80.6,0,0,1-8.17,4A1,1,0,0,1,1788,1269.66Zm-77.88-3.16a1,1,0,0,1-.56-0.17,56.23,56.23,0,0,1-7.11-5.72,1,1,0,1,1,1.38-1.45,54.2,54.2,0,0,0,6.86,5.51A1,1,0,0,1,1710.1,1266.5Zm-298.45-1.2a1,1,0,0,1-.39-0.08c-2.86-1.23-5.61-2.56-8.19-3.94a1,1,0,0,1,.95-1.76c2.52,1.35,5.22,2.65,8,3.86A1,1,0,0,1,1411.65,1265.3Zm94.34-3.86a1,1,0,0,1-.65-1.76,47.25,47.25,0,0,0,6.1-6.33,1,1,0,1,1,1.56,1.25,49.18,49.18,0,0,1-6.36,6.6A1,1,0,0,1,1506,1261.45Zm297.62-.6a1,1,0,0,1-.59-1.81,72.58,72.58,0,0,0,6.82-5.66,1,1,0,1,1,1.37,1.46,74.82,74.82,0,0,1-7,5.81A1,1,0,0,1,1803.61,1260.85Zm-407.76-4.12a1,1,0,0,1-.57-0.18,52.05,52.05,0,0,1-7.09-5.81,1,1,0,0,1,1.41-1.42,50,50,0,0,0,6.81,5.58A1,1,0,0,1,1395.85,1256.73Zm301.23-2.49a1,1,0,0,1-.79-0.38,73.6,73.6,0,0,1-5.15-7.51,1,1,0,0,1,1.71-1,71.65,71.65,0,0,0,5,7.31A1,1,0,0,1,1697.09,1254.24Zm119.6-5.68a1,1,0,0,1-.77-1.64,72.13,72.13,0,0,0,5.23-7.16,1,1,0,0,1,1.68,1.08,74.17,74.17,0,0,1-5.38,7.35A1,1,0,0,1,1816.69,1248.57Zm-299.54-1.09a1,1,0,0,1-.88-1.47l0.52-1a56.15,56.15,0,0,0,3-7.11,1,1,0,0,1,1.89.65,58,58,0,0,1-3.08,7.36q-0.26.52-.54,1A1,1,0,0,1,1517.15,1247.47Zm-134.1-3.25a1,1,0,0,1-.8-0.4,82.65,82.65,0,0,1-5-7.57,1,1,0,1,1,1.72-1,81,81,0,0,0,4.92,7.39A1,1,0,0,1,1383.05,1244.22Zm304.73-5.33a1,1,0,0,1-.91-0.57c-1.23-2.59-2.42-5.4-3.56-8.35a1,1,0,0,1,1.87-.72c1.12,2.9,2.29,5.66,3.5,8.21A1,1,0,0,1,1687.78,1238.9Zm138.59-5.44a1,1,0,0,1-.9-1.43,73.7,73.7,0,0,0,3.35-8.21,1,1,0,1,1,1.89.64,75.71,75.71,0,0,1-3.44,8.44A1,1,0,0,1,1826.38,1233.46Zm-303.21-2.89-0.23,0a1,1,0,0,1-.75-1.2c0.63-2.68,1.19-5.55,1.74-8.77a1,1,0,1,1,2,.33c-0.55,3.26-1.12,6.17-1.76,8.89A1,1,0,0,1,1523.17,1230.57Zm-149.32-1.76a1,1,0,0,1-.9-0.57c-1.24-2.59-2.44-5.3-3.65-8.29a1,1,0,1,1,1.85-.75c1.2,3,2.37,5.63,3.6,8.18A1,1,0,0,1,1373.85,1228.81Zm307.41-6.68a1,1,0,0,1-1-.69c-0.86-2.64-1.72-5.47-2.63-8.65a1,1,0,0,1,1.92-.55c0.9,3.15,1.76,6,2.61,8.58A1,1,0,0,1,1681.26,1222.13Zm-155-9.29h-0.13a1,1,0,0,1-.86-1.12c0.41-3.15.78-6.28,1.09-8.93a1,1,0,1,1,2,.23c-0.31,2.65-.68,5.79-1.09,9A1,1,0,0,1,1526.23,1212.83Zm-159.2-.68a1,1,0,0,1-.94-0.66c-0.89-2.48-1.82-5.19-2.94-8.53a1,1,0,1,1,1.9-.63c1.11,3.33,2,6,2.92,8.49A1,1,0,0,1,1367,1212.16Zm309.22-7.33a1,1,0,0,1-1-.74l-1-3.79q-0.66-2.48-1.31-4.91a1,1,0,1,1,1.93-.52q0.65,2.43,1.31,4.91l1,3.79A1,1,0,0,1,1676.25,1204.83Zm-315-9.73a1,1,0,0,1-.95-0.69c-0.83-2.52-1.82-5.49-2.88-8.51a1,1,0,0,1,1.89-.66c1.06,3,2.06,6,2.89,8.54a1,1,0,0,1-.64,1.26A1,1,0,0,1,1361.27,1195.1Zm167.08-.15h-0.12a1,1,0,0,1-.88-1.11c0.42-3.53.78-6.38,1.14-9a1,1,0,0,1,2,.28c-0.36,2.56-.72,5.39-1.13,8.91A1,1,0,0,1,1528.35,1194.95Zm143.14-7.49a1,1,0,0,1-1-.72c-1-3.22-1.85-6-2.75-8.51a1,1,0,0,1,1.88-.67c0.91,2.55,1.82,5.37,2.78,8.62a1,1,0,0,1-.67,1.24A1,1,0,0,1,1671.49,1187.46Zm-316.23-9.33a1,1,0,0,1-.93-0.63c-1.18-3-2.33-5.68-3.52-8.21a1,1,0,0,1,1.81-.85c1.21,2.56,2.38,5.29,3.58,8.33A1,1,0,0,1,1355.26,1178.13Zm-114.42-.49a1,1,0,0,1-.88-1.48c1.46-2.67,3-5.3,4.63-7.8a1,1,0,1,1,1.68,1.08c-1.58,2.47-3.12,5.05-4.56,7.68A1,1,0,0,1,1240.85,1177.64Zm290.06-.52-0.18,0a1,1,0,0,1-.8-1.16c0.6-3.25,1.23-6.15,1.94-8.86a1,1,0,1,1,1.94.5c-0.69,2.66-1.32,5.52-1.91,8.72A1,1,0,0,1,1530.91,1177.12Zm134.39-6.55a1,1,0,0,1-.9-0.57,52,52,0,0,0-2.74-5c-0.55-.88-1.14-1.74-1.73-2.56a1,1,0,0,1,1.61-1.19c0.63,0.85,1.24,1.76,1.82,2.68a54.07,54.07,0,0,1,2.84,5.21A1,1,0,0,1,1665.3,1170.57Zm-414.73-8.07a1,1,0,0,1-.8-1.6c1.86-2.48,3.81-4.84,5.77-7a1,1,0,1,1,1.48,1.34c-1.93,2.14-3.83,4.45-5.66,6.88A1,1,0,0,1,1250.57,1162.5Zm96.94-.59a1,1,0,0,1-.86-0.49,67.29,67.29,0,0,0-5-7.3,1,1,0,1,1,1.57-1.24,69.23,69.23,0,0,1,5.15,7.52A1,1,0,0,1,1347.51,1161.91Zm188-2.15a1,1,0,0,1-.93-1.36,50.05,50.05,0,0,1,4-8.22,1,1,0,0,1,1.7,1.05,48.08,48.08,0,0,0-3.88,7.89A1,1,0,0,1,1535.56,1159.76Zm31.29-2.71a19.79,19.79,0,0,1-5.3-.62,14.42,14.42,0,0,1-3.27-1.39,1,1,0,0,1,1-1.74,12.39,12.39,0,0,0,2.82,1.19,18.84,18.84,0,0,0,5.34.54h0a1,1,0,0,1,0,2h-0.61Zm87.74-.74a1,1,0,0,1-.64-0.23,34,34,0,0,0-7.37-4.63,1,1,0,0,1,.84-1.81,36,36,0,0,1,7.81,4.91A1,1,0,0,1,1654.59,1156.3Zm-78.21-.27a1,1,0,0,1-.17-2c2.37-.42,5.08-1,8.77-1.81a1,1,0,0,1,.44,2c-3.72.84-6.46,1.4-8.86,1.83Zm17.59-3.83a1,1,0,0,1-.22-2c2.39-.54,5.55-1.25,8.82-1.91a1,1,0,0,1,.39,2c-3.24.65-6.39,1.36-8.77,1.9Zm-331.32-3a1,1,0,0,1-.67-1.75,70.57,70.57,0,0,1,7.16-5.65,1,1,0,1,1,1.13,1.65,68.4,68.4,0,0,0-7,5.49A1,1,0,0,1,1262.65,1149.19Zm289.65-.16a1,1,0,0,1-.82-0.43,27.81,27.81,0,0,1-3.19-6.1,27.46,27.46,0,0,0-2.44,2,1,1,0,1,1-1.36-1.47,29.09,29.09,0,0,1,3.14-2.52l-0.09-.33a1,1,0,0,1,1.82-.78,28.91,28.91,0,0,1,2.82-1.48,1,1,0,1,1,.83,1.82,26.94,26.94,0,0,0-3,1.6,25.93,25.93,0,0,0,3.12,6.1A1,1,0,0,1,1552.3,1149Zm59.33-.3a1,1,0,0,1-.15-2c3.23-.48,6.18-0.81,9-1a1,1,0,0,1,1.07.93,1,1,0,0,1-.93,1.07c-2.79.19-5.69,0.52-8.86,1h-0.15Zm26.85,0-0.21,0a53.71,53.71,0,0,0-8.75-1.1,1,1,0,0,1,0-2h0a55.88,55.88,0,0,1,9.08,1.14A1,1,0,0,1,1638.48,1148.72Zm-302.14-.78a1,1,0,0,1-.67-0.26,47.56,47.56,0,0,0-7-5.26,1,1,0,1,1,1-1.71,49.61,49.61,0,0,1,7.31,5.49A1,1,0,0,1,1336.34,1147.94Zm-58.86-8.82a1,1,0,0,1-.43-1.9,50.51,50.51,0,0,1,8.59-3.18,1,1,0,1,1,.52,1.93,48.44,48.44,0,0,0-8.25,3.06A1,1,0,0,1,1277.48,1139.12Zm43.68-.52a1,1,0,0,1-.36-0.07,56.46,56.46,0,0,0-8.43-2.51,1,1,0,1,1,.43-2,58.71,58.71,0,0,1,8.73,2.6A1,1,0,0,1,1321.16,1138.6Zm240-1.25a1,1,0,0,1-.18-2,23.7,23.7,0,0,0,8.09-2.83,1,1,0,0,1,1,1.7,25.66,25.66,0,0,1-8.78,3.09Zm-257.44-2.63h-0.09c-1.31-.11-2.65-0.2-4-0.25a44.73,44.73,0,0,0-4.82.06,1,1,0,1,1-.13-2,46.69,46.69,0,0,1,5-.07c1.38,0.05,2.75.14,4.09,0.26A1,1,0,0,1,1303.72,1134.72Zm243.87-2.7h-0.08a1,1,0,0,1-.92-1.07,25,25,0,0,1,2.41-9,1,1,0,1,1,1.8.87,23,23,0,0,0-2.22,8.28A1,1,0,0,1,1547.59,1132Zm26.89-4.77h-0.08a1,1,0,0,1-.92-1.08q0-.3,0-0.6a10.58,10.58,0,0,0-2.9-6.84,1,1,0,1,1,1.5-1.32,12.57,12.57,0,0,1,3.4,8.17q0,0.38,0,.76A1,1,0,0,1,1574.48,1127.25Zm-19.21-11a1,1,0,0,1-.6-1.8,10.89,10.89,0,0,1,6.68-2.25h0a12.2,12.2,0,0,1,2.64.3,1,1,0,1,1-.43,2,10.19,10.19,0,0,0-2.21-.25h0a9,9,0,0,0-5.48,1.85A1,1,0,0,1,1555.27,1116.25Z" transform="translate(-1227.16 -1112.2)" style="fill:url(#Безымянный_градиент_35-2)"/><path d="M1832.26,1215.89l-0.2,0a1,1,0,0,1-.78-1.18c0.29-1.45.54-2.93,0.74-4.37a1,1,0,0,1,1.13-.85,1,1,0,0,1,.85,1.13c-0.21,1.49-.46,3-0.76,4.49A1,1,0,0,1,1832.26,1215.89Z" transform="translate(-1227.16 -1112.2)" style="fill:url(#Безымянный_градиент_35-3)"/><path d="M1228.66,1194.09a1.5,1.5,0,0,1-.68-2.83l11.71-6a1.5,1.5,0,0,1,1.37,2.67l-11.71,6A1.49,1.49,0,0,1,1228.66,1194.09Z" transform="translate(-1227.16 -1112.2)" style="fill:#ff3939"/><path d="M1237.52,1196.95a1.5,1.5,0,0,1-1.34-.82l-6-11.71a1.5,1.5,0,0,1,2.67-1.37l6,11.71A1.5,1.5,0,0,1,1237.52,1196.95Z" transform="translate(-1227.16 -1112.2)" style="fill:#ff3939"/><path d="M1837.92,1211.93a3.51,3.51,0,0,1-.55,0l-9.41-1.5a3.5,3.5,0,0,1-2.17-5.66l6-7.4a3.5,3.5,0,0,1,6,1l3.41,8.89A3.5,3.5,0,0,1,1837.92,1211.93Z" transform="translate(-1227.16 -1112.2)" style="fill:#f76811"/></svg>