<svg id="RU_Download_on_the" data-name="RU Download on the" xmlns="http://www.w3.org/2000/svg" width="135" height="40" viewBox="0 0 135 40"><title>appstore</title><path d="M130.2,40H4.73A4.74,4.74,0,0,1,0,35.27V4.73A4.73,4.73,0,0,1,4.73,0H130.2A4.8,4.8,0,0,1,135,4.73V35.27A4.8,4.8,0,0,1,130.2,40h0Z" transform="translate(0 0)" style="fill:#a6a6a6"/><path d="M134,35.27a3.83,3.83,0,0,1-3.83,3.83H4.73A3.83,3.83,0,0,1,.89,35.27V4.72A3.84,3.84,0,0,1,4.73.89H130.2A3.83,3.83,0,0,1,134,4.72V35.27h0Z" transform="translate(0 0)"/><path d="M30.13,19.78a5.8,5.8,0,0,1,2.76-4.86,5.94,5.94,0,0,0-4.68-2.53c-2-.21-3.87,1.18-4.88,1.18s-2.57-1.16-4.23-1.12a6.23,6.23,0,0,0-5.24,3.2c-2.27,3.92-.58,9.69,1.6,12.86,1.09,1.55,2.36,3.29,4,3.23s2.23-1,4.19-1,2.51,1,4.21,1,2.84-1.56,3.89-3.13a12.83,12.83,0,0,0,1.78-3.62A5.6,5.6,0,0,1,30.13,19.78Z" transform="translate(0 0)" style="fill:#fff"/><path d="M26.93,10.31a5.71,5.71,0,0,0,1.31-4.09,5.81,5.81,0,0,0-3.76,1.94,5.43,5.43,0,0,0-1.34,3.94A4.8,4.8,0,0,0,26.93,10.31Z" transform="translate(0 0)" style="fill:#fff"/><path d="M53.65,31.5H51.37l-1.24-3.91H45.81L44.62,31.5H42.41L46.69,18.2h2.65ZM49.76,26l-1.12-3.48Q48.45,21.95,48,20h0q-0.2.85-.63,2.51L46.18,26h3.57Z" transform="translate(0 0)" style="fill:#fff"/><path d="M64.66,26.59a5.45,5.45,0,0,1-1.32,3.87,3.87,3.87,0,0,1-2.94,1.26,2.94,2.94,0,0,1-2.72-1.36h0v5.05H55.5V25.07q0-1.54-.08-3.16H57.3l0.12,1.52h0a3.79,3.79,0,0,1,6.07-.38A5.29,5.29,0,0,1,64.66,26.59Zm-2.17.08a4,4,0,0,0-.63-2.31A2.18,2.18,0,0,0,60,23.41a2.22,2.22,0,0,0-1.43.52,2.43,2.43,0,0,0-.84,1.37,2.79,2.79,0,0,0-.1.65v1.6a2.56,2.56,0,0,0,.64,1.77,2.13,2.13,0,0,0,1.67.72,2.18,2.18,0,0,0,1.88-.93A4.08,4.08,0,0,0,62.49,26.67Z" transform="translate(0 0)" style="fill:#fff"/><path d="M75.7,26.59a5.45,5.45,0,0,1-1.32,3.87,3.86,3.86,0,0,1-2.94,1.26,2.94,2.94,0,0,1-2.72-1.36h0v5.05H66.54V25.07q0-1.54-.08-3.16h1.88l0.12,1.52h0a3.79,3.79,0,0,1,6.07-.38A5.3,5.3,0,0,1,75.7,26.59Zm-2.17.08a4,4,0,0,0-.63-2.31A2.18,2.18,0,0,0,71,23.41a2.22,2.22,0,0,0-1.43.52,2.42,2.42,0,0,0-.84,1.37,2.85,2.85,0,0,0-.1.65v1.6a2.57,2.57,0,0,0,.64,1.77A2.13,2.13,0,0,0,71,30a2.18,2.18,0,0,0,1.88-.93A4.08,4.08,0,0,0,73.53,26.67Z" transform="translate(0 0)" style="fill:#fff"/><path d="M88,27.77a3.55,3.55,0,0,1-1.18,2.76,5.24,5.24,0,0,1-3.62,1.17,6.35,6.35,0,0,1-3.45-.83l0.49-1.78a5.84,5.84,0,0,0,3.08.85,2.91,2.91,0,0,0,1.88-.54,1.78,1.78,0,0,0,.67-1.45,1.85,1.85,0,0,0-.55-1.36,5.14,5.14,0,0,0-1.84-1Q80,24.25,80,21.74A3.38,3.38,0,0,1,81.25,19a4.83,4.83,0,0,1,3.26-1,6.46,6.46,0,0,1,3,.63L87,20.37a5.24,5.24,0,0,0-2.55-.61,2.58,2.58,0,0,0-1.76.55,1.58,1.58,0,0,0-.53,1.2,1.63,1.63,0,0,0,.61,1.3,6.91,6.91,0,0,0,1.94,1,6.57,6.57,0,0,1,2.53,1.62A3.38,3.38,0,0,1,88,27.77Z" transform="translate(0 0)" style="fill:#fff"/><path d="M95.09,23.51H92.74v4.66q0,1.78,1.24,1.78a3.79,3.79,0,0,0,.95-0.1L95,31.46a4.83,4.83,0,0,1-1.66.24,2.56,2.56,0,0,1-2-.77,3.78,3.78,0,0,1-.71-2.59V23.51h-1.4v-1.6h1.4V20.15l2.09-.63v2.39h2.35v1.6Z" transform="translate(0 0)" style="fill:#fff"/><path d="M105.69,26.63a5.26,5.26,0,0,1-1.26,3.63,4.51,4.51,0,0,1-3.52,1.46,4.29,4.29,0,0,1-3.36-1.4,5.1,5.1,0,0,1-1.25-3.53,5.21,5.21,0,0,1,1.29-3.65,4.47,4.47,0,0,1,3.48-1.42,4.38,4.38,0,0,1,3.4,1.4A5,5,0,0,1,105.69,26.63Zm-2.21.07a4.32,4.32,0,0,0-.57-2.28A2.11,2.11,0,0,0,101,23.27a2.14,2.14,0,0,0-2,1.15,4.4,4.4,0,0,0-.57,2.32A4.31,4.31,0,0,0,99,29a2.18,2.18,0,0,0,3.85,0A4.33,4.33,0,0,0,103.48,26.7Z" transform="translate(0 0)" style="fill:#fff"/><path d="M112.62,23.78a3.7,3.7,0,0,0-.67-0.06,2,2,0,0,0-1.74.85,3.19,3.19,0,0,0-.53,1.9v5h-2.13l0-6.57q0-1.66-.08-3h1.86l0.08,1.84h0.06a3.28,3.28,0,0,1,1.07-1.52,2.58,2.58,0,0,1,1.54-.51,3.42,3.42,0,0,1,.53,0v2Z" transform="translate(0 0)" style="fill:#fff"/><path d="M122.16,26.25a5,5,0,0,1-.08,1h-6.4a2.78,2.78,0,0,0,.93,2.17,3.17,3.17,0,0,0,2.09.67,7.07,7.07,0,0,0,2.59-.45l0.33,1.48a8,8,0,0,1-3.22.59,4.66,4.66,0,0,1-3.51-1.31,4.85,4.85,0,0,1-1.27-3.52,5.5,5.5,0,0,1,1.19-3.61,4.09,4.09,0,0,1,3.36-1.54,3.58,3.58,0,0,1,3.14,1.54A5.19,5.19,0,0,1,122.16,26.25Zm-2-.55a2.9,2.9,0,0,0-.41-1.64,1.86,1.86,0,0,0-1.7-.89,2,2,0,0,0-1.7.87,3.18,3.18,0,0,0-.63,1.66h4.44Z" transform="translate(0 0)" style="fill:#fff"/><path d="M43.42,7.27a3.77,3.77,0,0,1,.77-0.34,3.27,3.27,0,0,1,1-.14,2.27,2.27,0,0,1,1.48.45,1.47,1.47,0,0,1,.54,1.2,1.46,1.46,0,0,1-.36,1,1.76,1.76,0,0,1-.93.54v0a2.38,2.38,0,0,1,.59.17,1.59,1.59,0,0,1,.49.32,1.53,1.53,0,0,1,.33.48,1.47,1.47,0,0,1,.12.6,1.76,1.76,0,0,1-.22.91,1.83,1.83,0,0,1-.57.6,2.4,2.4,0,0,1-.79.33,3.88,3.88,0,0,1-.87.1,4.46,4.46,0,0,1-.92-0.1,2.86,2.86,0,0,1-.84-0.32l0.26-.81a4,4,0,0,0,.65.24,2.83,2.83,0,0,0,.81.12,1.58,1.58,0,0,0,1-.3A1.1,1.1,0,0,0,46.22,11a1.06,1.06,0,0,0-.38-0.35,1.65,1.65,0,0,0-.52-0.17,3.43,3.43,0,0,0-.57,0H44.31V9.65h0.44a1.89,1.89,0,0,0,.56-0.08,1.42,1.42,0,0,0,.45-0.22A1,1,0,0,0,46.05,9a0.9,0.9,0,0,0,.11-0.44,0.83,0.83,0,0,0-.31-0.68A1.3,1.3,0,0,0,45,7.65a2.33,2.33,0,0,0-.72.12,5.3,5.3,0,0,0-.64.25Z" transform="translate(0 0)" style="fill:#fff"/><path d="M51.76,13.43l-0.08-.54h0a1.6,1.6,0,0,1-1.38.65,1.53,1.53,0,0,1-.58-0.11,1.43,1.43,0,0,1-.46-0.29,1.28,1.28,0,0,1-.3-0.44,1.41,1.41,0,0,1-.11-0.55,1.45,1.45,0,0,1,.72-1.32,3.91,3.91,0,0,1,2-.44V10.3a0.84,0.84,0,0,0-1-.93,2.19,2.19,0,0,0-1.23.35L49.16,9a3,3,0,0,1,1.62-.41,1.68,1.68,0,0,1,1.85,1.95v1.74a7.14,7.14,0,0,0,.07,1.13H51.76Zm-0.15-2.35a2.94,2.94,0,0,0-1.31.22,0.76,0.76,0,0,0-.43.73,0.71,0.71,0,0,0,.2.55,0.73,0.73,0,0,0,.51.18A1,1,0,0,0,51,12.7a1,1,0,0,0,.32-0.2,1,1,0,0,0,.23-0.31,0.87,0.87,0,0,0,.09-0.38V11.09Z" transform="translate(0 0)" style="fill:#fff"/><path d="M57.68,8.72V9.58h-2v3.85h-1V8.72h3Z" transform="translate(0 0)" style="fill:#fff"/><path d="M63.68,11a3.25,3.25,0,0,1-.15,1,2.39,2.39,0,0,1-.43.8,1.92,1.92,0,0,1-1.51.7,1.45,1.45,0,0,1-1.34-.67h0v2.48h-1V10.27q0-.38,0-0.76c0-.26,0-0.52,0-0.79h0.92l0.06,0.75h0a1.75,1.75,0,0,1,1.59-.84,1.73,1.73,0,0,1,.77.17,1.89,1.89,0,0,1,.62.49,2.34,2.34,0,0,1,.41.76A3,3,0,0,1,63.68,11Zm-1.07,0a2.39,2.39,0,0,0-.08-0.64,1.48,1.48,0,0,0-.24-0.5,1.18,1.18,0,0,0-.39-0.33,1.09,1.09,0,0,0-.95,0,1.19,1.19,0,0,0-.37.26,1.3,1.3,0,0,0-.35.89v0.79a1.37,1.37,0,0,0,.08.48,1.17,1.17,0,0,0,.23.39,1.05,1.05,0,0,0,.36.26,1.12,1.12,0,0,0,.46.09,1.08,1.08,0,0,0,.92-0.45A2,2,0,0,0,62.61,11.06Z" transform="translate(0 0)" style="fill:#fff"/><path d="M69.31,8.72L68.11,12a14.67,14.67,0,0,1-.83,1.91A4.25,4.25,0,0,1,66.51,15a2.32,2.32,0,0,1-1.15.59l-0.25-.88a2,2,0,0,0,.78-0.42,2.32,2.32,0,0,0,.59-0.78,0.59,0.59,0,0,0,.08-0.21,0.88,0.88,0,0,0-.06-0.22L64.78,8.72h1.15l0.89,2.63c0,0.12.09,0.26,0.14,0.42l0.15,0.51h0c0-.1.07-0.23,0.11-0.39s0.09-.34.15-0.55l0.8-2.62h1.12Z" transform="translate(0 0)" style="fill:#fff"/><path d="M71.12,10.68H71.6a1.47,1.47,0,0,0,.82-0.19A0.57,0.57,0,0,0,72.72,10a0.54,0.54,0,0,0-.25-0.47,1.17,1.17,0,0,0-.68-0.18,1.84,1.84,0,0,0-.57.09,3,3,0,0,0-.53.23L70.42,9a2.9,2.9,0,0,1,.81-0.31A4,4,0,0,1,72,8.62a3.38,3.38,0,0,1,.65.06,1.79,1.79,0,0,1,.58.21,1.24,1.24,0,0,1,.41.39,1.07,1.07,0,0,1,.16.6,0.84,0.84,0,0,1-.09.39,1,1,0,0,1-.23.3,1.25,1.25,0,0,1-.32.21,1.74,1.74,0,0,1-.36.12v0a1.87,1.87,0,0,1,.45.12,1.55,1.55,0,0,1,.39.23,1.14,1.14,0,0,1,.28.34,1,1,0,0,1,.11.45,1.15,1.15,0,0,1-.2.7,1.46,1.46,0,0,1-.52.45,2.51,2.51,0,0,1-.69.24,3.94,3.94,0,0,1-.74.07A4.09,4.09,0,0,1,71,13.45a2.71,2.71,0,0,1-.77-0.29l0.27-.69a2.79,2.79,0,0,0,.58.23,2.44,2.44,0,0,0,.66.09,1.38,1.38,0,0,0,.82-0.21,0.63,0.63,0,0,0,.29-0.52,0.59,0.59,0,0,0-.1-0.34,0.71,0.71,0,0,0-.27-0.23,1.33,1.33,0,0,0-.41-0.12,3.44,3.44,0,0,0-.5,0H71.12V10.68Z" transform="translate(0 0)" style="fill:#fff"/><path d="M76.71,8.72v1.67c0,0.38,0,.73,0,1s0,0.62,0,1l0,0L77,11.67l0.36-.72,1.16-2.23h1.36v4.71h-1V11.76c0-.35,0-0.7,0-1s0-.7.05-1.06h0a7,7,0,0,1-.33.76l-0.33.66-0.6,1.16q-0.3.58-.62,1.19H75.72V8.72h1Z" transform="translate(0 0)" style="fill:#fff"/><path d="M85.44,8.72V9.58H84v3.85H83V9.58H81.55V8.72h3.89Z" transform="translate(0 0)" style="fill:#fff"/><path d="M90.79,10.85c0,0.09,0,.18,0,0.26a1.75,1.75,0,0,1,0,.22H87.61a1.38,1.38,0,0,0,.42,1,1.53,1.53,0,0,0,1.06.36,3.52,3.52,0,0,0,1.27-.22l0.16,0.73a4,4,0,0,1-1.58.29,2.71,2.71,0,0,1-1-.17,2,2,0,0,1-.74-0.48,2.12,2.12,0,0,1-.46-0.75,2.87,2.87,0,0,1-.16-1,3.09,3.09,0,0,1,.16-1,2.47,2.47,0,0,1,.45-0.8,2.11,2.11,0,0,1,.7-0.53,2.14,2.14,0,0,1,.92-0.19,2,2,0,0,1,.81.16,1.71,1.71,0,0,1,.62.46,2,2,0,0,1,.39.71A2.87,2.87,0,0,1,90.79,10.85Zm-1-.27a1.42,1.42,0,0,0-.27-0.9,0.92,0.92,0,0,0-.77-0.34,1,1,0,0,0-.78.35,1.48,1.48,0,0,0-.37.89h2.18Z" transform="translate(0 0)" style="fill:#fff"/><path d="M95,8.76c0.19,0,.43-0.06.72-0.08s0.59,0,.89,0,0.41,0,.65,0a2.69,2.69,0,0,1,.69.15,1.38,1.38,0,0,1,.55.36,0.94,0.94,0,0,1,.22.66,0.92,0.92,0,0,1-.08.38,1,1,0,0,1-.21.3,1.15,1.15,0,0,1-.3.21,1.47,1.47,0,0,1-.35.12v0a1.65,1.65,0,0,1,.83.37A1,1,0,0,1,99,12a1.11,1.11,0,0,1-.27.79,1.7,1.7,0,0,1-.67.44,3.28,3.28,0,0,1-.84.19c-0.29,0-.56,0-0.79,0l-0.76,0-0.62,0V8.76Zm1,1.88h0.53a3,3,0,0,0,.46,0,1.52,1.52,0,0,0,.38-0.11,0.65,0.65,0,0,0,.26-0.19,0.48,0.48,0,0,0,.09-0.3,0.5,0.5,0,0,0-.27-0.47,1.78,1.78,0,0,0-.84-0.15H96.35L96,9.43v1.21Zm0,2.09,0.32,0h0.31a3.26,3.26,0,0,0,.44,0,1.45,1.45,0,0,0,.41-0.11,0.75,0.75,0,0,0,.29-0.22A0.58,0.58,0,0,0,97.9,12a0.56,0.56,0,0,0-.36-0.56,2.5,2.5,0,0,0-1-.15H96v1.41h0Z" transform="translate(0 0)" style="fill:#fff"/></svg>