<svg id="Слой_1" data-name="Слой 1" xmlns="http://www.w3.org/2000/svg" width="24.5" height="24.5" viewBox="0 0 24.5 24.5"><title>phone_final</title><path d="M1611.32,1255.17h-15.8a4.34,4.34,0,0,0-4.34,4.34v15.8a4.35,4.35,0,0,0,4.35,4.35h15.79a4.35,4.35,0,0,0,4.35-4.35v-15.79A4.35,4.35,0,0,0,1611.32,1255.17Zm0,18.92-0.75.73h0a4.47,4.47,0,0,1-1.07.6,4.16,4.16,0,0,1-1.08.27c-0.17,0-4.12.39-9-4.51-3.54-3.54-4.85-6.15-4.5-9a4.5,4.5,0,0,1,.27-1.08,4.29,4.29,0,0,1,.6-1.07l0,0,0.74-.74a1.36,1.36,0,0,1,1.92,0l2.61,2.61a1.36,1.36,0,0,1,0,1.92l-0.43.44-0.88.88,0.14,0.25a12.33,12.33,0,0,0,5.45,5.46l0.26,0.14,1.32-1.31a1.35,1.35,0,0,1,1.91,0l2.61,2.61A1.36,1.36,0,0,1,1611.35,1274.09Z" transform="translate(-1591.17 -1255.17)" style="fill:#fff"/></svg>