<svg id="Слой_1" data-name="Слой 1" xmlns="http://www.w3.org/2000/svg" width="41.35" height="39.67" viewBox="0 0 41.35 39.67"><title>rating semi star</title><path d="M833.73,730.92a2.07,2.07,0,0,0-1.15-3.52l-9.67-1.4a2.06,2.06,0,0,1-1.56-1.13L817,716.1a2.07,2.07,0,0,0-3.71,0L809,724.87a2.06,2.06,0,0,1-1.56,1.13l-9.67,1.4a2.07,2.07,0,0,0-1.15,3.52l7,6.83a2.05,2.05,0,0,1,.6,1.82l-1.65,9.64a2.06,2.06,0,0,0,3,2.17l8.65-4.54a2.11,2.11,0,0,1,1-.24,2,2,0,0,1,1,.24l8.65,4.54a2.07,2.07,0,0,0,3-2.17l-1.66-9.64a2.05,2.05,0,0,1,.6-1.82Z" transform="translate(-794.5 -713.45)" style="fill:none;stroke:#228eef;stroke-miterlimit:10;stroke-width:3px"/><path d="M815.18,715V746.6a2.11,2.11,0,0,0-1,.24l-8.65,4.54a2.06,2.06,0,0,1-3-2.17l1.65-9.64a2.05,2.05,0,0,0-.6-1.82l-7-6.83a2.07,2.07,0,0,1,1.15-3.52l9.67-1.4a2.06,2.06,0,0,0,1.56-1.13l4.32-8.77A2.06,2.06,0,0,1,815.18,715Z" transform="translate(-794.5 -713.45)" style="fill:#228eef"/></svg>