<svg id="Слой_1" data-name="Слой 1" xmlns="http://www.w3.org/2000/svg" width="32.81" height="46.85" viewBox="0 0 32.81 46.85"><title>1</title><path d="M467.79,341.28a7.51,7.51,0,1,0,7.5,7.5,7.51,7.51,0,0,0-7.5-7.5h0Zm0,12.86a5.36,5.36,0,1,1,5.36-5.36,5.37,5.37,0,0,1-5.36,5.36h0Zm0,0" transform="translate(-451.23 -332.53)" style="fill:#fff"/><path d="M479.24,337.33a16.41,16.41,0,0,0-23.21,0c-5.73,5.74-6.45,16.52-1.54,23.06l13.14,19,13.13-19c4.93-6.56,4.21-17.35-1.52-23.09h0Zm0.13,22.09-11.74,17-11.76-17c-4.44-5.93-3.81-15.67,1.37-20.85a14.7,14.7,0,0,1,20.78,0c5.18,5.18,5.82,14.92,1.35,20.88h0Zm0,0" transform="translate(-451.23 -332.53)" style="fill:#fff"/></svg>