<svg id="Слой_1" data-name="Слой 1" xmlns="http://www.w3.org/2000/svg" width="45.13" height="48.43" viewBox="0 0 45.13 48.43"><title>3</title><path d="M551.55,339.63a7.69,7.69,0,0,0-2.07-3.89,8.82,8.82,0,0,0-1-.85l-0.08,0h0l-0.11-.12a7.72,7.72,0,0,0-4.17-1.27h-3.5v-2.38a0.81,0.81,0,1,0-1.62,0v2.38H519.32v-2.38a0.81,0.81,0,1,0-1.62,0v2.38h-3.5a7.39,7.39,0,0,0-2.12.31l-0.16.06a8.83,8.83,0,0,0-1.93.88l0,0-0.07,0-0.22.14a3.07,3.07,0,0,0-.31.24l-1.06,1.06-0.14.17a2,2,0,0,0-.25.37,6.9,6.9,0,0,0-1.15,2.76,7.51,7.51,0,0,0-.16,1.56v29.84a7.65,7.65,0,0,0,2.23,5.39,7.31,7.31,0,0,0,5.39,2.39h29.89a7.65,7.65,0,0,0,5.39-2.23,7.56,7.56,0,0,0,2.23-5.39V341.19A7.51,7.51,0,0,0,551.55,339.63ZM550.14,371a6,6,0,0,1-6,6.06H514.2a6,6,0,0,1-6-6.06V347.26h42V371Zm0.11-25.22h-42.1v-4.56a8.67,8.67,0,0,1,.1-1.2,6.6,6.6,0,0,1,.28-1c0.06-.13.1-0.23,0.14-0.33a1.48,1.48,0,0,1,.12-0.29h0a0.25,0.25,0,0,1,.11-0.21,6.31,6.31,0,0,1,1-1.26l0.11-.11a6.09,6.09,0,0,1,4.19-1.71h3.55v2.38a0.81,0.81,0,1,0,1.62,0v-2.38H539v2.38a0.81,0.81,0,1,0,1.62,0v-2.38h3.49a6.21,6.21,0,0,1,3.27,1,0.19,0.19,0,0,1,.09,0,0.25,0.25,0,0,1,.16.12,5.11,5.11,0,0,1,.83.68,5.86,5.86,0,0,1,1.48,2.48,6,6,0,0,1,.28,1.81v4.56Z" transform="translate(-506.58 -330.27)" style="fill:#fff"/><polygon points="20.39 37.29 20.39 38.47 13.34 38.47 13.34 37.29 16.11 37.15 16.11 24.4 13.06 24.83 13.06 23.7 17.63 22.71 17.63 37.15 20.39 37.29" style="fill:#fff"/><path d="M537.34,354.5a4.39,4.39,0,0,0-3.64-1.67,4.34,4.34,0,0,0-3.61,1.67,7.47,7.47,0,0,0-1.29,4.68v3.44a7.47,7.47,0,0,0,1.3,4.68,4.79,4.79,0,0,0,7.25,0,7.43,7.43,0,0,0,1.29-4.68v-3.44A7.47,7.47,0,0,0,537.34,354.5Zm-3.61,13.14a2.94,2.94,0,0,1-2.53-1.24,6.21,6.21,0,0,1-.89-3.58V359a6.22,6.22,0,0,1,.88-3.58,3.21,3.21,0,0,1,5,0,6.2,6.2,0,0,1,.88,3.58v3.85a6.19,6.19,0,0,1-.88,3.58A2.83,2.83,0,0,1,533.73,367.64Z" transform="translate(-506.58 -330.27)" style="fill:#fff"/></svg>