<svg id="Слой_1" data-name="Слой 1" xmlns="http://www.w3.org/2000/svg" width="46.69" height="45.87" viewBox="0 0 46.69 45.87"><title>4</title><path d="M322.85,378.7a0.71,0.71,0,0,1-.7-0.7V367.92a17.18,17.18,0,0,1-9.6-15.93c0-10.92,10-19.16,23.35-19.16s23.35,8.24,23.35,19.16-10,19.15-23.35,19.15c-0.44,0-.86,0-1.29,0h0l-11.33,7.49a0.73,0.73,0,0,1-.39.12h0Zm13-44.45c-12.5,0-21.93,7.63-21.93,17.74a15.69,15.69,0,0,0,9.2,14.85,0.72,0.72,0,0,1,.39.63v9.2l10.43-6.9a0.67,0.67,0,0,1,.43-0.12h0.26c0.4,0,.81,0,1.22,0,12.51,0,21.93-7.63,21.93-17.74s-9.42-17.74-21.93-17.74h0Zm0,0" transform="translate(-312.55 -332.84)" style="fill:#fff"/></svg>