<svg id="Слой_1" data-name="Слой 1" xmlns="http://www.w3.org/2000/svg" width="47.75" height="47.76" viewBox="0 0 47.75 47.76"><title>5</title><path d="M273.47,357.34l-17.6-12a0.72,0.72,0,0,0-.69,0,0.69,0.69,0,0,0-.36.6v24a0.69,0.69,0,0,0,.36.6,0.71,0.71,0,0,0,.69,0l17.6-12A0.67,0.67,0,0,0,273.47,357.34Zm-1.73.66-15.57,10.62V347.18l0.19,0.13,15.53,10.59Z" transform="translate(-237.22 -334.02)" style="fill:#fff"/><path d="M261.09,334A23.88,23.88,0,1,0,285,357.9,23.91,23.91,0,0,0,261.09,334Zm0,46.4a22.52,22.52,0,1,1,22.53-22.52A22.54,22.54,0,0,1,261.09,380.42Z" transform="translate(-237.22 -334.02)" style="fill:#fff"/></svg>