<svg id="Слой_1" data-name="Слой 1" xmlns="http://www.w3.org/2000/svg" width="39.29" height="71.96" viewBox="0 0 39.29 71.96"><title>6</title><path d="M618.56,346.61l-0.07-.38s-0.2-1-.34-1.57l0-.11s0,0,0,0l0-.17a18.46,18.46,0,0,0-4.92-8.49,20.81,20.81,0,0,0-27.77,0c-3.77,3.67-5.76,8.86-5.76,15a32,32,0,0,0,5.66,18c3,4.34,6.78,7.15,10.81,8.13l0.47,0.11-0.22.43a3.21,3.21,0,0,0-.39,1.55v2.51a0.8,0.8,0,0,0,.8.81h1.69l0,0.42a7.89,7.89,0,0,1-.5,1.83,8.91,8.91,0,0,0-.69,3.64,9,9,0,0,0,.68,3.63,8.41,8.41,0,0,1,0,6.14,9.09,9.09,0,0,0-.68,3.63,0.81,0.81,0,1,0,1.61,0,7.37,7.37,0,0,1,.58-3.06,9.11,9.11,0,0,0,.68-3.64,9,9,0,0,0-.68-3.63,7.42,7.42,0,0,1-.58-3.07,7.33,7.33,0,0,1,.58-3.06,9,9,0,0,0,.62-2.5l0-.33h1.73a0.8,0.8,0,0,0,.8-0.81v-2.51a3.33,3.33,0,0,0-.39-1.55L602,377.1l0.47-.11a14.29,14.29,0,0,0,1.41-.43l0,0,0.25-.09,0.34-.13h0a10.7,10.7,0,0,0,1.46-.69l0.19-.11,0.66-.39a17.7,17.7,0,0,0,1.64-1.13l0.4-.31s0.75-.66,1.3-1.17l0.43-.43a24.69,24.69,0,0,0,2.68-3.24,32,32,0,0,0,5.66-18A25.7,25.7,0,0,0,618.56,346.61ZM601,380.79h-3.42v-1.71a1.71,1.71,0,1,1,3.42,0v1.71Zm11-12.85c-3.54,5.05-8,7.83-12.67,7.83s-9.13-2.78-12.66-7.83a30.37,30.37,0,0,1-5.38-17.07c0-5.71,1.83-10.51,5.28-13.87A19.19,19.19,0,0,1,612,337c3.45,3.36,5.28,8.16,5.28,13.87A30.37,30.37,0,0,1,611.92,367.94Z" transform="translate(-579.61 -330.54)" style="fill:#fff"/></svg>