<svg id="Слой_1" data-name="Слой 1" xmlns="http://www.w3.org/2000/svg" width="48.79" height="48.79" viewBox="0 0 48.79 48.79"><title>7</title><path d="M202,342.32l0.58-.63A5.33,5.33,0,0,0,204,338a5.27,5.27,0,0,0-5.22-5.31c-2.1,0-7.38,3.33-9.52,6.44l-0.3.44-0.31-.44c-2.17-3.06-7.42-6.34-9.48-6.34a5.27,5.27,0,0,0-5.22,5.32,5.37,5.37,0,0,0,1.33,3.54l0.55,0.62H164.6v12.85h2.95v26.36h42.9V355.17h2.94V342.32H202Zm-3.21-8.23a3.92,3.92,0,0,1,3.86,4.06,4.09,4.09,0,0,1-3.15,4h-8.63l-0.11,0c-0.82-.24-1-0.58-1-0.82C189.78,339.29,196.27,334.09,198.8,334.09Zm-23.46,4.06a4.21,4.21,0,0,1,1.2-2.93,3.74,3.74,0,0,1,2.65-1.13c2.2,0,9,5.09,9,7.23a1.14,1.14,0,0,1-.87.81l-0.07,0h-8.7A4.09,4.09,0,0,1,175.34,338.15Zm7.7,42H168.9v-25H183v25Zm0-26.24H166V343.69H183v10.23Zm10.53,26.24h-9.19V343.68h9.19v36.48Zm15.5,0H194.94v-25h14.14v25Zm3-26.24H194.94V343.69H212v10.23Z" transform="translate(-164.6 -332.73)" style="fill:#fff"/></svg>