<svg id="Слой_1" data-name="Слой 1" xmlns="http://www.w3.org/2000/svg" width="45.87" height="45.88" viewBox="0 0 45.87 45.88"><title>8</title><path d="M114.54,335.15a22.94,22.94,0,1,0,22.93,22.94A23,23,0,0,0,114.54,335.15Zm0,44.46a21.53,21.53,0,1,1,21.52-21.52A21.55,21.55,0,0,1,114.54,379.61Z" transform="translate(-91.6 -335.15)" style="fill:#fff"/><path d="M114.27,348.24a1.44,1.44,0,1,0,1.44,1.44A1.44,1.44,0,0,0,114.27,348.24Z" transform="translate(-91.6 -335.15)" style="fill:#fff"/><path d="M114.27,355.81a0.71,0.71,0,0,0-.71.71v12.39a0.71,0.71,0,0,0,1.42,0V356.52A0.71,0.71,0,0,0,114.27,355.81Z" transform="translate(-91.6 -335.15)" style="fill:#fff"/></svg>