<svg id="Слой_1" data-name="Слой 1" xmlns="http://www.w3.org/2000/svg" width="150.3" height="150.3" viewBox="0 0 150.3 150.3"><title>insta</title><rect width="150.3" height="150.3" rx="72.94" ry="72.94" style="fill:#cc1250"/><path d="M185.36,1015.26h-42.6a26.27,26.27,0,0,0-26.23,26.24v42.6a26.27,26.27,0,0,0,26.23,26.24h42.6a26.27,26.27,0,0,0,26.24-26.24v-42.6a26.26,26.26,0,0,0-26.24-26.24h0Zm17.8,68.83a17.82,17.82,0,0,1-17.8,17.8h-42.6a17.82,17.82,0,0,1-17.8-17.8v-42.6a17.82,17.82,0,0,1,17.8-17.8h42.6a17.82,17.82,0,0,1,17.8,17.8v42.6Zm0,0" transform="translate(-88.91 -987.64)" style="fill:#fff"/><path d="M164.06,1038.3a24.5,24.5,0,1,0,24.5,24.5,24.52,24.52,0,0,0-24.5-24.5h0Zm0,40.56a16.06,16.06,0,1,1,16.06-16.06,16.08,16.08,0,0,1-16.06,16.06h0Zm0,0" transform="translate(-88.91 -987.64)" style="fill:#fff"/><path d="M189.59,1031.14A6.18,6.18,0,1,0,194,1033a6.21,6.21,0,0,0-4.37-1.81h0Zm0,0" transform="translate(-88.91 -987.64)" style="fill:#fff"/></svg>