<svg id="Слой_1" data-name="Слой 1" xmlns="http://www.w3.org/2000/svg" width="150.3" height="150.3" viewBox="0 0 150.3 150.3"><title>tripadv</title><rect width="150.3" height="150.3" rx="72.94" ry="72.94" style="fill:#87bf51"/><path d="M707.71,1030.94a55.53,55.53,0,0,1,8.51,2,58.27,58.27,0,0,1,13.81,6.3,2.12,2.12,0,0,0,1.06.31c5.08,0,10.17,0,15.25,0,0.41,0,.82,0,1.22.07a0.46,0.46,0,0,1,0,.16l-0.72,1.09a31.19,31.19,0,0,0-4.07,8.47,1,1,0,0,0,.11.93,25.92,25.92,0,0,1-7.32,37.05,25.56,25.56,0,0,1-13.79,4,24.07,24.07,0,0,1-6.19-.79,26,26,0,0,1-12.71-7.5c-0.46-.49-0.9-1-1.39-1.56l-5.54,8.26-5.45-8.14a1.22,1.22,0,0,0-.18.1l-0.11.11a25.67,25.67,0,0,1-16.05,9.09,25.07,25.07,0,0,1-10.69-.6,26,26,0,0,1-18.79-21,25,25,0,0,1,.46-10.24,26.06,26.06,0,0,1,4-8.76,1,1,0,0,0,.12-0.75,28.93,28.93,0,0,0-3.63-7.81c-0.39-.62-0.86-1.2-1.3-1.8v-0.21l0.26,0h15.6a1.32,1.32,0,0,0,.67-0.22,56.08,56.08,0,0,1,11.64-5.65,63.1,63.1,0,0,1,9-2.45,72.32,72.32,0,0,1,9-1.18,76.25,76.25,0,0,1,17.17.76h0Zm-6.52,34.35a20.65,20.65,0,1,0,20.21-20.56,20.67,20.67,0,0,0-20.21,20.56h0Zm-31-20.64a20.62,20.62,0,1,0,20.67,20.71,20.64,20.64,0,0,0-20.67-20.71h0Zm1-5.39A26.34,26.34,0,0,1,696,1061.77a26.24,26.24,0,0,1,24.41-22.39,58.72,58.72,0,0,0-23-4.79,63.69,63.69,0,0,0-26.22,4.68h0Zm0,0h0Z" transform="translate(-620.89 -987.64)" style="fill:#fff"/><path d="M721.79,1052.26A12.79,12.79,0,1,1,709,1065a12.75,12.75,0,0,1,12.82-12.78h0Zm8.34,12.78a8.36,8.36,0,0,0-16.72,0,8.36,8.36,0,1,0,16.72,0h0Zm0,0h0Z" transform="translate(-620.89 -987.64)" style="fill:#fff"/><path d="M669.94,1052.26A12.79,12.79,0,1,1,657.11,1065a12.74,12.74,0,0,1,12.83-12.76h0Zm8.33,12.75a8.36,8.36,0,0,0-16.73,0,8.36,8.36,0,1,0,16.73,0h0Zm0,0h0Z" transform="translate(-620.89 -987.64)" style="fill:#fff"/><path d="M721.8,1060.8a4.24,4.24,0,1,1-4.25,4.28,4.24,4.24,0,0,1,4.25-4.28h0Zm0,0h0Z" transform="translate(-620.89 -987.64)" style="fill:#fff"/><path d="M669.92,1060.76a4.28,4.28,0,1,1,0,8.55,4.28,4.28,0,1,1,0-8.55h0Zm0,0h0Z" transform="translate(-620.89 -987.64)" style="fill:#fff"/></svg>