<svg id="Слой_1" data-name="Слой 1" xmlns="http://www.w3.org/2000/svg" xmlns:xlink="http://www.w3.org/1999/xlink" width="150.3" height="150.3" viewBox="0 0 150.3 150.3"><defs><clipPath id="clip-path" transform="translate(88.41 -987.64)"><rect x="-66.2" y="1032.48" width="105.88" height="60.63" style="fill:none"/></clipPath></defs><title>vk</title><rect width="150.3" height="150.3" rx="72.94" ry="72.94" style="fill:#10659e"/><g style="clip-path:url(#clip-path)"><path d="M39,1087a7.3,7.3,0,0,0-.36-0.69q-2.75-5-10.52-12.17L28,1074,28,1074l-0.06-.06H27.88q-3.52-3.36-4.46-4.52a4.24,4.24,0,0,1-.77-4.46q0.66-1.71,5-7.22,2.26-2.92,3.58-4.68,9.53-12.67,8.26-16.19l-0.33-.55a3.22,3.22,0,0,0-1.71-.91,8.67,8.67,0,0,0-3.53-.14l-15.86.11a2.05,2.05,0,0,0-1.1,0l-0.72.17-0.28.14-0.22.17a2.44,2.44,0,0,0-.61.58,3.75,3.75,0,0,0-.55,1,90,90,0,0,1-5.89,12.39q-2,3.42-3.75,5.92A28.5,28.5,0,0,1,2,1059.41a19.88,19.88,0,0,1-2.09,1.9,2,2,0,0,1-1.43.61l-0.94-.22a3.67,3.67,0,0,1-1.24-1.35,6,6,0,0,1-.63-2.15q-0.17-1.3-.19-2.23t0-2.64c0-1.14.06-1.91,0.06-2.31q0-2.09.08-4.54t0.14-3.88q0.06-1.43.05-3a12.73,12.73,0,0,0-.19-2.51,8.54,8.54,0,0,0-.58-1.76A3,3,0,0,0-6,1034a6.36,6.36,0,0,0-1.85-.74,36.66,36.66,0,0,0-7.44-.72q-10.24-.11-13.16,1.32a7.4,7.4,0,0,0-2.09,1.65q-1,1.21-.28,1.32a6.75,6.75,0,0,1,4.68,2.37l0.33,0.66a10.54,10.54,0,0,1,.77,2.53,25.51,25.51,0,0,1,.5,4,42.79,42.79,0,0,1,0,6.88q-0.28,2.87-.52,4.46a8.91,8.91,0,0,1-.74,2.59,10.91,10.91,0,0,1-.66,1.21,0.93,0.93,0,0,1-.28.28,4.13,4.13,0,0,1-1.49.28,3.49,3.49,0,0,1-1.87-.77,13.21,13.21,0,0,1-2.29-2.12,28.41,28.41,0,0,1-2.67-3.77q-1.49-2.42-3.08-5.73l-0.88-1.6q-0.83-1.54-2.26-4.49t-2.53-5.7a3.63,3.63,0,0,0-1.32-1.76l-0.28-.17a3.76,3.76,0,0,0-.88-0.47,5.86,5.86,0,0,0-1.27-.36l-15.09.11q-2.31,0-3.14,1l-0.22.33a1.78,1.78,0,0,0-.17.88,4.38,4.38,0,0,0,.33,1.49q3.3,7.77,7.19,15t6.75,11.62q2.86,4.41,5.84,8.32t3.94,5q1,1.1,1.52,1.65l1.38,1.32a32.68,32.68,0,0,0,3.88,3.17,66.13,66.13,0,0,0,5.67,3.64,30.79,30.79,0,0,0,7.24,2.92,25,25,0,0,0,8,.91h6.33a4.39,4.39,0,0,0,2.92-1.21l0.22-.28a3.66,3.66,0,0,0,.41-1,5.59,5.59,0,0,0,.19-1.52,18.19,18.19,0,0,1,.36-4.27,11.25,11.25,0,0,1,.94-2.86,7,7,0,0,1,1.18-1.62,4.76,4.76,0,0,1,.94-0.8,3.59,3.59,0,0,1,.44-0.19,3.5,3.5,0,0,1,3.11.85,18.29,18.29,0,0,1,3.36,3.2q1.57,1.9,3.77,4.27a25.91,25.91,0,0,0,3.86,3.53l1.1,0.66a13.44,13.44,0,0,0,2.87,1.21,6.17,6.17,0,0,0,3.08.28l14.1-.22a6.39,6.39,0,0,0,3.25-.69,2.73,2.73,0,0,0,1.38-1.51,4.27,4.27,0,0,0,0-1.87A7,7,0,0,0,39,1087h0Zm0,0" transform="translate(88.41 -987.64)" style="fill:#fff"/></g></svg>