<svg id="Слой_1" data-name="Слой 1" xmlns="http://www.w3.org/2000/svg" width="150.3" height="150.3" viewBox="0 0 150.3 150.3"><title>youtube</title><rect width="150.3" height="150.3" rx="72.94" ry="72.94" style="fill:#ed1c24"/><path d="M383.82,1036c-3.32-4-9.46-5.56-21.17-5.56H320.13c-12,0-18.22,1.71-21.53,5.92s-3.23,10.14-3.23,18.5v15.93c0,16.19,3.83,24.42,24.76,24.42h42.52c10.16,0,15.79-1.42,19.43-4.91s5.33-9.41,5.33-19.51v-15.93C387.41,1046,387.16,1039.93,383.82,1036Zm-29.36,29-19.31,10.09a3,3,0,0,1-4.34-2.63v-20.12a3,3,0,0,1,4.34-2.64l19.31,10A3,3,0,0,1,354.46,1065Z" transform="translate(-266.24 -987.64)" style="fill:#fff"/></svg>