<svg id="Layer_1" data-name="Layer 1" xmlns="http://www.w3.org/2000/svg" width="49.87" height="44.35" viewBox="0 0 49.87 44.35"><title>circles2</title><path d="M88.43,318.8A6.52,6.52,0,1,1,95,312.28,6.53,6.53,0,0,1,88.43,318.8Zm0-12A5.52,5.52,0,1,0,94,312.28,5.53,5.53,0,0,0,88.43,306.76Z" transform="translate(-45.08 -305.76)" style="fill:#cd2a8f"/><g style="opacity:0.8"><path d="M57.63,350.1a12.54,12.54,0,1,1,12.54-12.54A12.56,12.56,0,0,1,57.63,350.1Zm0-24.09a11.54,11.54,0,1,0,11.54,11.54A11.56,11.56,0,0,0,57.63,326Z" transform="translate(-45.08 -305.76)" style="fill:#e93637"/></g></svg>