<svg id="Layer_1" data-name="Layer 1" xmlns="http://www.w3.org/2000/svg" width="64.22" height="43.33" viewBox="0 0 64.22 43.33"><title>circles1</title><path d="M584.88,568.79a6.52,6.52,0,1,1,6.52-6.52A6.53,6.53,0,0,1,584.88,568.79Zm0-12a5.52,5.52,0,1,0,5.52,5.52A5.53,5.53,0,0,0,584.88,556.74Z" transform="translate(-527.19 -555.74)" style="fill:#cd2a8f"/><path d="M539.73,597.51A12.54,12.54,0,1,1,552.28,585,12.56,12.56,0,0,1,539.73,597.51Zm0-24.09A11.54,11.54,0,1,0,551.28,585,11.56,11.56,0,0,0,539.73,573.42Z" transform="translate(-527.19 -555.74)" style="fill:#03b9db"/><circle cx="46.66" cy="35.83" r="7.51" style="fill:#f5b201"/></svg>