<svg id="Слой_1" data-name="Слой 1" xmlns="http://www.w3.org/2000/svg" width="22.13" height="8.88" viewBox="0 0 22.13 8.88"><title>clouds</title><path d="M-107.63,147.17v0.4a0.86,0.86,0,0,1-.86.85h-2.71a0.58,0.58,0,0,1,0,.19V149a0.85,0.85,0,0,1-.37.7h1.77a0.86,0.86,0,0,1,.85.86V151a0.86,0.86,0,0,1-.85.86h-14.05a0.87,0.87,0,0,1-.86-0.86v-0.39a0.87,0.87,0,0,1,.86-0.86h7.47a0.85,0.85,0,0,1-.37-0.7v-0.39a0.58,0.58,0,0,1,0-.19H-128.9a0.86,0.86,0,0,1-.86-0.85v-0.4a0.86,0.86,0,0,1,.86-0.85h2.72a0.49,0.49,0,0,1,0-.12v-0.4a0.84,0.84,0,0,1,.5-0.77h-0.9a0.86,0.86,0,0,1-.86-0.85v-0.4a0.86,0.86,0,0,1,.86-0.85h14a0.85,0.85,0,0,1,.85.85v0.4a0.85,0.85,0,0,1-.85.85h-8.61a0.84,0.84,0,0,1,.5.77v0.4a0.49,0.49,0,0,1,0,.12h12.17A0.86,0.86,0,0,1-107.63,147.17Z" transform="translate(129.76 -142.93)" style="fill:#e5e5e5"/></svg>