<svg id="Layer_1" data-name="Layer 1" xmlns="http://www.w3.org/2000/svg" width="68.79" height="40.66" viewBox="0 0 68.79 40.66"><title>triangles circle</title><polygon points="18.36 40.66 21.73 34.78 25.09 28.9 28.5 34.76 31.9 40.61 25.13 40.63 18.36 40.66" style="fill:#cd2a8f"/><polygon points="40.95 30.69 47.87 18.6 54.78 6.52 61.79 18.56 68.8 30.59 54.87 30.64 40.95 30.69" style="fill:#cd2a8f"/><path d="M54,44a6.52,6.52,0,1,1,6.52-6.52A6.53,6.53,0,0,1,54,44Zm0-12a5.52,5.52,0,1,0,5.52,5.52A5.53,5.53,0,0,0,54,32Z" transform="translate(-47.48 -30.98)" style="fill:#f5b201"/></svg>