<svg id="Слой_1" data-name="Слой 1" xmlns="http://www.w3.org/2000/svg" width="54.66" height="54.65" viewBox="0 0 54.66 54.65"><title>X</title><path d="M-100.61,299.07a5.5,5.5,0,0,1,0,7.78,5.46,5.46,0,0,1-3.89,1.61,5.45,5.45,0,0,1-3.89-1.61l-17.93-17.93-17.94,17.93a5.48,5.48,0,0,1-3.89,1.61,5.45,5.45,0,0,1-3.89-1.61,5.5,5.5,0,0,1,0-7.78l17.94-17.93L-152,263.2a5.5,5.5,0,0,1,0-7.78,5.5,5.5,0,0,1,7.78,0l17.94,17.94,17.93-17.94a5.5,5.5,0,0,1,7.78,0,5.5,5.5,0,0,1,0,7.78l-17.93,17.94Z" transform="translate(153.65 -253.81)" style="fill:#f1f2f2"/></svg>