<svg id="Слой_1" data-name="Слой 1" xmlns="http://www.w3.org/2000/svg" width="54.66" height="54.65" viewBox="0 0 54.66 54.65"><title>X dark</title><path d="M-100.61,226.1a5.5,5.5,0,0,1,0,7.78,5.51,5.51,0,0,1-3.89,1.61,5.49,5.49,0,0,1-3.89-1.61L-126.32,216l-17.94,17.93a5.52,5.52,0,0,1-3.89,1.61,5.49,5.49,0,0,1-3.89-1.61,5.5,5.5,0,0,1,0-7.78l17.94-17.93L-152,190.23a5.5,5.5,0,0,1,0-7.78,5.5,5.5,0,0,1,7.78,0l17.94,17.94,17.93-17.94a5.5,5.5,0,0,1,7.78,0,5.5,5.5,0,0,1,0,7.78l-17.93,17.94Z" transform="translate(153.65 -180.84)" style="fill:#414042"/></svg>