<svg id="Слой_1" data-name="Слой 1" xmlns="http://www.w3.org/2000/svg" width="357.55" height="387.66" viewBox="0 0 357.55 387.66"><title>с актером</title><path d="M1738.46,981.2a11.65,11.65,0,0,0-11.76.21c-53.71,32.63-109,49.17-164.27,49.17h0a278.65,278.65,0,0,1-86.71-14,0.76,0.76,0,0,1-.2-0.06c-18.29-5.25-38-15.42-42.07-17.6a2.24,2.24,0,0,0-.38-0.19,1.34,1.34,0,0,0-.26-0.14l-0.14-.07c-17-8.88-26.51-16.19-26.74-16.36a11.66,11.66,0,0,0-18.85,9.16v135.5l-0.22.12v28.75c0.08,0,.14-0.09.22-0.14v39.16c0,95.19,77.44,172.62,172.63,172.62h12.07c95.19,0,172.63-77.43,172.63-172.62V991.36A11.68,11.68,0,0,0,1738.46,981.2Zm-17.37,213.55c0,82.34-67,149.33-149.33,149.33h-12.07c-82.34,0-149.33-67-149.33-149.33V1013a303.27,303.27,0,0,0,152.05,40.89h0c53.5,0,106.79-14.24,158.66-42.39v183.27Z" transform="translate(-1386.85 -979.71)"/><path d="M1547.07,1143.29a11.14,11.14,0,1,1-22.29,0,21.54,21.54,0,0,0-43.07,0,11.15,11.15,0,1,1-22.3,0A43.83,43.83,0,0,1,1547.07,1143.29Z" transform="translate(-1386.85 -979.71)"/><path d="M1672,1143.29a11.14,11.14,0,1,1-22.28,0,21.54,21.54,0,0,0-43.08,0,11.14,11.14,0,1,1-22.28,0A43.82,43.82,0,1,1,1672,1143.29Z" transform="translate(-1386.85 -979.71)"/><path d="M1648,1215.39a82.28,82.28,0,0,1-164.56,0,11.15,11.15,0,0,1,22.31,0,60,60,0,1,0,120,0A11.14,11.14,0,1,1,1648,1215.39Z" transform="translate(-1386.85 -979.71)"/></svg>