<svg id="Слой_1" data-name="Слой 1" xmlns="http://www.w3.org/2000/svg" width="347.25" height="416.6" viewBox="0 0 347.25 416.6"><title>количество игроков</title><path d="M1209.54,1206.83s0,0,0,0l-1-.47c-2.68-1.21-5.22-2.29-7.74-3.27-2.76-1.11-5.69-2.19-8.73-3.21-2.07-.68-4.3-1.37-7-2.17-3.76-1.08-7.35-2-11-2.82-1.28-.27-2.58-0.52-3.82-0.74l-0.86-.17c-2.26-.44-4.52-0.82-6.66-1.14l-0.52-.08-0.28,0-0.57-.08c-1.64-.24-3.59-0.52-5.66-0.76h-0.11l-6.5-.53a179.67,179.67,0,0,0-24.45.06l-6.09.53c-2.33.24-4.79,0.57-7.45,1l-0.79.11c-1.69.28-3.38,0.6-5,.9-1.85.33-3.67,0.69-5.56,1.1-3.49.79-7,1.7-10.47,2.7-2.56.73-5.22,1.58-8,2.52l-1.7.61c-5.32,1.88-10.63,4-15.81,6.45l-1.34.64-0.29.16c-59.9,28.79-98.59,90.16-98.59,156.42,0,1.52.1,3,.19,4.42l0.45,10.51a3.5,3.5,0,0,0,3.5,3.36h339a3.51,3.51,0,0,0,3.5-3.35l0.45-10.14c0.1-1.5.2-3.11,0.2-4.8A174.17,174.17,0,0,0,1209.54,1206.83ZM987.18,1359.17c2-55.66,35.4-106.46,85.82-130.16l1.59-.62a3.41,3.41,0,0,0,.87-0.49c3.92-1.77,7.93-3.38,11.94-4.79l1.35-.47c2.39-.84,4.66-1.55,7-2.21,2.93-.86,6-1.64,9-2.31,1.57-.34,3.15-0.66,4.76-1l0.48-.09c1.12-.2,2.25-0.41,3.45-0.6l0.57-.11c2.83-.44,5-0.73,6.9-0.94l5.38-.47a141.72,141.72,0,0,1,21.61,0l5.23,0.43c1.26,0.15,2.52.32,4,.53l1.89,0.28c1.82,0.26,3.73.58,5.82,1l1,0.18c1.09,0.2,2.18.41,3.18,0.62,2.9,0.63,6,1.43,9.45,2.43,2.41,0.7,4.35,1.3,6.11,1.88,2.43,0.81,5,1.73,7.52,2.75,2.32,0.91,4.69,1.92,7,3l0.42,0.2a150.77,150.77,0,0,1,87.52,131H987.18Z" transform="translate(-963.48 -966.21)"/><path d="M1137.33,966.21a109.62,109.62,0,0,0-109.22,102.63l-0.09,1.35c-0.12,1.62-.25,3.54-0.25,5.56a109.35,109.35,0,0,0,66.89,100.93h0c1.31,0.55,2.65,1,4,1.5l2.64,1c1.06,0.4,2.19.83,3.36,1.19a108.58,108.58,0,0,0,31.78,5h0.91a109.7,109.7,0,0,0,11-.56c1.32-.13,2.54-0.33,3.71-0.53l2.54-.38c1.25-.17,2.91-0.4,4.7-0.75,1.17-.24,2.29-0.54,3.23-0.8l2.81-.71c1.36-.33,2.89-0.7,4.43-1.18,1-.31,2-0.67,2.68-1l2.24-.81c1.62-.56,3.35-1.17,5.15-1.92,0.7-.3,1.38-0.62,2.06-1l0.68-.33c2.19-1,4.55-2.06,6.88-3.32l0.14-.08,1.38-.82c2.42-1.37,5-2.9,7.73-4.74,1.36-.92,2.61-1.91,4-3l4.26-3.31,0.08-.06c25.26-20.91,39.76-51.29,39.79-83.37l0-.78a1.48,1.48,0,0,0,0-.21A109.67,109.67,0,0,0,1137.33,966.21Zm0,23.62c47.33,0,85.88,38.15,86,85.06l0,0.78v0.19a86.05,86.05,0,0,1-31.31,66.13l-3.89,3-0.09.07c-0.87.71-1.67,1.35-2.64,2-1.91,1.31-4,2.51-6,3.64l-0.09.05-1.11.68c-1.69.9-3.49,1.71-5.33,2.53l-0.1,0-2.1,1c-1.08.44-2.2,0.84-3.4,1.25l-3.34,1.21c-0.36.14-.73,0.28-1.12,0.4-0.73.23-1.51,0.42-2.34,0.62l-4.34,1.11c-0.52.14-1,.28-1.42,0.36-0.92.18-1.87,0.31-2.87,0.45l-3.57.54c-0.72.12-1.4,0.24-2.16,0.31-2.61.28-5.32,0.43-8,.46h-0.83a85.69,85.69,0,0,1-25.52-3.87c-0.52-.17-1-0.37-1.53-0.56l-3.91-1.43c-0.86-.3-1.68-0.59-2.43-0.9a85.81,85.81,0,0,1-52.47-79.18c0-1.18.09-2.37,0.18-3.63l0-.27v0l0.1-1.51A86,86,0,0,1,1137.32,989.83Z" transform="translate(-963.48 -966.21)"/></svg>