<svg id="Слой_1" data-name="Слой 1" xmlns="http://www.w3.org/2000/svg" width="309.36" height="418.61" viewBox="0 0 309.36 418.61"><title>кровь</title><path d="M2101,1147.47c-2.32-3.32-7.22-9.48-7.68-10l-0.14-.15c-81.53-89.7-101.65-141.6-105.88-155.37a13.7,13.7,0,0,0-26.22,0c-4.22,13.78-24.38,65.73-106.21,155.79l-0.2.23c-0.2.25-5,6.25-7.27,9.54a155.31,155.31,0,0,0-27.12,104.25c7.08,72.08,64.43,130.16,136.36,138.1a163.73,163.73,0,0,0,17.79,1,152.06,152.06,0,0,0,102.94-39.45A154.71,154.71,0,0,0,2101,1147.47Zm2.51,88.62a129.51,129.51,0,0,1-43.07,96.35c-27.75,24.86-63.64,36.27-101,32.14-60.07-6.64-108-55.15-113.88-115.35a129.94,129.94,0,0,1,22.65-87.21c1.52-2.16,4.46-5.92,5.57-7.34,0.1-.12.21-0.27,0.33-0.43,56.83-62.53,85.6-108.43,100.1-137.91,14.48,29.44,43.16,75.23,99.76,137.49,1.08,1.36,4.56,5.77,6.25,8.19A128.53,128.53,0,0,1,2103.5,1236.09Z" transform="translate(-1819.52 -972.19)"/><path d="M1962.71,1346.46a11.66,11.66,0,0,1-1.51-.1c-46.37-6.09-70.54-32.73-82.64-54a122.3,122.3,0,0,1-15.07-45,11.5,11.5,0,0,1,22.9-2.1c0.29,3,7.58,69.06,77.8,78.28A11.5,11.5,0,0,1,1962.71,1346.46Z" transform="translate(-1819.52 -972.19)"/></svg>