<svg id="Слой_1" data-name="Слой 1" xmlns="http://www.w3.org/2000/svg" width="313.91" height="86.67" viewBox="0 0 313.91 86.67"><title>callback banner</title><path d="M697.52,640.68v68.06c0,5.14-3.08,9.3-6.89,9.3H390.51c-3.81,0-6.9-4.16-6.9-9.3V640.68c0-5.15,3.09-9.31,6.9-9.31H690.63C694.44,631.37,697.52,635.53,697.52,640.68Z" transform="translate(-383.61 -631.37)" style="fill:#39b54a"/><g style="opacity:0.65"><path d="M697.52,648.81v10l-4.88,8.45a6.94,6.94,0,0,1-9.48,2.54l-35.87-20.71a6.95,6.95,0,0,1-2.54-9.48l4.76-8.23h5.77l-6.2,10.73a2,2,0,0,0-.19,1.48,1.9,1.9,0,0,0,.9,1.17l35.87,20.71a2,2,0,0,0,1.48.2,1.91,1.91,0,0,0,1.17-.91Z" transform="translate(-383.61 -631.37)" style="fill:#fff"/></g><g style="opacity:0.2"><rect x="602.86" y="686.68" width="17.49" height="2.34" rx="0.8" ry="0.8" transform="translate(839.61 744.33) rotate(-180)" style="fill:#f1f2f2"/><rect x="612.81" y="688.45" width="6.15" height="2.34" rx="0.8" ry="0.8" transform="translate(848.16 747.86) rotate(180)" style="fill:#f1f2f2"/><rect x="602.35" y="692.28" width="6.15" height="2.34" rx="0.8" ry="0.8" transform="translate(827.24 755.52) rotate(180)" style="fill:#f1f2f2"/><rect x="598.36" y="690.44" width="24.56" height="2.34" rx="0.8" ry="0.8" transform="translate(837.67 751.85) rotate(-180)" style="fill:#f1f2f2"/><rect x="599.79" y="694.2" width="17.49" height="2.34" rx="0.8" ry="0.8" transform="translate(833.45 759.37) rotate(-180)" style="fill:#f1f2f2"/></g><path d="M679.67,710.82a0.5,0.5,0,0,1-.36-0.15l-4.86-5.06a0.5,0.5,0,1,1,.72-0.69L680,710A0.5,0.5,0,0,1,679.67,710.82Z" transform="translate(-383.61 -631.37)" style="fill:#fbb040"/><path d="M674.71,710.71a0.5,0.5,0,0,1-.35-0.86l5.06-4.86a0.5,0.5,0,0,1,.69.72l-5.06,4.86A0.5,0.5,0,0,1,674.71,710.71Z" transform="translate(-383.61 -631.37)" style="fill:#fbb040"/><g style="opacity:0.25"><path d="M391.47,679.68a3.36,3.36,0,0,0-.18,6.71A33.81,33.81,0,0,0,426,653.48a3.36,3.36,0,0,0-6.71-.18A27.1,27.1,0,0,1,391.47,679.68Z" transform="translate(-383.61 -631.37)" style="fill:#fff"/><path d="M427.18,689.48A50.51,50.51,0,0,0,443,653.93a3.36,3.36,0,0,0-6.71-.18,44.13,44.13,0,0,1-45.27,43,3.36,3.36,0,0,0-.18,6.71A50.51,50.51,0,0,0,427.18,689.48Z" transform="translate(-383.61 -631.37)" style="fill:#fff"/><path d="M409,653a3.36,3.36,0,1,0-6.71-.18h0a9.74,9.74,0,0,1-3.13,7,9.87,9.87,0,0,1-7.19,2.76,3.36,3.36,0,0,0-3.44,3.27h0a3.36,3.36,0,0,0,3.27,3.44A16.78,16.78,0,0,0,409,653h0Z" transform="translate(-383.61 -631.37)" style="fill:#fff"/></g><path d="M416.5,647.67l-0.21,0a1,1,0,0,1-.77-1.19l1.51-7a1,1,0,1,1,2,.42l-1.51,7A1,1,0,0,1,416.5,647.67Z" transform="translate(-383.61 -631.37)" style="fill:#f9ed32"/><path d="M420.77,644.91l-0.21,0-7-1.51a1,1,0,0,1,.42-2l7,1.51A1,1,0,0,1,420.77,644.91Z" transform="translate(-383.61 -631.37)" style="fill:#f9ed32"/><g style="opacity:0.4"><rect x="57.36" y="74.83" width="13.35" height="1.78" rx="0.8" ry="0.8" style="fill:#f1f2f2"/><rect x="58.42" y="76.18" width="4.7" height="1.78" rx="0.8" ry="0.8" style="fill:#f1f2f2"/><rect x="66.41" y="79.1" width="4.7" height="1.78" rx="0.8" ry="0.8" style="fill:#f1f2f2"/><rect x="55.4" y="77.7" width="18.74" height="1.78" rx="0.8" ry="0.8" style="fill:#f1f2f2"/><rect x="59.71" y="80.57" width="13.35" height="1.78" rx="0.8" ry="0.8" style="fill:#f1f2f2"/></g><g style="opacity:0.65"><circle cx="289.47" cy="13.13" r="4.17" style="fill:#fff"/></g><path d="M425.07,680.58l-0.07.1a0.55,0.55,0,0,1-.78.07l-3-2.57a0.55,0.55,0,1,1,.71-0.85l3,2.57A0.55,0.55,0,0,1,425.07,680.58Z" transform="translate(-383.61 -631.37)" style="fill:#f9ed32"/><path d="M424.83,677.78l-0.07.1-2.57,3a0.55,0.55,0,0,1-.85-0.71l2.57-3A0.55,0.55,0,0,1,424.83,677.78Z" transform="translate(-383.61 -631.37)" style="fill:#f9ed32"/></svg>