<svg xmlns="http://www.w3.org/2000/svg" viewBox="0 0 48.5 48.5"><defs><style>.cls-1{fill:#fff;stroke:#fff;stroke-miterlimit:10;stroke-width:0.5px;}</style></defs><title>Ресурс 1</title><g id="Слой_2" data-name="Слой 2"><g id="Слой_1-2" data-name="Слой 1"><path class="cls-1" d="M24.25.25a24,24,0,1,0,24,24,24,24,0,0,0-24-24Zm0,46.15A22.15,22.15,0,1,1,46.4,24.25,22.18,22.18,0,0,1,24.25,46.4Zm0,0"/><path class="cls-1" d="M33.21,15.29a.92.92,0,0,0-1.31,0l-7.65,7.65-7.66-7.65a.92.92,0,1,0-1.3,1.3l7.65,7.66L15.29,31.9a.92.92,0,0,0,.65,1.58.91.91,0,0,0,.65-.27l7.66-7.66,7.65,7.66a.92.92,0,0,0,1.31-1.31l-7.66-7.65,7.66-7.66a.92.92,0,0,0,0-1.3Zm0,0"/></g></g></svg>