<svg id="Слой_1" data-name="Слой 1" xmlns="http://www.w3.org/2000/svg" width="48.33" height="48.3" viewBox="0 0 48.33 48.3"><title>compass</title><path d="M1507.72,655.25h-2.19A23.56,23.56,0,1,0,1507.72,655.25Zm-1.1,45.22a21.68,21.68,0,1,1,21.68-21.69A21.71,21.71,0,0,1,1506.62,700.47Z" transform="translate(-1482.46 -654.65)" style="stroke:#029a55;stroke-miterlimit:10;stroke-width:1.2000000476837158px"/><path d="M1519.71,665.7a1.55,1.55,0,0,0-1.78-.3l-16,8-0.12.09a1.15,1.15,0,0,0-.22.19,1,1,0,0,0-.19.22l-8.12,16.16a1.54,1.54,0,0,0,1.38,2.23,1.5,1.5,0,0,0,.7-0.16l15.92-8,0.17-.08,0.06-.06a0.9,0.9,0,0,0,.2-0.18,0.73,0.73,0,0,0,.19-0.21l8.14-16.19A1.52,1.52,0,0,0,1519.71,665.7Zm-14.48,9.51,9.94-5-5,9.94Zm-7.16,12.12,5-9.94,5,5Z" transform="translate(-1482.46 -654.65)" style="fill:#029a55"/></svg>