<svg id="Слой_1" data-name="Слой 1" xmlns="http://www.w3.org/2000/svg" width="316.76" height="86.67" viewBox="0 0 316.76 86.67"><title>play banner</title><path d="M697.52,513V581c0,5.14-3.08,9.3-6.89,9.3H390.51c-3.81,0-6.9-4.16-6.9-9.3V513c0-5.15,3.09-9.31,6.9-9.31H690.76a5.28,5.28,0,0,1,2.48.69C695.75,505.74,697.52,509.08,697.52,513Z" transform="translate(-383.61 -503.67)" style="fill:#ee2a7b"/><g style="opacity:0.5"><path d="M663.41,518.16l-3.47-1.56,1.56-3.47a3.8,3.8,0,1,0-6.94-3.11L653,513.49l-3.47-1.56a3.8,3.8,0,0,0-3.12,6.94l3.47,1.56-1.55,3.47a3.8,3.8,0,1,0,6.94,3.12l1.56-3.47,3.47,1.55A3.8,3.8,0,1,0,663.41,518.16Zm-0.4,4a1.26,1.26,0,0,1-1.67.64l-4.63-2.08a1.28,1.28,0,0,0-1.68.64L653,526a1.27,1.27,0,1,1-2.31-1l2.08-4.63a1.26,1.26,0,0,0-.64-1.67l-4.63-2.08a1.27,1.27,0,1,1,1-2.31l4.63,2.07a1.26,1.26,0,0,0,1.67-.64l2.08-4.62a1.26,1.26,0,1,1,2.31,1l-2.07,4.63a1.27,1.27,0,0,0,.64,1.68l4.62,2.08A1.26,1.26,0,0,1,663,522.15Z" transform="translate(-383.61 -503.67)" style="fill:#fff"/><path d="M697.41,516.73l-8.1-3.63,3.93-8.74a5.28,5.28,0,0,0-2.48-.69l-4.28,9.55a1.26,1.26,0,0,0,.64,1.67l9.26,4.16q0.59,0.27,1.14.57v-2.84Zm-1.07,42.69c-1.65,3.68-6,4.19-8.36,3.12-3.35-1.5-4.37-4.58-5.65-8.47-1.86-5.62-4.17-12.61-14.73-17.35s-17.29-1.81-22.7.54c-3.77,1.64-6.75,2.93-10.15,1.41-2.41-1.09-4.8-4.8-3.19-8.39l8.31-18.51a16.34,16.34,0,0,1,8.08-8.1h-4.82a18.52,18.52,0,0,0-5.58,7.06l-8.3,18.52A9.12,9.12,0,0,0,633.71,541c4.42,2,8.2.34,12.2-1.39,5.22-2.26,11.13-4.83,20.65-.56s11.57,10.42,13.36,15.84c1.36,4.13,2.65,8,7,10a9.21,9.21,0,0,0,10.57-2.57v-5.5Zm-12.17-47.24a1.28,1.28,0,0,0-.64-1.68l-15.23-6.83h-6.19l20.38,9.15A1.28,1.28,0,0,0,684.17,512.18Z" transform="translate(-383.61 -503.67)" style="fill:#fff"/><path d="M698.13,533.73a3.68,3.68,0,0,0-.61-0.21,3.81,3.81,0,0,0-2.51,7.16,3.71,3.71,0,0,0,2.51.2A3.8,3.8,0,0,0,698.13,533.73Zm-0.4,4a1.42,1.42,0,0,1-.21.33A1.27,1.27,0,1,1,697.73,537.72Z" transform="translate(-383.61 -503.67)" style="fill:#fff"/><path d="M694.3,523.68a3.8,3.8,0,1,0,1.91,5A3.81,3.81,0,0,0,694.3,523.68Zm-0.4,4a1.27,1.27,0,0,1-1.68.63A1.27,1.27,0,1,1,693.9,527.67Z" transform="translate(-383.61 -503.67)" style="fill:#fff"/><path d="M684.24,527.5a3.81,3.81,0,1,0,1.92,5A3.83,3.83,0,0,0,684.24,527.5Zm-0.4,4a1.26,1.26,0,1,1-.64-1.67A1.26,1.26,0,0,1,683.84,531.49Z" transform="translate(-383.61 -503.67)" style="fill:#fff"/><path d="M688.07,537.56a3.81,3.81,0,1,0,1.92,5A3.81,3.81,0,0,0,688.07,537.56Zm-0.4,4a1.27,1.27,0,1,1-.64-1.67A1.27,1.27,0,0,1,687.67,541.55Z" transform="translate(-383.61 -503.67)" style="fill:#fff"/></g><rect x="405.17" y="572.07" width="17.02" height="2.27" rx="0.8" ry="0.8" transform="translate(443.74 642.75) rotate(-180)" style="fill:#f9ed32"/><rect x="414.84" y="573.79" width="5.99" height="2.27" rx="0.8" ry="0.8" transform="translate(452.06 646.18) rotate(180)" style="fill:#f9ed32"/><rect x="404.66" y="577.52" width="5.99" height="2.27" rx="0.8" ry="0.8" transform="translate(431.7 653.64) rotate(180)" style="fill:#f9ed32"/><rect x="400.79" y="575.73" width="23.89" height="2.27" rx="0.8" ry="0.8" transform="translate(441.86 650.07) rotate(-180)" style="fill:#f9ed32"/><rect x="402.17" y="579.39" width="17.02" height="2.27" rx="0.8" ry="0.8" transform="translate(437.75 657.38) rotate(-180)" style="fill:#f9ed32"/><circle cx="299" cy="27.3" r="3.96" style="fill:#fbb040"/><circle cx="400.71" cy="518.52" r="3.96" transform="translate(-456.57 -437.99) rotate(-8.59)" style="fill:#f1f2f2"/><path d="M433.86,538.65h-0.11a0.5,0.5,0,0,1-.38-0.59l1-4.79a0.51,0.51,0,0,1,.59-0.38,0.5,0.5,0,0,1,.38.59l-1,4.79A0.5,0.5,0,0,1,433.86,538.65Z" transform="translate(-383.61 -503.67)" style="fill:#f1f2f2"/><path d="M436.77,536.76h-0.11l-4.79-1a0.5,0.5,0,0,1-.38-0.59,0.51,0.51,0,0,1,.59-0.38l4.79,1A0.5,0.5,0,0,1,436.77,536.76Z" transform="translate(-383.61 -503.67)" style="fill:#f1f2f2"/><path d="M428.24,515.78a0.5,0.5,0,0,1-.3-0.1l-3.42-2.54a0.5,0.5,0,1,1,.6-0.8l3.42,2.54A0.5,0.5,0,0,1,428.24,515.78Z" transform="translate(-383.61 -503.67)" style="fill:#f1f2f2"/><path d="M425.26,516.22a0.5,0.5,0,0,1-.4-0.8L427.4,512a0.5,0.5,0,1,1,.8.6L425.66,516A0.5,0.5,0,0,1,425.26,516.22Z" transform="translate(-383.61 -503.67)" style="fill:#f1f2f2"/><g style="opacity:0.1"><rect x="171.43" y="21.11" width="26.5" height="3.54" rx="0.8" ry="0.8" style="fill:#f1f2f2"/><rect x="173.55" y="23.78" width="9.32" height="3.54" rx="0.8" ry="0.8" style="fill:#f1f2f2"/><rect x="189.39" y="29.58" width="9.32" height="3.54" rx="0.8" ry="0.8" style="fill:#f1f2f2"/><rect x="167.55" y="26.8" width="37.2" height="3.54" rx="0.8" ry="0.8" style="fill:#f1f2f2"/><rect x="176.09" y="32.5" width="26.5" height="3.54" rx="0.8" ry="0.8" style="fill:#f1f2f2"/></g><path d="M684.11,582.89a0.5,0.5,0,0,1-.38-0.83l4.53-5.27a0.5,0.5,0,0,1,.76.65l-4.53,5.27A0.5,0.5,0,0,1,684.11,582.89Z" transform="translate(-383.61 -503.67)" style="fill:#f1f2f2"/><path d="M689,582.51a0.5,0.5,0,0,1-.33-0.12l-5.27-4.53a0.5,0.5,0,0,1,.65-0.76l5.27,4.53A0.5,0.5,0,0,1,689,582.51Z" transform="translate(-383.61 -503.67)" style="fill:#f1f2f2"/><path d="M670.13,556.38H670l-3.5-.75a0.5,0.5,0,0,1-.38-0.59,0.51,0.51,0,0,1,.59-0.38l3.5,0.75A0.5,0.5,0,0,1,670.13,556.38Z" transform="translate(-383.61 -503.67)" style="fill:#f1f2f2"/><path d="M651.77,569.75a0.5,0.5,0,0,1-.47-0.34l-2-5.87a0.5,0.5,0,1,1,.95-0.32l2,5.88a0.5,0.5,0,0,1-.31.63Z" transform="translate(-383.61 -503.67)" style="fill:#f1f2f2"/></svg>