<svg xmlns="http://www.w3.org/2000/svg" viewBox="0 0 48.5 48.5"><defs><style>.cls-1{fill:#77bf88;stroke:#77bf88;stroke-miterlimit:10;stroke-width:0.5px;}</style></defs><title>Ресурс 2</title><g id="Слой_2" data-name="Слой 2"><g id="Слой_1-2" data-name="Слой 1"><path class="cls-1" d="M24.25.25a.8.8,0,0,0-.8.8V11.68a.8.8,0,0,0,1.6,0V1.86A22.4,22.4,0,1,1,8.38,8.44.8.8,0,1,0,7.25,7.31a24,24,0,1,0,17-7.06Zm0,0"/><path class="cls-1" d="M23.09,27.07a2.85,2.85,0,0,0,2.08,1.17h.22a2.85,2.85,0,0,0,1.68-5.16L16.72,15.6a.81.81,0,0,0-1,.08.8.8,0,0,0-.08,1Zm3-2.69a1.26,1.26,0,0,1,.15,1.9,1.25,1.25,0,0,1-1.9-.15l-4.57-6.32Zm0,0"/></g></g></svg>