<svg id="Слой_1" data-name="Слой 1" xmlns="http://www.w3.org/2000/svg" width="390.18" height="377.61" viewBox="0 0 390.18 377.61"><title>Время квеста</title><path d="M2547.5,1214.91a188.43,188.43,0,0,1-24.89,93.5,5.5,5.5,0,0,1-.4.89l-0.05.09a6.78,6.78,0,0,1-.56.78,190.35,190.35,0,0,1-67.76,67.72,4.94,4.94,0,0,1-.46.36l-0.31.19a6.21,6.21,0,0,1-.92.43,188.6,188.6,0,0,1-91.8,24.83,5.24,5.24,0,0,1-.56,0h-1.12a188.52,188.52,0,0,1-42.36-4.84,11.34,11.34,0,0,1-3.43-20.68,11.15,11.15,0,0,1,8.54-1.39,166.11,166.11,0,0,0,27.06,3.87v-8.77a11.32,11.32,0,1,1,22.65,0v8.66a163.61,163.61,0,0,0,60.61-16.5l-4.36-7.55a11.33,11.33,0,1,1,19.62-11.32l4.33,7.5a168.8,168.8,0,0,0,45.17-45.17l-7.51-4.33a11.33,11.33,0,0,1,11.33-19.62l7.55,4.36a163.82,163.82,0,0,0,16.55-61.72h-8.73a11.33,11.33,0,1,1,0-22.66h8.73a163.77,163.77,0,0,0-16.55-61.72l-7.55,4.36a11.31,11.31,0,0,1-15.47-4.15,11.32,11.32,0,0,1,4.12-15.46l7.51-4.34a168.76,168.76,0,0,0-45.16-45.17l-4.33,7.51a11.33,11.33,0,0,1-19.63-11.32l4.37-7.56a163.6,163.6,0,0,0-60.61-16.49v8.67a11.33,11.33,0,0,1-22.66,0v-8.73l-1.46.11-7.24.56a169.31,169.31,0,0,0-18.41,3.16,11.33,11.33,0,1,1-5.05-22.08,193.19,193.19,0,0,1,20-3.46c0.79-.1,1.6-0.18,2.41-0.27l0.12,0c3.35-.34,8.68-0.78,15.08-1l2.48,0a165.6,165.6,0,0,1,24.46,1.25l3.91,0.54a186.71,186.71,0,0,1,67.47,23.06,4,4,0,0,1,.83.38,5.22,5.22,0,0,1,.8.56,191.22,191.22,0,0,1,31,22.64l0.15,0.14,13,12.89a190.73,190.73,0,0,1,23.67,32.1,6.19,6.19,0,0,1,.57.81,4.59,4.59,0,0,1,.38.85A188.39,188.39,0,0,1,2547.5,1214.91Z" transform="translate(-2157.32 -1026.12)"/><path d="M2309.68,1092a11.34,11.34,0,0,1-11.32,11.33h-34.14a11.33,11.33,0,0,1,0-22.66h34.14A11.34,11.34,0,0,1,2309.68,1092Z" transform="translate(-2157.32 -1026.12)"/><path d="M2309.68,1139.82a11.34,11.34,0,0,1-11.32,11.32h-68.27a11.33,11.33,0,0,1,0-22.65h68.27A11.34,11.34,0,0,1,2309.68,1139.82Z" transform="translate(-2157.32 -1026.12)"/><path d="M2309.68,1187.6a11.34,11.34,0,0,1-11.32,11.33H2196a11.32,11.32,0,1,1,0-22.65h102.4A11.34,11.34,0,0,1,2309.68,1187.6Z" transform="translate(-2157.32 -1026.12)"/><path d="M2309.68,1235.39a11.34,11.34,0,0,1-11.32,11.33H2168.64a11.33,11.33,0,0,1,0-22.66h129.71A11.34,11.34,0,0,1,2309.68,1235.39Z" transform="translate(-2157.32 -1026.12)"/><path d="M2309.68,1283.18a11.34,11.34,0,0,1-11.32,11.32H2209.6a11.32,11.32,0,0,1,0-22.65h88.75A11.34,11.34,0,0,1,2309.68,1283.18Z" transform="translate(-2157.32 -1026.12)"/><path d="M2309.68,1331a11.34,11.34,0,0,1-11.32,11.33h-47.79a11.33,11.33,0,0,1,0-22.65h47.79A11.34,11.34,0,0,1,2309.68,1331Z" transform="translate(-2157.32 -1026.12)"/><path d="M2380,1246.39a11,11,0,0,1-7.45-2.91l-26.21-24.13a11,11,0,0,1,.85-16.89l78.37-58.84a11,11,0,0,1,15.92,14.65l-52.16,83A11,11,0,0,1,2380,1246.39Zm-9-34.27,6.76,6.22,13.45-21.4Z" transform="translate(-2157.32 -1026.12)"/></svg>