<svg id="Слой_1" data-name="Слой 1" xmlns="http://www.w3.org/2000/svg" width="28.52" height="37.89" viewBox="0 0 28.52 37.89"><title>top quest</title><path d="M788.17,261.81a26.74,26.74,0,0,1-4.58-6.48,14.7,14.7,0,0,1-.87-8.46,18.24,18.24,0,0,1,3.64-7.83,7.54,7.54,0,0,0,1.9,5.53,13.15,13.15,0,0,1,3-10.91,22.59,22.59,0,0,1,9.64-6.32c-1.82,1.9-2.06,4.9-1.34,7.43s2.21,4.74,3.56,7,2.61,4.66,2.69,7.27a25.42,25.42,0,0,0,2-4.19,8.28,8.28,0,0,0,.32-4.58A11.76,11.76,0,0,1,810.7,246a23.92,23.92,0,0,1,.08,6.72,16.8,16.8,0,0,1-2.29,7,13.2,13.2,0,0,1-6.88,5.14C796.71,265.76,791.89,265,788.17,261.81Z" transform="translate(-782.45 -227.34)" style="fill:#ed1c24"/><path d="M794.18,264.73c6.48,2.53,12.88-5.14,9.33-11.07,0-.08-0.08-0.08-0.08-0.16,0.32,3.24-.47,5.61-2,7,0.79-1.9.24-4.11-.71-6s-2.29-3.48-3.32-5.22-1.82-3.87-1.34-5.93a10.42,10.42,0,0,0-3.79,5.85,10.58,10.58,0,0,0,.79,7,5.19,5.19,0,0,1-2.13-3.79,8.14,8.14,0,0,0-2,5.45C789,260.86,791.41,263.62,794.18,264.73Z" transform="translate(-782.45 -227.34)" style="fill:#fbb040"/></svg>