<svg id="Слой_1" data-name="Слой 1" xmlns="http://www.w3.org/2000/svg" width="395.7" height="395.7" viewBox="0 0 395.7 395.7"><title>play</title><path d="M916,444.08L809.09,381a9.54,9.54,0,0,0-4.41-1.52,2.08,2.08,0,0,0-1,.2c-0.82.47-1.63,2.27-1.65,5.26v0.09l-0.07,124.14c0,3.28.94,5,1.73,5.45s2.91,0.32,5.58-1.21l106.7-60.9c2.67-1.52,3.88-3.2,3.88-4.19S918.64,445.64,916,444.08Zm0,0L809.09,381a9.54,9.54,0,0,0-4.41-1.52,2.08,2.08,0,0,0-1,.2c-0.82.47-1.63,2.27-1.65,5.26v0.09l-0.07,124.14c0,3.28.94,5,1.73,5.45s2.91,0.32,5.58-1.21l106.7-60.9c2.67-1.52,3.88-3.2,3.88-4.19S918.64,445.64,916,444.08Zm0,0L809.09,381a9.54,9.54,0,0,0-4.41-1.52,2.08,2.08,0,0,0-1,.2c-0.82.47-1.63,2.27-1.65,5.26v0.09l-0.07,124.14c0,3.28.94,5,1.73,5.45s2.91,0.32,5.58-1.21l106.7-60.9c2.67-1.52,3.88-3.2,3.88-4.19S918.64,445.64,916,444.08Zm0,0L809.09,381a9.54,9.54,0,0,0-4.41-1.52,2.08,2.08,0,0,0-1,.2c-0.82.47-1.63,2.27-1.65,5.26v0.09l-0.07,124.14c0,3.28.94,5,1.73,5.45s2.91,0.32,5.58-1.21l106.7-60.9c2.67-1.52,3.88-3.2,3.88-4.19S918.64,445.64,916,444.08Zm0,0L809.09,381a9.54,9.54,0,0,0-4.41-1.52,2.08,2.08,0,0,0-1,.2c-0.82.47-1.63,2.27-1.65,5.26v0.09l-0.07,124.14c0,3.28.94,5,1.73,5.45s2.91,0.32,5.58-1.21l106.7-60.9c2.67-1.52,3.88-3.2,3.88-4.19S918.64,445.64,916,444.08Zm0,0L809.09,381a9.54,9.54,0,0,0-4.41-1.52,2.08,2.08,0,0,0-1,.2c-0.82.47-1.63,2.27-1.65,5.26v0.09l-0.07,124.14c0,3.28.94,5,1.73,5.45s2.91,0.32,5.58-1.21l106.7-60.9c2.67-1.52,3.88-3.2,3.88-4.19S918.64,445.64,916,444.08ZM1017.55,348a199.79,199.79,0,0,0-22.46-31.78A194.48,194.48,0,0,0,967,289.63,198.23,198.23,0,1,0,1017.55,348ZM930.47,594.35a176.1,176.1,0,0,1-20.2,9.86,173.68,173.68,0,0,1-21.21,7.12,169.3,169.3,0,0,1-43.84,5.56,172.17,172.17,0,0,1-44.45-6.11A170.81,170.81,0,1,1,994.14,361.33C1040.82,443.12,1012.26,547.65,930.47,594.35ZM916,444.08L809.09,381a9.54,9.54,0,0,0-4.41-1.52,2.08,2.08,0,0,0-1,.2c-0.82.47-1.63,2.27-1.65,5.26v0.09l-0.07,124.14c0,3.28.94,5,1.73,5.45s2.91,0.32,5.58-1.21l106.7-60.9c2.67-1.52,3.88-3.2,3.88-4.19S918.64,445.64,916,444.08Zm0,0L809.09,381a9.54,9.54,0,0,0-4.41-1.52,2.08,2.08,0,0,0-1,.2c-0.82.47-1.63,2.27-1.65,5.26v0.09l-0.07,124.14c0,3.28.94,5,1.73,5.45s2.91,0.32,5.58-1.21l106.7-60.9c2.67-1.52,3.88-3.2,3.88-4.19S918.64,445.64,916,444.08Zm0,0L809.09,381a9.54,9.54,0,0,0-4.41-1.52,2.08,2.08,0,0,0-1,.2c-0.82.47-1.63,2.27-1.65,5.26v0.09l-0.07,124.14c0,3.28.94,5,1.73,5.45s2.91,0.32,5.58-1.21l106.7-60.9c2.67-1.52,3.88-3.2,3.88-4.19S918.64,445.64,916,444.08Zm0,0L809.09,381a9.54,9.54,0,0,0-4.41-1.52,2.08,2.08,0,0,0-1,.2c-0.82.47-1.63,2.27-1.65,5.26v0.09l-0.07,124.14c0,3.28.94,5,1.73,5.45s2.91,0.32,5.58-1.21l106.7-60.9c2.67-1.52,3.88-3.2,3.88-4.19S918.64,445.64,916,444.08Zm0,0L809.09,381a9.54,9.54,0,0,0-4.41-1.52,2.08,2.08,0,0,0-1,.2c-0.82.47-1.63,2.27-1.65,5.26v0.09l-0.07,124.14c0,3.28.94,5,1.73,5.45s2.91,0.32,5.58-1.21l106.7-60.9c2.67-1.52,3.88-3.2,3.88-4.19S918.64,445.64,916,444.08Zm0,0L809.09,381a9.54,9.54,0,0,0-4.41-1.52,2.08,2.08,0,0,0-1,.2c-0.82.47-1.63,2.27-1.65,5.26v0.09l-0.07,124.14c0,3.28.94,5,1.73,5.45s2.91,0.32,5.58-1.21l106.7-60.9c2.67-1.52,3.88-3.2,3.88-4.19S918.64,445.64,916,444.08Zm0,0L809.09,381a9.54,9.54,0,0,0-4.41-1.52,2.08,2.08,0,0,0-1,.2c-0.82.47-1.63,2.27-1.65,5.26v0.09l-0.07,124.14c0,3.28.94,5,1.73,5.45s2.91,0.32,5.58-1.21l106.7-60.9c2.67-1.52,3.88-3.2,3.88-4.19S918.64,445.64,916,444.08Z" transform="translate(-647.95 -248.16)" style="fill:#fff"/></svg>