<svg id="Слой_1" data-name="Слой 1" xmlns="http://www.w3.org/2000/svg" width="313.91" height="86.67" viewBox="0 0 313.91 86.67"><title>vk_new_banner</title><path d="M342.06,640.68v68.06c0,5.15-3.08,9.31-6.89,9.31H35c-3.81,0-6.9-4.16-6.9-9.31V640.68c0-5.15,3.09-9.31,6.9-9.31H335.17C339,631.37,342.06,635.53,342.06,640.68Z" transform="translate(-28.15 -631.37)" style="fill:#f15a29"/><line x1="33.98" y1="4.06" x2="31.87" y2="6.17" style="fill:none;stroke:#fff;stroke-linecap:round;stroke-linejoin:round"/><line x1="33.98" y1="6.17" x2="31.87" y2="4.06" style="fill:none;stroke:#fff;stroke-linecap:round;stroke-linejoin:round"/><line x1="45.89" y1="51.23" x2="44.86" y2="56.02" style="fill:none;stroke:#fff;stroke-linecap:round;stroke-linejoin:round"/><line x1="47.77" y1="54.14" x2="42.98" y2="53.11" style="fill:none;stroke:#fff;stroke-linecap:round;stroke-linejoin:round"/><rect x="272.74" y="676.41" width="13.7" height="1.83" rx="0.8" ry="0.8" transform="translate(531.03 723.28) rotate(-180)" style="fill:#ff7155"/><rect x="280.52" y="677.79" width="4.82" height="1.83" rx="0.8" ry="0.8" transform="translate(537.72 726.05) rotate(180)" style="fill:#ff7155"/><rect x="272.34" y="680.79" width="4.82" height="1.83" rx="0.8" ry="0.8" transform="translate(521.34 732.05) rotate(180)" style="fill:#ff7155"/><rect x="269.22" y="679.36" width="19.23" height="1.83" rx="0.8" ry="0.8" transform="translate(529.51 729.17) rotate(-180)" style="fill:#ff7155"/><rect x="270.33" y="682.3" width="13.7" height="1.83" rx="0.8" ry="0.8" transform="translate(526.21 735.06) rotate(-180)" style="fill:#ff7155"/><rect x="272.74" y="676.41" width="13.7" height="1.83" rx="0.8" ry="0.8" transform="translate(531.03 723.28) rotate(-180)" style="fill:#ff7155"/><rect x="280.52" y="677.79" width="4.82" height="1.83" rx="0.8" ry="0.8" transform="translate(537.72 726.05) rotate(180)" style="fill:#ff7155"/><rect x="272.34" y="680.79" width="4.82" height="1.83" rx="0.8" ry="0.8" transform="translate(521.34 732.05) rotate(180)" style="fill:#ff7155"/><rect x="269.22" y="679.36" width="19.23" height="1.83" rx="0.8" ry="0.8" transform="translate(529.51 729.17) rotate(-180)" style="fill:#ff7155"/><rect x="270.33" y="682.3" width="13.7" height="1.83" rx="0.8" ry="0.8" transform="translate(526.21 735.06) rotate(-180)" style="fill:#ff7155"/><rect x="45.37" y="10.81" width="8" height="1.07" rx="0.53" ry="0.53" style="fill:#ff7155"/><rect x="46.01" y="11.62" width="2.81" height="1.07" rx="0.53" ry="0.53" style="fill:#ff7155"/><rect x="50.79" y="13.37" width="2.81" height="1.07" rx="0.53" ry="0.53" style="fill:#ff7155"/><rect x="44.2" y="12.53" width="11.23" height="1.07" rx="0.53" ry="0.53" style="fill:#ff7155"/><rect x="46.78" y="14.25" width="8" height="1.07" rx="0.53" ry="0.53" style="fill:#ff7155"/><rect x="4.86" y="38.57" width="8" height="1.07" rx="0.53" ry="0.53" style="fill:#ff7155"/><polygon points="212.94 50.12 216.79 46.28 218.2 51.53 212.94 50.12" style="fill:none;stroke:#7f3f98;stroke-linecap:round;stroke-linejoin:round;stroke-width:4px"/><line x1="249.1" y1="10.31" x2="248.07" y2="15.11" style="fill:none;stroke:#2e3192;stroke-linecap:round;stroke-linejoin:round"/><line x1="250.98" y1="13.23" x2="246.19" y2="12.2" style="fill:none;stroke:#2e3192;stroke-linecap:round;stroke-linejoin:round"/><line x1="150.26" y1="7.34" x2="154.22" y2="11.46" style="fill:none;stroke:#27aae1;stroke-linecap:round;stroke-linejoin:round"/><line x1="154.3" y1="7.43" x2="150.18" y2="11.38" style="fill:none;stroke:#27aae1;stroke-linecap:round;stroke-linejoin:round"/><line x1="122.57" y1="54.24" x2="125.98" y2="57.8" style="fill:none;stroke:#00a79d;stroke-linecap:round;stroke-linejoin:round"/><line x1="126.06" y1="54.31" x2="122.5" y2="57.73" style="fill:none;stroke:#00a79d;stroke-linecap:round;stroke-linejoin:round"/><path d="M314.72,655c1.95-1.56,3.57-3.92,1.45-6.56s-5.49-1-6.72,0a7.11,7.11,0,0,0-2.34,4.93,2.59,2.59,0,0,0,2.27,2.84A6.92,6.92,0,0,0,314.72,655Z" transform="translate(-28.15 -631.37)" style="fill:#f9ed32"/><line x1="252.36" y1="74.54" x2="257.21" y2="79.6" style="fill:none;stroke:#fff;stroke-linecap:round;stroke-linejoin:round"/><line x1="257.32" y1="74.64" x2="252.26" y2="79.5" style="fill:none;stroke:#fff;stroke-linecap:round;stroke-linejoin:round"/><polygon points="294.91 66.38 292.03 66.38 293.47 63.88 294.91 66.38" style="fill:none;stroke:#7f3f98;stroke-linecap:round;stroke-linejoin:round;stroke-width:4px"/><rect x="6.14" y="73.17" width="12.93" height="1.73" rx="0.53" ry="0.53" style="fill:#ff7155"/><rect x="7.17" y="74.48" width="4.55" height="1.73" rx="0.53" ry="0.53" style="fill:#ff7155"/><rect x="14.9" y="77.31" width="4.55" height="1.73" rx="0.53" ry="0.53" style="fill:#ff7155"/><rect x="4.24" y="75.95" width="18.15" height="1.73" rx="0.53" ry="0.53" style="fill:#ff7155"/><rect x="8.41" y="78.73" width="12.93" height="1.73" rx="0.53" ry="0.53" style="fill:#ff7155"/></svg>