<svg id="Слой_1" data-name="Слой 1" xmlns="http://www.w3.org/2000/svg" width="1853.45" height="486.81" viewBox="0 0 1853.45 486.81"><title>Goroda background</title><path d="M2491.36,1797.77c-9.14-10.22-21.76-16.54-35.71-16.54H2301.79c16-8.86,27-27.31,27-48.65a57.44,57.44,0,0,0-14.21-38.36c-8.77-9.81-20.9-15.88-34.29-15.88h91c24.86,0,45-22.53,45-50.32a53.33,53.33,0,0,0-13.18-35.58c-8.14-9.1-19.39-14.74-31.82-14.74H2129.44a53.52,53.52,0,0,0-6.84-9.63c-8.78-9.81-20.9-15.88-34.3-15.88H1207.7c-17.35,0-32.57,10.19-41.13,25.51H785.21c-24.85,0-45,22.53-45,50.32a53.33,53.33,0,0,0,13.18,35.58c8.15,9.1,19.39,14.74,31.82,14.74h-84c-26.78,0-48.5,24.28-48.5,54.24a57.44,57.44,0,0,0,14.21,38.36c8.77,9.81,20.9,15.88,34.29,15.88H858.59c-16.9,9.13-28.56,28.48-28.56,50.88a59.83,59.83,0,0,0,14.79,39.93,52.34,52.34,0,0,0,6.93,6.48h-95c-24.85,0-45,22.53-45,50.32A53.33,53.33,0,0,0,725,1970c8.15,9.1,19.39,14.74,31.82,14.74H1065c0.31,0.37.63,0.74,0.95,1.1,8.78,9.82,20.9,15.89,34.29,15.89h405.45a55.59,55.59,0,0,0,11.78,21.37c8.77,9.81,20.9,15.88,34.29,15.88H1773c26.78,0,48.49-24.28,48.49-54.24h521.37c24.85,0,45-22.53,45-50.32a53.33,53.33,0,0,0-13.18-35.58,47.55,47.55,0,0,0-4.81-4.67h85.76c27.89,0,50.5-25.28,50.5-56.47A59.83,59.83,0,0,0,2491.36,1797.77ZM943,1787.26l-0.79-.44H943v0.44Z" transform="translate(-652.7 -1552.19)" style="fill:#f7f7f7"/></svg>