<svg id="Режим_изоляции" data-name="Режим изоляции" xmlns="http://www.w3.org/2000/svg" width="178.32" height="178.32" viewBox="0 0 178.32 178.32"><title>big video play</title><path d="M-266.8,617.82A89.26,89.26,0,0,1-356,528.66,89.26,89.26,0,0,1-266.8,439.5a89.3,89.3,0,0,1,42.44,10.73,89.15,89.15,0,0,1,46.73,78.43A89.26,89.26,0,0,1-266.8,617.82Zm0-169.32A80.25,80.25,0,0,0-347,528.66a80.25,80.25,0,0,0,80.16,80.16,80.25,80.25,0,0,0,80.16-80.16,80.16,80.16,0,0,0-42-70.52A80.26,80.26,0,0,0-266.8,448.5Z" transform="translate(355.96 -439.5)" style="fill:#fff"/><path d="M-284.29,565.81a10,10,0,0,1-5-1.36,9.9,9.9,0,0,1-5-8.66V501.53a9.9,9.9,0,0,1,5-8.66,9.9,9.9,0,0,1,10,0l47,27.13a9.9,9.9,0,0,1,5,8.66,9.9,9.9,0,0,1-5,8.66h0l-47,27.13A10,10,0,0,1-284.29,565.81Zm0-65.29a1,1,0,0,0-.5.14,1,1,0,0,0-.5.87v54.27a1,1,0,0,0,.5.87,1,1,0,0,0,1,0l47-27.13a1,1,0,0,0,.5-0.87,1,1,0,0,0-.5-0.87l-47-27.13A1,1,0,0,0-284.29,500.52Zm49.75,32.91h0Z" transform="translate(355.96 -439.5)" style="fill:#fff"/></svg>