<svg id="Слой_1" data-name="Слой 1" xmlns="http://www.w3.org/2000/svg" width="111.63" height="101.29" viewBox="0 0 111.63 101.29"><title>action</title><rect x="9.29" y="89.41" width="21.08" height="2.82" rx="0.85" ry="0.85" style="fill:#f1f2f2"/><rect x="10.97" y="92.11" width="10.03" height="2.82" rx="0.85" ry="0.85" style="fill:#f1f2f2"/><rect x="23.64" y="95.87" width="7.42" height="2.82" rx="0.85" ry="0.85" style="fill:#f1f2f2"/><rect x="6.2" y="93.94" width="29.59" height="2.82" rx="0.85" ry="0.85" style="fill:#f1f2f2"/><rect x="13" y="98.48" width="21.08" height="2.82" rx="0.85" ry="0.85" style="fill:#f1f2f2"/><path d="M386.44,281.06c-3.73-23.83-5.42-47.58-5.42-47.58" transform="translate(-363.69 -188.94)" style="fill:none;stroke:#f15a29;stroke-linecap:round;stroke-linejoin:round;stroke-width:7px"/><line x1="27.78" y1="8.04" x2="25.21" y2="10.6" style="fill:none;stroke:#f9ed32;stroke-linecap:round;stroke-linejoin:round"/><line x1="27.78" y1="10.6" x2="25.21" y2="8.04" style="fill:none;stroke:#f9ed32;stroke-linecap:round;stroke-linejoin:round"/><line x1="111.13" y1="43.81" x2="105.79" y2="49.15" style="fill:none;stroke:#00aeef;stroke-linecap:round;stroke-linejoin:round"/><line x1="111.13" y1="49.15" x2="105.79" y2="43.81" style="fill:none;stroke:#00aeef;stroke-linecap:round;stroke-linejoin:round"/><line x1="59.49" y1="65.62" x2="56.93" y2="68.18" style="fill:none;stroke:#662d91;stroke-linecap:round;stroke-linejoin:round"/><line x1="59.49" y1="68.18" x2="56.93" y2="65.62" style="fill:none;stroke:#662d91;stroke-linecap:round;stroke-linejoin:round"/><polygon points="7.53 4.84 12.14 1.5 12.73 7.17 7.53 4.84" style="fill:none;stroke:#56bc77;stroke-linecap:round;stroke-linejoin:round;stroke-width:3px"/><circle cx="366.21" cy="260.43" r="2.51" transform="translate(-350.71 349.27) rotate(-73.6)" style="fill:#ee3961"/><path d="M423.19,233.48a13.81,13.81,0,0,1-19.25.53" transform="translate(-363.69 -188.94)" style="fill:none;stroke:#d64c27;stroke-linecap:round;stroke-linejoin:round;stroke-width:3px"/><path d="M396.2,218.83a5.15,5.15,0,0,1,8.65.51" transform="translate(-363.69 -188.94)" style="fill:none;stroke:#d64c27;stroke-linecap:round;stroke-linejoin:round;stroke-width:3px"/><path d="M421,218.7a5.15,5.15,0,0,1,8.65.51" transform="translate(-363.69 -188.94)" style="fill:none;stroke:#d64c27;stroke-linecap:round;stroke-linejoin:round;stroke-width:3px"/><path d="M449.26,245.7a571.9,571.9,0,0,1-66.66,0,111.71,111.71,0,0,1,0-39.37,571.91,571.91,0,0,1,66.66,0c-2.67,7.18-4.61,10.94-8.78,18.62C444.75,233.5,446.74,237.69,449.26,245.7Z" transform="translate(-363.69 -188.94)" style="fill:none;stroke:#f15a29;stroke-linecap:round;stroke-linejoin:round;stroke-width:7px"/><rect x="84.13" y="14.22" width="5.98" height="1.68" rx="0.84" ry="0.84" style="fill:#f1f2f2"/><rect x="83.12" y="12.61" width="12.57" height="1.68" rx="0.84" ry="0.84" style="fill:#f1f2f2"/><rect x="91.68" y="16.46" width="4.42" height="1.68" rx="0.84" ry="0.84" style="fill:#f1f2f2"/><rect x="81.28" y="15.31" width="17.64" height="1.68" rx="0.84" ry="0.84" style="fill:#f1f2f2"/><rect x="85.33" y="18.02" width="12.57" height="1.68" rx="0.84" ry="0.84" style="fill:#f1f2f2"/><circle cx="88.5" cy="61.89" r="9.6" style="fill:#f15a29;stroke:#fff;stroke-miterlimit:10"/><line x1="88.5" y1="61.89" x2="83.91" y2="57.73" style="fill:none;stroke:#fff;stroke-linecap:round;stroke-linejoin:round"/><line x1="88.5" y1="61.89" x2="90.83" y2="59.81" style="fill:none;stroke:#fff;stroke-linecap:round;stroke-linejoin:round"/><line x1="5.19" y1="23.9" x2="1.91" y2="27.18" style="fill:none;stroke:#27aae1;stroke-linecap:round;stroke-linejoin:round"/><line x1="5.19" y1="27.18" x2="1.91" y2="23.9" style="fill:none;stroke:#27aae1;stroke-linecap:round;stroke-linejoin:round"/></svg>