<svg id="Слой_1" data-name="Слой 1" xmlns="http://www.w3.org/2000/svg" width="139.36" height="85.83" viewBox="0 0 139.36 85.83"><title>all quests</title><rect x="622.75" y="276.69" width="15.76" height="2.1" rx="0.85" ry="0.85" transform="translate(740.02 355.75) rotate(180)" style="fill:#f1f2f2"/><rect x="631.71" y="278.71" width="5.54" height="2.1" rx="0.85" ry="0.85" transform="translate(747.72 359.79) rotate(180)" style="fill:#f1f2f2"/><rect x="622.24" y="281.51" width="5.54" height="2.1" rx="0.85" ry="0.85" transform="translate(728.77 365.4) rotate(180)" style="fill:#f1f2f2"/><rect x="618.7" y="280.08" width="22.13" height="2.1" rx="0.85" ry="0.85" transform="translate(738.27 362.52) rotate(-180)" style="fill:#f1f2f2"/><rect x="619.98" y="283.46" width="15.76" height="2.1" rx="0.85" ry="0.85" transform="translate(734.47 369.3) rotate(-180)" style="fill:#f1f2f2"/><path d="M562.31,221.39H551.66a5.51,5.51,0,0,1-5.5-5.5V205.23a5.51,5.51,0,0,1,5.5-5.5h10.66a5.51,5.51,0,0,1,5.5,5.5v10.66A5.51,5.51,0,0,1,562.31,221.39Zm-9.16-7h7.66v-7.66h-7.66v7.66Z" transform="translate(-521.25 -199.73)" style="fill:#3e357f"/><path d="M592.31,221.39H581.66a5.51,5.51,0,0,1-5.5-5.5V205.23a5.51,5.51,0,0,1,5.5-5.5h10.66a5.51,5.51,0,0,1,5.5,5.5v10.66A5.51,5.51,0,0,1,592.31,221.39Zm-9.16-7h7.66v-7.66h-7.66v7.66Z" transform="translate(-521.25 -199.73)" style="fill:#f15a29"/><path d="M622.31,221.39H611.66a5.51,5.51,0,0,1-5.5-5.5V205.23a5.51,5.51,0,0,1,5.5-5.5h10.66a5.51,5.51,0,0,1,5.5,5.5v10.66A5.51,5.51,0,0,1,622.31,221.39Zm-9.16-7h7.66v-7.66h-7.66v7.66Z" transform="translate(-521.25 -199.73)" style="fill:#1c75bc"/><path d="M562.31,251.39H551.66a5.51,5.51,0,0,1-5.5-5.5V235.23a5.51,5.51,0,0,1,5.5-5.5h10.66a5.51,5.51,0,0,1,5.5,5.5v10.66A5.51,5.51,0,0,1,562.31,251.39Zm-9.16-7h7.66v-7.66h-7.66v7.66Z" transform="translate(-521.25 -199.73)" style="fill:#be1e2d"/><path d="M592.31,251.39H581.66a5.51,5.51,0,0,1-5.5-5.5V235.23a5.51,5.51,0,0,1,5.5-5.5h10.66a5.51,5.51,0,0,1,5.5,5.5v10.66A5.51,5.51,0,0,1,592.31,251.39Zm-9.16-7h7.66v-7.66h-7.66v7.66Z" transform="translate(-521.25 -199.73)" style="fill:#39b54a"/><path d="M622.31,251.39H611.66a5.51,5.51,0,0,1-5.5-5.5V235.23a5.51,5.51,0,0,1,5.5-5.5h10.66a5.51,5.51,0,0,1,5.5,5.5v10.66A5.51,5.51,0,0,1,622.31,251.39Zm-9.16-7h7.66v-7.66h-7.66v7.66Z" transform="translate(-521.25 -199.73)" style="fill:#fbb040"/><path d="M562.31,281.39H551.66a5.51,5.51,0,0,1-5.5-5.5V265.23a5.51,5.51,0,0,1,5.5-5.5h10.66a5.51,5.51,0,0,1,5.5,5.5v10.66A5.51,5.51,0,0,1,562.31,281.39Zm-9.16-7h7.66v-7.66h-7.66v7.66Z" transform="translate(-521.25 -199.73)" style="fill:#d1d3d4"/><path d="M592.31,281.39H581.66a5.51,5.51,0,0,1-5.5-5.5V265.23a5.51,5.51,0,0,1,5.5-5.5h10.66a5.51,5.51,0,0,1,5.5,5.5v10.66A5.51,5.51,0,0,1,592.31,281.39Zm-9.16-7h7.66v-7.66h-7.66v7.66Z" transform="translate(-521.25 -199.73)" style="fill:#ee2a7b"/><path d="M622.31,281.39H611.66a5.51,5.51,0,0,1-5.5-5.5V265.23a5.51,5.51,0,0,1,5.5-5.5h10.66a5.51,5.51,0,0,1,5.5,5.5v10.66A5.51,5.51,0,0,1,622.31,281.39Zm-9.16-7h7.66v-7.66h-7.66v7.66Z" transform="translate(-521.25 -199.73)" style="fill:#92278f"/><path d="M644.91,235.91a0.5,0.5,0,0,1-.35-0.15l-2.63-2.63a0.5,0.5,0,1,1,.71-0.71l2.63,2.63A0.5,0.5,0,0,1,644.91,235.91Z" transform="translate(-521.25 -199.73)" style="fill:#ec008c"/><path d="M642.27,235.91a0.5,0.5,0,0,1-.35-0.85l2.63-2.63a0.5,0.5,0,0,1,.71.71l-2.63,2.63A0.5,0.5,0,0,1,642.27,235.91Z" transform="translate(-521.25 -199.73)" style="fill:#ec008c"/><path d="M656.37,218.37a0.5,0.5,0,0,1-.35-0.15l-1.53-1.53a0.5,0.5,0,1,1,.71-0.71l1.53,1.53A0.5,0.5,0,0,1,656.37,218.37Z" transform="translate(-521.25 -199.73)" style="fill:#d7df23"/><path d="M654.84,218.37a0.5,0.5,0,0,1-.35-0.85L656,216a0.5,0.5,0,0,1,.71.71l-1.53,1.53A0.5,0.5,0,0,1,654.84,218.37Z" transform="translate(-521.25 -199.73)" style="fill:#d7df23"/><circle cx="135.95" cy="53.27" r="3.4" style="fill:#f9ed32"/><rect x="527.25" y="221.57" width="15.76" height="2.1" rx="0.85" ry="0.85" transform="translate(549.02 245.51) rotate(180)" style="fill:#f1f2f2"/><rect x="536.21" y="223.59" width="5.54" height="2.1" rx="0.85" ry="0.85" transform="translate(556.72 249.55) rotate(180)" style="fill:#f1f2f2"/><rect x="526.74" y="226.4" width="5.54" height="2.1" rx="0.85" ry="0.85" transform="translate(537.77 255.16) rotate(180)" style="fill:#f1f2f2"/><rect x="523.2" y="224.96" width="22.13" height="2.1" rx="0.85" ry="0.85" transform="translate(547.27 252.29) rotate(-180)" style="fill:#f1f2f2"/><rect x="524.48" y="228.35" width="15.76" height="2.1" rx="0.85" ry="0.85" transform="translate(543.47 259.06) rotate(-180)" style="fill:#f1f2f2"/><circle cx="15.14" cy="58.63" r="4.26" style="fill:#1c75bc"/><path d="M526.74,284.12a0.5,0.5,0,0,1-.35-0.15l-5-5a0.5,0.5,0,1,1,.71-0.71l5,5A0.5,0.5,0,0,1,526.74,284.12Z" transform="translate(-521.25 -199.73)" style="fill:#00a651"/><path d="M521.75,284.12a0.5,0.5,0,0,1-.35-0.85l5-5a0.5,0.5,0,1,1,.71.71l-5,5A0.5,0.5,0,0,1,521.75,284.12Z" transform="translate(-521.25 -199.73)" style="fill:#00a651"/></svg>