<svg id="Слой_1" data-name="Слой 1" xmlns="http://www.w3.org/2000/svg" width="103.84" height="83.94" viewBox="0 0 103.84 83.94"><title>for children</title><rect x="212.99" y="110.57" width="18.36" height="2.45" rx="0.8" ry="0.8" transform="translate(248.15 179.31) rotate(180)" style="fill:#f1f2f2"/><rect x="200.91" y="75.86" width="18.36" height="2.45" rx="0.8" ry="0.8" transform="translate(224 109.88) rotate(180)" style="fill:#f1f2f2"/><rect x="211.35" y="78.21" width="6.46" height="2.45" rx="0.8" ry="0.8" transform="translate(232.97 114.59) rotate(180)" style="fill:#f1f2f2"/><rect x="203.55" y="81.48" width="6.46" height="2.45" rx="0.8" ry="0.8" transform="translate(217.36 121.13) rotate(-180)" style="fill:#f1f2f2"/><rect x="196.19" y="79.8" width="25.78" height="2.45" rx="0.8" ry="0.8" transform="translate(221.96 117.78) rotate(-180)" style="fill:#f1f2f2"/><rect x="197.68" y="83.75" width="18.36" height="2.45" rx="0.8" ry="0.8" transform="translate(217.54 125.67) rotate(-180)" style="fill:#f1f2f2"/><ellipse cx="84.61" cy="45.42" rx="6.9" ry="7.97" style="fill:#f2bc8b"/><ellipse cx="16.8" cy="45.42" rx="6.9" ry="7.97" style="fill:#f2bc8b"/><ellipse cx="21.64" cy="45.42" rx="6.9" ry="7.97" style="fill:#e2ad81"/><ellipse cx="79.87" cy="45.42" rx="6.9" ry="7.97" style="fill:#e2ad81"/><circle cx="50.7" cy="45.42" r="33.91" style="fill:#fdd7ad"/><path d="M246.89,66.18a2.5,2.5,0,0,1-2.5-2.5V46.78a2.5,2.5,0,0,1,5,0V63.68A2.5,2.5,0,0,1,246.89,66.18Z" transform="translate(-196.19 -44.28)" style="fill:#3e357f"/><path d="M238.23,66.94a2.5,2.5,0,0,1-2.5-2.5V50.9a2.5,2.5,0,0,1,5,0V64.44A2.5,2.5,0,0,1,238.23,66.94Z" transform="translate(-196.19 -44.28)" style="fill:#3e357f"/><path d="M255.51,67.18a2.5,2.5,0,0,1-2.5-2.5V52.48a2.5,2.5,0,1,1,5,0v12.2A2.5,2.5,0,0,1,255.51,67.18Z" transform="translate(-196.19 -44.28)" style="fill:#3e357f"/><path d="M246.84,113.8a11.09,11.09,0,0,1-9-4.67,2,2,0,0,1,3.26-2.31,7.07,7.07,0,0,0,11.63-.13,2,2,0,0,1,3.31,2.24A11.06,11.06,0,0,1,246.84,113.8Z" transform="translate(-196.19 -44.28)" style="fill:#f2bc8b"/><path d="M226.29,84.88a2,2,0,0,1-1.55-3.27,10.92,10.92,0,0,1,16.06-.16,2,2,0,0,1-3,2.61,6.94,6.94,0,0,0-9.94.08A2,2,0,0,1,226.29,84.88Z" transform="translate(-196.19 -44.28)" style="fill:#f2bc8b"/><path d="M255.58,84.88A2,2,0,0,1,254,81.61a10.92,10.92,0,0,1,16.06-.16,2,2,0,1,1-3,2.61,6.94,6.94,0,0,0-9.94.08A2,2,0,0,1,255.58,84.88Z" transform="translate(-196.19 -44.28)" style="fill:#f2bc8b"/><rect x="284.32" y="111.32" width="13.7" height="1.83" rx="0.8" ry="0.8" transform="translate(386.15 180.18) rotate(-180)" style="fill:#f1f2f2"/><rect x="292.11" y="113.07" width="4.82" height="1.83" rx="0.8" ry="0.8" transform="translate(392.84 183.69) rotate(180)" style="fill:#f1f2f2"/><rect x="283.88" y="115.51" width="4.82" height="1.83" rx="0.8" ry="0.8" transform="translate(376.38 188.57) rotate(180)" style="fill:#f1f2f2"/><rect x="280.8" y="114.26" width="19.23" height="1.83" rx="0.8" ry="0.8" transform="translate(384.64 186.07) rotate(-180)" style="fill:#f1f2f2"/><rect x="281.91" y="117.21" width="13.7" height="1.83" rx="0.8" ry="0.8" transform="translate(381.33 191.96) rotate(-180)" style="fill:#f1f2f2"/><circle cx="85.16" cy="15.99" r="3.4" style="fill:#cc3636"/><circle cx="5.7" cy="64.84" r="3.4" style="fill:#1c75bc"/><circle cx="30.11" cy="10.95" r="2.43" style="fill:#662d91"/><path d="M210.2,63.74a0.5,0.5,0,0,1-.35-0.85l2.21-2.21a0.5,0.5,0,0,1,.71.71l-2.21,2.21A0.5,0.5,0,0,1,210.2,63.74Z" transform="translate(-196.19 -44.28)" style="fill:#00a79d"/><path d="M212.41,63.74a0.5,0.5,0,0,1-.35-0.15l-2.21-2.21a0.5,0.5,0,0,1,.71-0.71l2.21,2.21A0.5,0.5,0,0,1,212.41,63.74Z" transform="translate(-196.19 -44.28)" style="fill:#00a79d"/><path d="M291.11,79.12a0.5,0.5,0,0,1-.35-0.85l4-4a0.5,0.5,0,1,1,.71.71l-4,4A0.5,0.5,0,0,1,291.11,79.12Z" transform="translate(-196.19 -44.28)" style="fill:#39b54a"/><path d="M295.11,79.12a0.5,0.5,0,0,1-.35-0.15l-4-4a0.5,0.5,0,0,1,.71-0.71l4,4A0.5,0.5,0,0,1,295.11,79.12Z" transform="translate(-196.19 -44.28)" style="fill:#39b54a"/><path d="M225.59,128.22h0a2,2,0,0,1-1.73-1l-3-5.12a2,2,0,0,1,1.73-3h5.91a2,2,0,0,1,1.73,3l-3,5.12A2,2,0,0,1,225.59,128.22Z" transform="translate(-196.19 -44.28)" style="fill:#f7941e"/></svg>