<svg id="Слой_1" data-name="Слой 1" xmlns="http://www.w3.org/2000/svg" width="106.19" height="101.46" viewBox="0 0 106.19 101.46"><title>corporate</title><rect x="258.8" y="269.14" width="27.29" height="3.64" rx="0.85" ry="0.85" transform="translate(341.78 358.86) rotate(180)" style="fill:#f1f2f2"/><rect x="274.32" y="272.64" width="9.6" height="3.64" rx="0.85" ry="0.85" transform="translate(355.12 365.86) rotate(180)" style="fill:#f1f2f2"/><rect x="257.92" y="277.49" width="9.6" height="3.64" rx="0.85" ry="0.85" transform="translate(322.31 375.57) rotate(180)" style="fill:#f1f2f2"/><rect x="251.78" y="275" width="38.32" height="3.64" rx="0.85" ry="0.85" transform="translate(338.76 370.59) rotate(-180)" style="fill:#f1f2f2"/><rect x="254" y="280.87" width="27.29" height="3.64" rx="0.85" ry="0.85" transform="translate(332.18 382.33) rotate(-180)" style="fill:#f1f2f2"/><path d="M229.15,221.46a32.34,32.34,0,0,1,15.14,0c7.49,2.07,11.28-.46,11.28-0.46s9.71-2.36,15,1.27-12.07,28.89-12.07,28.89l-21.06-.68Z" transform="translate(-203.12 -183.06)" style="fill:#fff3e6"/><path d="M256.71,254.66H243.58a13.38,13.38,0,0,1-12.12-9.18L222,214.31a8.39,8.39,0,0,1,8.31-11.22h38.93a8.44,8.44,0,0,1,8.38,11.2l-9.17,31.13h0C266.92,250.6,261.77,254.66,256.71,254.66Zm-26.4-44.56a1.47,1.47,0,0,0-1.62,2.18l9.47,31.17a6.41,6.41,0,0,0,5.42,4.21h13.13c1.78,0,4.31-1.8,5-4.2l9.17-31.13a1.52,1.52,0,0,0-1.66-2.23H230.31Zm34.78,34.35h0Z" transform="translate(-203.12 -183.06)" style="fill:#3e357f"/><path d="M250.09,282.66a3.5,3.5,0,0,1-3.5-3.5V255a3.5,3.5,0,0,1,7,0v24.14A3.5,3.5,0,0,1,250.09,282.66Z" transform="translate(-203.12 -183.06)" style="fill:#3e357f"/><path d="M261.59,282.66H238a3.5,3.5,0,0,1,0-7h23.64A3.5,3.5,0,0,1,261.59,282.66Z" transform="translate(-203.12 -183.06)" style="fill:#3e357f"/><path d="M238,279.16" transform="translate(-203.12 -183.06)" style="fill:none;stroke:#3e357f;stroke-linecap:round;stroke-linejoin:round;stroke-width:7px"/><circle cx="36.63" cy="36.05" r="3.94" style="fill:#3e357f"/><path d="M240,220.48a0.5,0.5,0,0,1-.5-0.5v-2.4a0.5,0.5,0,0,1,1,0V220A0.5,0.5,0,0,1,240,220.48Z" transform="translate(-203.12 -183.06)" style="fill:#fff"/><path d="M241.16,219.28h-2.4a0.5,0.5,0,0,1,0-1h2.4A0.5,0.5,0,0,1,241.16,219.28Z" transform="translate(-203.12 -183.06)" style="fill:#fff"/><circle cx="56.38" cy="36.05" r="3.94" style="fill:#3e357f"/><path d="M259.71,220.48a0.5,0.5,0,0,1-.5-0.5v-2.4a0.5,0.5,0,0,1,1,0V220A0.5,0.5,0,0,1,259.71,220.48Z" transform="translate(-203.12 -183.06)" style="fill:#fff"/><path d="M260.91,219.28h-2.4a0.5,0.5,0,0,1,0-1h2.4A0.5,0.5,0,0,1,260.91,219.28Z" transform="translate(-203.12 -183.06)" style="fill:#fff"/><path d="M242.94,232.63s-1.72,8.61,6.89,8.61,7-8.61,7-8.61H242.94Z" transform="translate(-203.12 -183.06)" style="fill:#ee3961"/><path d="M254,240.26c0,2-1.67,2.07-3.74,2.07s-3.74-.08-3.74-2.07A3.74,3.74,0,0,1,254,240.26Z" transform="translate(-203.12 -183.06)" style="fill:#ce345c"/><path d="M249.83,242.73c-3,0-5.24-.92-6.72-2.73-2.51-3.06-1.66-7.48-1.62-7.66a1.49,1.49,0,0,1,1.46-1.2h13.91a1.49,1.49,0,0,1,1.46,1.22c0,0.19.81,4.59-1.73,7.64C255.08,241.82,252.81,242.73,249.83,242.73Zm-5.54-8.61a6.16,6.16,0,0,0,1.13,4c0.89,1.08,2.38,1.63,4.42,1.63a5.53,5.53,0,0,0,4.47-1.65,6.27,6.27,0,0,0,1.18-4H244.29Z" transform="translate(-203.12 -183.06)" style="fill:#3e357f"/><path d="M266.05,244.69a3.5,3.5,0,0,1-1.11-6.82,46.41,46.41,0,0,0,24.62-19.47,3.5,3.5,0,1,1,5.94,3.7,53.42,53.42,0,0,1-28.34,22.41A3.5,3.5,0,0,1,266.05,244.69Z" transform="translate(-203.12 -183.06)" style="fill:#3e357f"/><path d="M233.74,244.44a3.48,3.48,0,0,1-1.16-.2,53.48,53.48,0,0,1-27.73-22.42,3.5,3.5,0,0,1,6-3.66,46.45,46.45,0,0,0,24.08,19.48A3.5,3.5,0,0,1,233.74,244.44Z" transform="translate(-203.12 -183.06)" style="fill:#3e357f"/><rect x="206.64" y="234.12" width="13.7" height="1.83" rx="0.8" ry="0.8" transform="translate(223.86 287.01) rotate(-180)" style="fill:#f1f2f2"/><rect x="214.43" y="235.88" width="4.82" height="1.83" rx="0.8" ry="0.8" transform="translate(230.55 290.52) rotate(180)" style="fill:#f1f2f2"/><rect x="206.2" y="238.31" width="4.82" height="1.83" rx="0.8" ry="0.8" transform="translate(214.09 295.4) rotate(180)" style="fill:#f1f2f2"/><rect x="203.12" y="237.06" width="19.23" height="1.83" rx="0.8" ry="0.8" transform="translate(222.34 292.9) rotate(-180)" style="fill:#f1f2f2"/><rect x="204.23" y="240.01" width="13.7" height="1.83" rx="0.8" ry="0.8" transform="translate(219.04 298.79) rotate(-180)" style="fill:#f1f2f2"/><path d="M231,194.36a0.5,0.5,0,0,1-.35-0.85l4-4a0.5,0.5,0,0,1,.71.71l-4,4A0.5,0.5,0,0,1,231,194.36Z" transform="translate(-203.12 -183.06)" style="fill:#21409a"/><path d="M235,194.36a0.5,0.5,0,0,1-.35-0.15l-4-4a0.5,0.5,0,0,1,.71-0.71l4,4A0.5,0.5,0,0,1,235,194.36Z" transform="translate(-203.12 -183.06)" style="fill:#21409a"/><path d="M261.44,198.78a0.5,0.5,0,0,1-.35-0.85l2.56-2.56a0.5,0.5,0,1,1,.71.71l-2.56,2.56A0.5,0.5,0,0,1,261.44,198.78Z" transform="translate(-203.12 -183.06)" style="fill:#21409a"/><path d="M264,198.78a0.5,0.5,0,0,1-.35-0.15l-2.56-2.56a0.5,0.5,0,0,1,.71-0.71l2.56,2.56A0.5,0.5,0,0,1,264,198.78Z" transform="translate(-203.12 -183.06)" style="fill:#21409a"/><circle cx="254.31" cy="184.76" r="1.7" transform="translate(-197.85 193.5) rotate(-73.6)" style="fill:#ee3961"/><path d="M216.71,275.56a1.5,1.5,0,0,1-1.21-.62l-4-5.49a1.5,1.5,0,0,1,1.06-2.37l6.75-.7a1.52,1.52,0,0,1,1.37.61,1.5,1.5,0,0,1,.16,1.49l-2.76,6.2a1.5,1.5,0,0,1-1.21.88h-0.16Zm-1.24-5.77,0.93,1.28,0.65-1.45Z" transform="translate(-203.12 -183.06)" style="fill:#56bc77"/><path d="M307.31,230.16a2,2,0,0,1-.81-0.17l-6.2-2.76a2,2,0,0,1-.36-3.45l5.49-4a2,2,0,0,1,3.16,1.41l0.7,6.75A2,2,0,0,1,307.31,230.16Z" transform="translate(-203.12 -183.06)" style="fill:#27aae1"/><circle cx="90.45" cy="73.13" r="2.12" style="fill:#f9ed32"/></svg>