<svg id="Слой_1" data-name="Слой 1" xmlns="http://www.w3.org/2000/svg" width="107.48" height="113.41" viewBox="0 0 107.48 113.41"><title>entertaiments</title><line x1="7.74" y1="109.91" x2="39.68" y2="40.01" style="fill:none;stroke:#ed3960;stroke-linecap:round;stroke-linejoin:round;stroke-width:7px"/><line x1="76.01" y1="76.15" x2="7.74" y2="109.91" style="fill:none;stroke:#ed3960;stroke-linecap:round;stroke-linejoin:round;stroke-width:7px"/><line x1="78.68" y1="78.82" x2="37" y2="37.34" style="fill:none;stroke:#ed3960;stroke-linecap:round;stroke-linejoin:round;stroke-width:7px"/><path d="M937.25,69.58s3.83-2.92,4.08-9.67c0.28-7.66,2.59-8.92,6.92-10.46,6.69-2.37,4-11.06,4-11.06" transform="translate(-881.99 -29.99)" style="fill:none;stroke:#ee3961;stroke-linecap:round;stroke-linejoin:round;stroke-width:4px"/><path d="M959.27,91s-0.1-5.17,10-6.36c6.76-.8,7.88-3.06,10.2-9.53a9.7,9.7,0,0,1,8-6.79" transform="translate(-881.99 -29.99)" style="fill:none;stroke:#ee3961;stroke-linecap:round;stroke-linejoin:round;stroke-width:4px"/><path d="M952.79,75.27s4.19-.82,8.31-11.66c4.73-12.45,15.4-7.29,15.4-7.29" transform="translate(-881.99 -29.99)" style="fill:none;stroke:#ee3961;stroke-linecap:round;stroke-linejoin:round;stroke-width:4px"/><line x1="63.64" y1="0.5" x2="61.06" y2="3.07" style="fill:none;stroke:#ec008c;stroke-linecap:round;stroke-linejoin:round"/><line x1="63.64" y1="3.07" x2="61.06" y2="0.5" style="fill:none;stroke:#ec008c;stroke-linecap:round;stroke-linejoin:round"/><line x1="88.91" y1="66.11" x2="86.44" y2="68.57" style="fill:none;stroke:#3e357f;stroke-linecap:round;stroke-linejoin:round;stroke-width:2px"/><line x1="88.91" y1="68.57" x2="86.44" y2="66.11" style="fill:none;stroke:#3e357f;stroke-linecap:round;stroke-linejoin:round;stroke-width:2px"/><circle cx="92.65" cy="35.83" r="2.99" style="fill:#50b3e4"/><circle cx="69.77" cy="36.1" r="2.28" style="fill:#56bc77"/><line x1="71.62" y1="26.49" x2="71.43" y2="23.06" style="fill:none;stroke:#ee3961;stroke-linecap:round;stroke-linejoin:round;stroke-width:2px"/><line x1="79.15" y1="48.8" x2="81.98" y2="49.23" style="fill:none;stroke:#fbb040;stroke-linecap:round;stroke-linejoin:round;stroke-width:2px"/><rect x="886.04" y="86.55" width="15.76" height="2.1" rx="0.85" ry="0.85" transform="translate(905.86 145.22) rotate(180)" style="fill:#f1f2f2"/><rect x="895" y="88.57" width="5.54" height="2.1" rx="0.85" ry="0.85" transform="translate(913.56 149.26) rotate(180)" style="fill:#f1f2f2"/><rect x="885.53" y="91.38" width="5.54" height="2.1" rx="0.85" ry="0.85" transform="translate(894.62 154.87) rotate(180)" style="fill:#f1f2f2"/><rect x="881.99" y="89.94" width="22.13" height="2.1" rx="0.85" ry="0.85" transform="translate(904.11 152) rotate(-180)" style="fill:#f1f2f2"/><rect x="883.27" y="93.33" width="15.76" height="2.1" rx="0.85" ry="0.85" transform="translate(900.32 158.77) rotate(-180)" style="fill:#f1f2f2"/><rect x="962.66" y="122.15" width="15.76" height="2.1" rx="0.85" ry="0.85" transform="translate(1059.09 216.42) rotate(180)" style="fill:#f1f2f2"/><rect x="971.62" y="124.17" width="5.54" height="2.1" rx="0.85" ry="0.85" transform="translate(1066.79 220.47) rotate(180)" style="fill:#f1f2f2"/><rect x="962.15" y="126.98" width="5.54" height="2.1" rx="0.85" ry="0.85" transform="translate(1047.85 226.08) rotate(180)" style="fill:#f1f2f2"/><rect x="958.6" y="125.54" width="22.13" height="2.1" rx="0.85" ry="0.85" transform="translate(1057.34 223.2) rotate(-180)" style="fill:#f1f2f2"/><rect x="959.89" y="128.93" width="15.76" height="2.1" rx="0.85" ry="0.85" transform="translate(1053.55 229.98) rotate(-180)" style="fill:#f1f2f2"/><circle cx="924.34" cy="89.5" r="3.94" transform="translate(-674.54 649.84) rotate(-45)" style="fill:#3e357f"/><line x1="43.59" y1="58.58" x2="41.89" y2="60.28" style="fill:none;stroke:#fff;stroke-linecap:round;stroke-linejoin:round"/><line x1="43.59" y1="60.28" x2="41.89" y2="58.58" style="fill:none;stroke:#fff;stroke-linecap:round;stroke-linejoin:round"/><circle cx="938.31" cy="103.47" r="3.94" transform="translate(-680.33 663.8) rotate(-45)" style="fill:#3e357f"/><line x1="57.55" y1="72.54" x2="55.85" y2="74.24" style="fill:none;stroke:#fff;stroke-linecap:round;stroke-linejoin:round"/><line x1="57.55" y1="74.24" x2="55.85" y2="72.54" style="fill:none;stroke:#fff;stroke-linecap:round;stroke-linejoin:round"/><path d="M917,101.32s-7.31,4.87-1.22,11,11.06-1.12,11.06-1.12Z" transform="translate(-881.99 -29.99)" style="fill:#ee3961"/><path d="M919.47,114.53c-1.41,1.41-2.65.28-4.11-1.18s-2.59-2.7-1.18-4.11A3.74,3.74,0,0,1,919.47,114.53Z" transform="translate(-881.99 -29.99)" style="fill:#ce345c"/><path d="M914.77,113.33c-2.11-2.11-3.06-4.35-2.83-6.68,0.39-3.94,4.11-6.46,4.27-6.57a1.49,1.49,0,0,1,1.88.19l9.84,9.84a1.49,1.49,0,0,1,.17,1.89c-0.11.16-2.67,3.82-6.63,4.18C919.13,116.39,916.87,115.44,914.77,113.33Zm2.17-10a6.16,6.16,0,0,0-2,3.63c-0.13,1.4.53,2.83,2,4.27a5.53,5.53,0,0,0,4.33,2,6.27,6.27,0,0,0,3.65-2Z" transform="translate(-881.99 -29.99)" style="fill:#3e357f"/><path d="M898.37,83.72s-3.84,14.94,7.33,21.22" transform="translate(-881.99 -29.99)" style="fill:none;stroke:#ed3960;stroke-linecap:round;stroke-linejoin:round;stroke-width:7px"/><path d="M937.25,136.25s5.22-10.57-6-16.86" transform="translate(-881.99 -29.99)" style="fill:none;stroke:#ed3960;stroke-linecap:round;stroke-linejoin:round;stroke-width:7px"/></svg>