<svg id="Слой_1" data-name="Слой 1" xmlns="http://www.w3.org/2000/svg" width="113.62" height="71.54" viewBox="0 0 113.62 71.54"><title>horror</title><rect x="2.15" y="30.12" width="14.69" height="1.96" rx="0.85" ry="0.85" style="fill:#f1f2f2"/><rect x="3.33" y="32.01" width="5.17" height="1.96" rx="0.85" ry="0.85" style="fill:#f1f2f2"/><rect x="12.16" y="34.62" width="5.17" height="1.96" rx="0.85" ry="0.85" style="fill:#f1f2f2"/><rect y="33.28" width="20.63" height="1.96" rx="0.85" ry="0.85" style="fill:#f1f2f2"/><rect x="4.74" y="36.44" width="14.69" height="1.96" rx="0.85" ry="0.85" style="fill:#f1f2f2"/><path d="M59.12,247.33a2.5,2.5,0,0,1-2.5-2.5V233.54a2.5,2.5,0,0,1,5,0v11.28A2.5,2.5,0,0,1,59.12,247.33Z" transform="translate(-43.11 -203.52)" style="fill:#ef4136"/><path d="M63.48,244.77a2,2,0,0,1-2-2V231.49a2,2,0,0,1,4,0v11.28A2,2,0,0,1,63.48,244.77Z" transform="translate(-43.11 -203.52)" style="fill:#ef4136"/><path d="M66.25,252.74a1.5,1.5,0,0,1-1.5-1.5V240a1.5,1.5,0,0,1,3,0v11.28A1.5,1.5,0,0,1,66.25,252.74Z" transform="translate(-43.11 -203.52)" style="fill:#ef4136"/><path d="M69,250.41a1.5,1.5,0,0,1-1.5-1.5V237.63a1.5,1.5,0,0,1,3,0v11.28A1.5,1.5,0,0,1,69,250.41Z" transform="translate(-43.11 -203.52)" style="fill:#ef4136"/><path d="M71.19,257.83a1,1,0,0,1-1-1V245.55a1,1,0,0,1,2,0v11.28A1,1,0,0,1,71.19,257.83Z" transform="translate(-43.11 -203.52)" style="fill:#ef4136"/><path d="M71.55,263.52a1,1,0,0,1-1-1v-1.25a1,1,0,0,1,2,0v1.25A1,1,0,0,1,71.55,263.52Z" transform="translate(-43.11 -203.52)" style="fill:#ef4136"/><path d="M71.55,263.52a1,1,0,0,1-1-1v-1.25a1,1,0,0,1,2,0v1.25A1,1,0,0,1,71.55,263.52Z" transform="translate(-43.11 -203.52)" style="fill:#ef4136"/><path d="M135.24,271.78a4.8,4.8,0,0,1-6.74.73L112,259.2,110.5,258l-1.9-1.53a4.79,4.79,0,0,1,5.17-8,5.4,5.4,0,0,1,.84.53l1.82,1.46L134.51,265A4.8,4.8,0,0,1,135.24,271.78Z" transform="translate(-43.11 -203.52)" style="fill:#3e357f"/><path d="M116.1,250.17c1,0.86,1,2.61-.07,3.91l-2.18,2.76c-1,1.29-2.44,1.88-3.14,1.3s-0.65-2.25.12-3.71l2.11-3.16C113.7,249.81,115.12,249.31,116.1,250.17Z" transform="translate(-43.11 -203.52)" style="fill:#2b2660"/><path d="M116.48,250.41l-0.07.09s-1.16,1.49-2.56,3.27l-0.81,1-4.64,5.88a21,21,0,0,1-5.1,4.35c-1.66.94-7-.73-8.17-1.48s-3.72-2.41-5.57-3.71l-12.52-9c-0.86-.62-1.69-1.27-2.49-2l-8.33-7.32c-1.69-1.49-5.7-5.35-6.72-6.38a18.68,18.68,0,0,1-3.17-5c-0.41-1,.25-3.13,1.16-5.17a23.08,23.08,0,0,1,1.83-3.41A5.84,5.84,0,0,1,59.7,221l5-6.36a4.12,4.12,0,0,1,5.77-.68l42.83,33.85C115.06,249.2,116.48,250.36,116.48,250.41Z" transform="translate(-43.11 -203.52)" style="fill:#d2d5d7"/><path d="M116.48,250.41l-0.07.09s-1.16,1.49-2.56,3.27l-0.81,1-4.64,5.88a21,21,0,0,1-5.1,4.35c-1.66.94-7-.73-8.17-1.48s-3.72-2.41-5.57-3.71l-12.52-9c-0.86-.62-1.69-1.27-2.49-2l-8.33-7.32c-1.69-1.49-5.7-5.35-6.72-6.38a18.68,18.68,0,0,1-3.17-5c-0.41-1,.25-3.13,1.16-5.17a23.08,23.08,0,0,1,1.83-3.41A5.84,5.84,0,0,1,59.7,221l5-6.36a4.12,4.12,0,0,1,5.77-.68l42.83,33.85C115.06,249.2,116.48,250.36,116.48,250.41Z" transform="translate(-43.11 -203.52)" style="fill:#d2d5d7"/><path d="M108.16,260.92a15.52,15.52,0,0,1-1.64,1.12c-1,.6-3.42.2-5.45-0.39l-30.71-22.4-2.62-2.36c-1.77-1.59-6-5.72-7-6.82a20.63,20.63,0,0,1-3.21-5.15,23.08,23.08,0,0,1,1.83-3.41,3.64,3.64,0,0,0,0,1.9,20.53,20.53,0,0,0,3.32,5.4c1.06,1.11,5.26,5.24,7,6.83l8.71,7.83a32,32,0,0,0,2.6,2.13l13.1,9.62c1.94,1.38,4.56,3.17,5.82,4S106.16,261.61,108.16,260.92Z" transform="translate(-43.11 -203.52)" style="fill:#d2d5d7"/><path d="M111,258.39h0l-0.69-.54,0.22,0.13Z" transform="translate(-43.11 -203.52)" style="fill:#d2d5d7"/><path d="M59.12,253.74a1,1,0,0,1-1-1v-1.25a1,1,0,0,1,2,0v1.25A1,1,0,0,1,59.12,253.74Z" transform="translate(-43.11 -203.52)" style="fill:#d63430"/><path d="M100.94,266.25a12.61,12.61,0,0,1-6.34-1.89c-0.24-.17-18-13.24-29-22.06-9.87-7.9-10.36-12.9-10.38-13.11a1,1,0,0,1,2-.17c0,0.11.65,4.53,9.63,11.71,11,8.79,28.7,21.84,28.87,22s5.93,3.64,9.47-.27a1,1,0,0,1,1.48,1.34A7.46,7.46,0,0,1,100.94,266.25Z" transform="translate(-43.11 -203.52)" style="fill:#ef4136"/><path d="M56.21,234.25a1,1,0,0,1-1-1v-3.93a1,1,0,0,1,2,0v3.93A1,1,0,0,1,56.21,234.25Z" transform="translate(-43.11 -203.52)" style="fill:#ef4136"/><path d="M76.06,263.39a1.5,1.5,0,0,1-1.5-1.5V250.09a1.5,1.5,0,0,1,3,0v11.81A1.5,1.5,0,0,1,76.06,263.39Z" transform="translate(-43.11 -203.52)" style="fill:#ef4136"/><path d="M78.61,259.21a1.5,1.5,0,0,1-1.5-1.5v-5.25a1.5,1.5,0,0,1,3,0v5.25A1.5,1.5,0,0,1,78.61,259.21Z" transform="translate(-43.11 -203.52)" style="fill:#ef4136"/><path d="M80.73,262.25a1.5,1.5,0,0,1-1.5-1.5V253.9a1.5,1.5,0,0,1,3,0v6.84A1.5,1.5,0,0,1,80.73,262.25Z" transform="translate(-43.11 -203.52)" style="fill:#ef4136"/><path d="M100,274.78a2.5,2.5,0,0,1-2.5-2.5v-4.92a2.5,2.5,0,1,1,5,0v4.92A2.5,2.5,0,0,1,100,274.78Z" transform="translate(-43.11 -203.52)" style="fill:#ef4136"/><rect x="54.4" y="62.11" width="5" height="6.64" style="fill:#ef4136"/><path d="M89.43,272.88a1,1,0,0,1-1-1v-3.55a1,1,0,0,1,2,0v3.55A1,1,0,0,1,89.43,272.88Z" transform="translate(-43.11 -203.52)" style="fill:#d63430"/><rect x="95.15" y="57.6" width="14.69" height="1.96" rx="0.85" ry="0.85" style="fill:#f1f2f2"/><rect x="96.32" y="59.49" width="5.17" height="1.96" rx="0.85" ry="0.85" style="fill:#f1f2f2"/><rect x="105.15" y="62.1" width="5.17" height="1.96" rx="0.85" ry="0.85" style="fill:#f1f2f2"/><rect x="92.99" y="60.76" width="20.63" height="1.96" rx="0.85" ry="0.85" style="fill:#f1f2f2"/><rect x="97.73" y="63.92" width="14.69" height="1.96" rx="0.85" ry="0.85" style="fill:#f1f2f2"/><path d="M63.58,212a1.49,1.49,0,0,1-.39-0.05l-5.44-1.46a1.5,1.5,0,0,1-.67-2.51l4-4a1.5,1.5,0,0,1,2.51.67L65,210.08A1.5,1.5,0,0,1,63.58,212ZM61,208.23l0.42,0.11-0.11-.42Z" transform="translate(-43.11 -203.52)" style="fill:#27aae1"/><path d="M48.39,255.38a0.5,0.5,0,0,1-.35-0.85l2.15-2.15a0.5,0.5,0,0,1,.71.71l-2.15,2.15A0.5,0.5,0,0,1,48.39,255.38Z" transform="translate(-43.11 -203.52)" style="fill:#00a79d"/><path d="M50.54,255.38a0.5,0.5,0,0,1-.35-0.15L48,253.09a0.5,0.5,0,0,1,.71-0.71l2.15,2.15A0.5,0.5,0,0,1,50.54,255.38Z" transform="translate(-43.11 -203.52)" style="fill:#00a79d"/><path d="M68.66,219.46a0.5,0.5,0,0,1-.35-0.85l2.15-2.15a0.5,0.5,0,0,1,.71.71L69,219.31A0.5,0.5,0,0,1,68.66,219.46Z" transform="translate(-43.11 -203.52)" style="fill:#f1f2f2"/><path d="M70.81,219.46a0.5,0.5,0,0,1-.35-0.15l-2.15-2.15a0.5,0.5,0,0,1,.71-0.71l2.15,2.15A0.5,0.5,0,0,1,70.81,219.46Z" transform="translate(-43.11 -203.52)" style="fill:#f1f2f2"/><path d="M120,260a0.5,0.5,0,0,1-.35-0.15l-2.15-2.15a0.5,0.5,0,1,1,.71-0.71l2.15,2.15A0.5,0.5,0,0,1,120,260Z" transform="translate(-43.11 -203.52)" style="fill:#f1f2f2"/><path d="M117.89,260a0.5,0.5,0,0,1-.35-0.85l2.15-2.15a0.5,0.5,0,0,1,.71.71l-2.15,2.15A0.5,0.5,0,0,1,117.89,260Z" transform="translate(-43.11 -203.52)" style="fill:#f1f2f2"/><path d="M132,269.45a0.5,0.5,0,0,1-.35-0.15l-2.15-2.15a0.5,0.5,0,1,1,.71-0.71l2.15,2.15A0.5,0.5,0,0,1,132,269.45Z" transform="translate(-43.11 -203.52)" style="fill:#f1f2f2"/><path d="M129.89,269.45a0.5,0.5,0,0,1-.35-0.85l2.15-2.15a0.5,0.5,0,1,1,.71.71l-2.15,2.15A0.5,0.5,0,0,1,129.89,269.45Z" transform="translate(-43.11 -203.52)" style="fill:#f1f2f2"/><circle cx="72.21" cy="29.73" r="1.66" style="fill:#ed1c24"/><circle cx="73.87" cy="273.08" r="1.98" transform="translate(-214.57 -71.31) rotate(-45)" style="fill:#00a79d"/><rect x="91.61" y="216.21" width="8.91" height="1.96" rx="0.85" ry="0.85" transform="translate(149.01 230.86) rotate(180)" style="fill:#f1f2f2"/><rect x="94.17" y="217.68" width="4" height="1.96" rx="0.85" ry="0.85" transform="translate(149.23 233.79) rotate(180)" style="fill:#f1f2f2"/><rect x="91.72" y="220.85" width="4" height="1.96" rx="0.85" ry="0.85" transform="translate(144.34 240.13) rotate(180)" style="fill:#f1f2f2"/><rect x="88.47" y="219.37" width="13.92" height="1.96" rx="0.85" ry="0.85" transform="translate(147.75 237.17) rotate(-180)" style="fill:#f1f2f2"/><rect x="89.12" y="222.35" width="10.02" height="1.96" rx="0.85" ry="0.85" transform="translate(145.15 243.15) rotate(-180)" style="fill:#f1f2f2"/><path d="M101.82,233.16a0.5,0.5,0,0,1-.35-0.85l2.15-2.15a0.5,0.5,0,1,1,.71.71L102.17,233A0.5,0.5,0,0,1,101.82,233.16Z" transform="translate(-43.11 -203.52)" style="fill:#d7df23"/><path d="M104,233.16a0.5,0.5,0,0,1-.35-0.15l-2.15-2.15a0.5,0.5,0,1,1,.71-0.71l2.15,2.15A0.5,0.5,0,0,1,104,233.16Z" transform="translate(-43.11 -203.52)" style="fill:#d7df23"/><path d="M50.63,272.65a0.5,0.5,0,0,1-.35-0.85l1.94-1.94a0.5,0.5,0,0,1,.71.71L51,272.5A0.5,0.5,0,0,1,50.63,272.65Z" transform="translate(-43.11 -203.52)" style="fill:#ed1c24"/><path d="M52.58,272.65a0.5,0.5,0,0,1-.35-0.15l-1.94-1.94a0.5,0.5,0,1,1,.71-0.71l1.94,1.94A0.5,0.5,0,0,1,52.58,272.65Z" transform="translate(-43.11 -203.52)" style="fill:#ed1c24"/></svg>